<svg
  width="1920"
  height="1080"
  viewBox="0 0 1920 1080"
  fill="none"
  xmlns="http://www.w3.org/2000/svg"
>
  <g clip-path="url(#clip0_2936_8)">
    <rect width="1920" height="1080" fill="black" />
    <g opacity="0.4">
      <path
        d="M819.243 565.227L817.655 556.224L856.375 549.397L857.962 558.399L819.243 565.227ZM840.833 604.211L831.928 553.707L842.102 551.913L851.007 602.417L840.833 604.211Z"
        fill="white"
      />
      <path
        d="M858.791 548.971L869.697 547.048L890.693 585.231L892.216 595.151L886.214 596.209L858.791 548.971ZM888.204 585.67L894.802 542.621L905.415 540.749L895.802 594.518L890.313 595.486L888.204 585.67Z"
        fill="white"
      />
      <g clip-path="url(#clip1_2936_8)">
        <path
          d="M912.56 512.825L802.262 532.274C794.647 533.616 789.563 540.877 790.906 548.492L804.277 624.322C805.619 631.937 812.88 637.021 820.495 635.678L930.793 616.23C938.408 614.887 943.492 607.626 942.15 600.011L928.779 524.181C927.436 516.567 920.175 511.482 912.56 512.825Z"
          stroke="white"
          stroke-width="14"
          stroke-linecap="round"
          stroke-linejoin="round"
        />
        <path
          d="M885.802 482.003L857.411 522.549L816.865 494.159"
          stroke="white"
          stroke-width="14"
          stroke-linecap="round"
          stroke-linejoin="round"
        />
      </g>
      <path
        d="M887.312 951.271L885.725 942.269L924.444 935.441L926.031 944.444L887.312 951.271ZM908.903 990.255L899.997 939.752L910.171 937.958L919.076 988.462L908.903 990.255Z"
        fill="white"
      />
      <path
        d="M926.86 935.015L937.766 933.092L958.762 971.276L960.285 981.195L954.283 982.254L926.86 935.015ZM956.274 971.714L962.871 928.666L973.484 926.794L963.872 980.563L958.382 981.531L956.274 971.714Z"
        fill="white"
      />
      <g clip-path="url(#clip2_2936_8)">
        <path
          d="M980.63 898.87L870.331 918.318C862.717 919.661 857.632 926.922 858.975 934.537L872.346 1010.37C873.689 1017.98 880.95 1023.07 888.564 1021.72L998.863 1002.27C1006.48 1000.93 1011.56 993.671 1010.22 986.056L996.848 910.226C995.505 902.611 988.244 897.527 980.63 898.87Z"
          stroke="white"
          stroke-width="14"
          stroke-linecap="round"
          stroke-linejoin="round"
        />
        <path
          d="M953.871 868.048L925.481 908.594L884.935 880.203"
          stroke="white"
          stroke-width="14"
          stroke-linecap="round"
          stroke-linejoin="round"
        />
      </g>
      <path
        d="M47.1529 701.367L45.5654 692.364L84.2849 685.537L85.8723 694.54L47.1529 701.367ZM68.7433 740.351L59.8382 689.848L70.0121 688.054L78.9173 738.557L68.7433 740.351Z"
        fill="white"
      />
      <path
        d="M86.7008 685.111L97.6067 683.188L118.603 721.371L120.126 731.291L114.124 732.349L86.7008 685.111ZM116.115 721.81L122.712 678.761L133.325 676.89L123.712 730.659L118.223 731.627L116.115 721.81Z"
        fill="white"
      />
      <g clip-path="url(#clip3_2936_8)">
        <path
          d="M140.471 648.965L30.1721 668.414C22.5576 669.757 17.4732 677.018 18.8158 684.632L32.1867 760.462C33.5294 768.077 40.7906 773.161 48.4051 771.819L158.704 752.37C166.318 751.027 171.402 743.766 170.06 736.152L156.689 660.322C155.346 652.707 148.085 647.623 140.471 648.965Z"
          stroke="white"
          stroke-width="14"
          stroke-linecap="round"
          stroke-linejoin="round"
        />
        <path
          d="M113.712 618.144L85.3214 658.69L44.7754 630.299"
          stroke="white"
          stroke-width="14"
          stroke-linecap="round"
          stroke-linejoin="round"
        />
      </g>
      <path
        d="M115.223 1087.41L113.636 1078.41L152.355 1071.58L153.943 1080.58L115.223 1087.41ZM136.814 1126.4L127.909 1075.89L138.082 1074.1L146.988 1124.6L136.814 1126.4Z"
        fill="white"
      />
      <path
        d="M154.771 1071.16L165.677 1069.23L186.673 1107.42L188.196 1117.34L182.194 1118.39L154.771 1071.16ZM184.185 1107.85L190.782 1064.81L201.395 1062.93L191.783 1116.7L186.293 1117.67L184.185 1107.85Z"
        fill="white"
      />
      <g clip-path="url(#clip4_2936_8)">
        <path
          d="M208.541 1035.01L98.2424 1054.46C90.6279 1055.8 85.5435 1063.06 86.8862 1070.68L100.257 1146.51C101.6 1154.12 108.861 1159.21 116.475 1157.86L226.774 1138.41C234.388 1137.07 239.473 1129.81 238.13 1122.2L224.759 1046.37C223.417 1038.75 216.155 1033.67 208.541 1035.01Z"
          stroke="white"
          stroke-width="14"
          stroke-linecap="round"
          stroke-linejoin="round"
        />
        <path
          d="M181.782 1004.19L153.392 1044.73L112.846 1016.34"
          stroke="white"
          stroke-width="14"
          stroke-linecap="round"
          stroke-linejoin="round"
        />
      </g>
      <path
        d="M1591.33 429.087L1589.74 420.084L1628.46 413.256L1630.05 422.259L1591.33 429.087ZM1612.92 468.071L1604.02 417.567L1614.19 415.773L1623.1 466.277L1612.92 468.071Z"
        fill="white"
      />
      <path
        d="M1630.88 412.83L1641.79 410.907L1662.78 449.091L1664.3 459.011L1658.3 460.069L1630.88 412.83ZM1660.29 449.53L1666.89 406.481L1677.5 404.609L1667.89 458.378L1662.4 459.346L1660.29 449.53Z"
        fill="white"
      />
      <g clip-path="url(#clip5_2936_8)">
        <path
          d="M1684.65 376.685L1574.35 396.133C1566.74 397.476 1561.65 404.737 1562.99 412.352L1576.37 488.182C1577.71 495.796 1584.97 500.881 1592.58 499.538L1702.88 480.09C1710.5 478.747 1715.58 471.486 1714.24 463.871L1700.87 388.041C1699.53 380.426 1692.26 375.342 1684.65 376.685Z"
          stroke="white"
          stroke-width="14"
          stroke-linecap="round"
          stroke-linejoin="round"
        />
        <path
          d="M1657.89 345.863L1629.5 386.409L1588.95 358.019"
          stroke="white"
          stroke-width="14"
          stroke-linecap="round"
          stroke-linejoin="round"
        />
      </g>
      <path
        d="M1659.4 815.131L1657.81 806.128L1696.53 799.301L1698.12 808.304L1659.4 815.131ZM1680.99 854.115L1672.09 803.612L1682.26 801.818L1691.17 852.321L1680.99 854.115Z"
        fill="white"
      />
      <path
        d="M1698.95 798.875L1709.86 796.952L1730.85 835.135L1732.37 845.055L1726.37 846.114L1698.95 798.875ZM1728.36 835.574L1734.96 792.525L1745.57 790.654L1735.96 844.423L1730.47 845.391L1728.36 835.574Z"
        fill="white"
      />
      <g clip-path="url(#clip6_2936_8)">
        <path
          d="M1752.72 762.729L1642.42 782.178C1634.81 783.521 1629.72 790.782 1631.06 798.396L1644.44 874.227C1645.78 881.841 1653.04 886.926 1660.65 885.583L1770.95 866.134C1778.57 864.792 1783.65 857.53 1782.31 849.916L1768.94 774.086C1767.6 766.471 1760.33 761.387 1752.72 762.729Z"
          stroke="white"
          stroke-width="14"
          stroke-linecap="round"
          stroke-linejoin="round"
        />
        <path
          d="M1725.96 731.908L1697.57 772.454L1657.02 744.063"
          stroke="white"
          stroke-width="14"
          stroke-linecap="round"
          stroke-linejoin="round"
        />
      </g>
      <path
        d="M785.208 372.204L783.62 363.202L822.34 356.374L823.927 365.377L785.208 372.204ZM806.798 411.189L797.893 360.685L808.067 358.891L816.972 409.395L806.798 411.189Z"
        fill="white"
      />
      <path
        d="M824.756 355.948L835.661 354.025L856.658 392.209L858.181 402.128L852.179 403.187L824.756 355.948ZM854.169 392.647L860.767 349.599L871.38 347.727L861.767 401.496L856.278 402.464L854.169 392.647Z"
        fill="white"
      />
      <g clip-path="url(#clip7_2936_8)">
        <path
          d="M878.525 319.803L768.227 339.251C760.612 340.594 755.528 347.855 756.871 355.47L770.241 431.3C771.584 438.914 778.845 443.999 786.46 442.656L896.758 423.208C904.373 421.865 909.457 414.604 908.115 406.989L894.744 331.159C893.401 323.544 886.14 318.46 878.525 319.803Z"
          stroke="white"
          stroke-width="14"
          stroke-linecap="round"
          stroke-linejoin="round"
        />
        <path
          d="M851.767 288.981L823.376 329.527L782.83 301.136"
          stroke="white"
          stroke-width="14"
          stroke-linecap="round"
          stroke-linejoin="round"
        />
      </g>
      <path
        d="M751.172 179.182L749.585 170.179L788.304 163.352L789.892 172.355L751.172 179.182ZM772.763 218.166L763.858 167.663L774.032 165.869L782.937 216.372L772.763 218.166Z"
        fill="white"
      />
      <path
        d="M790.72 162.926L801.626 161.003L822.623 199.186L824.145 209.106L818.144 210.165L790.72 162.926ZM820.134 199.625L826.732 156.576L837.345 154.705L827.732 208.474L822.242 209.442L820.134 199.625Z"
        fill="white"
      />
      <g clip-path="url(#clip8_2936_8)">
        <path
          d="M844.49 126.78L734.192 146.229C726.577 147.572 721.493 154.833 722.835 162.447L736.206 238.278C737.549 245.892 744.81 250.977 752.425 249.634L862.723 230.185C870.338 228.843 875.422 221.581 874.079 213.967L860.708 138.137C859.366 130.522 852.105 125.438 844.49 126.78Z"
          stroke="white"
          stroke-width="14"
          stroke-linecap="round"
          stroke-linejoin="round"
        />
        <path
          d="M817.731 95.9589L789.341 136.505L748.795 108.114"
          stroke="white"
          stroke-width="14"
          stroke-linecap="round"
          stroke-linejoin="round"
        />
      </g>
      <path
        d="M717.137 -13.8402L715.55 -22.843L754.269 -29.6703L755.857 -20.6675L717.137 -13.8402ZM738.728 25.1439L729.823 -25.3597L739.996 -27.1536L748.902 23.35L738.728 25.1439Z"
        fill="white"
      />
      <path
        d="M756.685 -30.0963L767.591 -32.0193L788.587 6.16395L790.11 16.0838L784.108 17.1421L756.685 -30.0963ZM786.099 6.60275L792.696 -36.4461L803.31 -38.3174L793.697 15.4514L788.207 16.4194L786.099 6.60275Z"
        fill="white"
      />
      <g clip-path="url(#clip9_2936_8)">
        <path
          d="M810.455 -66.242L700.156 -46.7934C692.542 -45.4507 687.458 -38.1895 688.8 -30.575L702.171 45.2552C703.514 52.8697 710.775 57.9541 718.39 56.6114L828.688 37.1628C836.303 35.8202 841.387 28.559 840.044 20.9445L826.673 -54.8857C825.331 -62.5003 818.069 -67.5846 810.455 -66.242Z"
          stroke="white"
          stroke-width="14"
          stroke-linecap="round"
          stroke-linejoin="round"
        />
      </g>
      <g clip-path="url(#clip10_2936_8)">
        <path
          d="M987.906 1061.07L959.516 1101.62L918.97 1073.23"
          stroke="white"
          stroke-width="14"
          stroke-linecap="round"
          stroke-linejoin="round"
        />
      </g>
      <path
        d="M853.278 758.249L851.69 749.246L890.41 742.419L891.997 751.422L853.278 758.249ZM874.868 797.233L865.963 746.73L876.137 744.936L885.042 795.439L874.868 797.233Z"
        fill="white"
      />
      <path
        d="M892.826 741.993L903.732 740.07L924.728 778.253L926.251 788.173L920.249 789.231L892.826 741.993ZM922.24 778.692L928.837 735.643L939.45 733.772L929.837 787.541L924.348 788.509L922.24 778.692Z"
        fill="white"
      />
      <g clip-path="url(#clip11_2936_8)">
        <path
          d="M946.596 705.847L836.297 725.296C828.683 726.639 823.598 733.9 824.941 741.514L838.312 817.345C839.654 824.959 846.916 830.043 854.53 828.701L964.829 809.252C972.443 807.91 977.527 800.648 976.185 793.034L962.814 717.204C961.471 709.589 954.21 704.505 946.596 705.847Z"
          stroke="white"
          stroke-width="14"
          stroke-linecap="round"
          stroke-linejoin="round"
        />
        <path
          d="M919.837 675.026L891.446 715.572L850.9 687.181"
          stroke="white"
          stroke-width="14"
          stroke-linecap="round"
          stroke-linejoin="round"
        />
      </g>
      <path
        d="M13.1177 508.345L11.5303 499.342L50.2497 492.515L51.8372 501.517L13.1177 508.345ZM34.7082 547.329L25.803 496.825L35.977 495.031L44.8821 545.535L34.7082 547.329Z"
        fill="white"
      />
      <path
        d="M52.6657 492.089L63.5715 490.166L84.568 528.349L86.0907 538.269L80.0888 539.327L52.6657 492.089ZM82.0794 528.788L88.677 485.739L99.29 483.867L89.6772 537.636L84.1877 538.604L82.0794 528.788Z"
        fill="white"
      />
      <g clip-path="url(#clip12_2936_8)">
        <path
          d="M106.435 455.943L-3.86308 475.391C-11.4776 476.734 -16.562 483.995 -15.2193 491.61L-1.84841 567.44C-0.505761 575.055 6.75546 580.139 14.37 578.796L124.668 559.348C132.283 558.005 137.367 550.744 136.025 543.129L122.654 467.299C121.311 459.685 114.05 454.6 106.435 455.943Z"
          stroke="white"
          stroke-width="14"
          stroke-linecap="round"
          stroke-linejoin="round"
        />
        <path
          d="M79.6768 425.121L51.2862 465.667L10.7402 437.277"
          stroke="white"
          stroke-width="14"
          stroke-linecap="round"
          stroke-linejoin="round"
        />
      </g>
      <path
        d="M-20.9174 315.322L-22.5049 306.32L16.2146 299.492L17.802 308.495L-20.9174 315.322ZM0.67303 354.307L-8.23212 303.803L1.9418 302.009L10.8469 352.513L0.67303 354.307Z"
        fill="white"
      />
      <path
        d="M18.6305 299.066L29.5364 297.143L50.5328 335.327L52.0555 345.246L46.0537 346.305L18.6305 299.066ZM48.0442 335.765L54.6418 292.717L65.2549 290.845L55.642 344.614L50.1525 345.582L48.0442 335.765Z"
        fill="white"
      />
      <g clip-path="url(#clip13_2936_8)">
        <path
          d="M72.4002 262.921L-37.8982 282.369C-45.5128 283.712 -50.5971 290.973 -49.2545 298.588L-35.8836 374.418C-34.5409 382.032 -27.2797 387.117 -19.6652 385.774L90.6333 366.325C98.2478 364.983 103.332 357.722 101.99 350.107L88.6186 274.277C87.276 266.662 80.0148 261.578 72.4002 262.921Z"
          stroke="white"
          stroke-width="14"
          stroke-linecap="round"
          stroke-linejoin="round"
        />
        <path
          d="M45.6416 232.099L17.251 272.645L-23.2949 244.254"
          stroke="white"
          stroke-width="14"
          stroke-linecap="round"
          stroke-linejoin="round"
        />
      </g>
      <path
        d="M-54.9516 122.3L-56.5391 113.297L-17.8196 106.47L-16.2322 115.473L-54.9516 122.3ZM-33.3611 161.284L-42.2663 110.78L-32.0924 108.987L-23.1872 159.49L-33.3611 161.284Z"
        fill="white"
      />
      <path
        d="M-15.4037 106.044L-4.49781 104.121L16.4986 142.304L18.0214 152.224L12.0195 153.282L-15.4037 106.044ZM14.01 142.743L20.6076 99.6941L31.2207 97.8227L21.6078 151.592L16.1183 152.559L14.01 142.743Z"
        fill="white"
      />
      <g clip-path="url(#clip14_2936_8)">
        <path
          d="M38.3661 69.8982L-71.9324 89.3468C-79.5469 90.6894 -84.6313 97.9506 -83.2887 105.565L-69.9177 181.395C-68.5751 189.01 -61.3139 194.094 -53.6994 192.752L56.5991 173.303C64.2136 171.96 69.298 164.699 67.9554 157.085L54.5844 81.2544C53.2418 73.6399 45.9806 68.5555 38.3661 69.8982Z"
          stroke="white"
          stroke-width="14"
          stroke-linecap="round"
          stroke-linejoin="round"
        />
        <path
          d="M11.6074 39.0766L-16.7831 79.6225L-57.3291 51.2319"
          stroke="white"
          stroke-width="14"
          stroke-linecap="round"
          stroke-linejoin="round"
        />
      </g>
      <g clip-path="url(#clip15_2936_8)">
        <path
          d="M4.33091 -123.124L-105.968 -103.675C-113.582 -102.333 -118.666 -95.0716 -117.324 -87.4571L-103.953 -11.6269C-102.61 -4.01236 -95.349 1.072 -87.7345 -0.270648L22.564 -19.7192C30.1785 -21.0619 35.2628 -28.3231 33.9202 -35.9376L20.5493 -111.768C19.2066 -119.382 11.9454 -124.467 4.33091 -123.124Z"
          stroke="white"
          stroke-width="14"
          stroke-linecap="round"
          stroke-linejoin="round"
        />
      </g>
      <path
        d="M81.188 894.389L79.6006 885.386L118.32 878.559L119.907 887.562L81.188 894.389ZM102.778 933.373L93.8733 882.87L104.047 881.076L112.952 931.579L102.778 933.373Z"
        fill="white"
      />
      <path
        d="M120.736 878.133L131.642 876.21L152.638 914.393L154.161 924.313L148.159 925.372L120.736 878.133ZM150.15 914.832L156.747 871.783L167.36 869.912L157.747 923.681L152.258 924.649L150.15 914.832Z"
        fill="white"
      />
      <g clip-path="url(#clip16_2936_8)">
        <path
          d="M174.506 841.988L64.2072 861.436C56.5927 862.779 51.5084 870.04 52.851 877.654L66.2219 953.485C67.5646 961.099 74.8258 966.184 82.4403 964.841L192.739 945.392C200.353 944.05 205.438 936.788 204.095 929.174L190.724 853.344C189.381 845.729 182.12 840.645 174.506 841.988Z"
          stroke="white"
          stroke-width="14"
          stroke-linecap="round"
          stroke-linejoin="round"
        />
        <path
          d="M147.747 811.166L119.357 851.712L78.8105 823.321"
          stroke="white"
          stroke-width="14"
          stroke-linecap="round"
          stroke-linejoin="round"
        />
      </g>
      <path
        d="M1557.3 236.064L1555.71 227.062L1594.43 220.234L1596.02 229.237L1557.3 236.064ZM1578.89 275.048L1569.98 224.545L1580.16 222.751L1589.06 273.255L1578.89 275.048Z"
        fill="white"
      />
      <path
        d="M1596.84 219.808L1607.75 217.885L1628.75 256.068L1630.27 265.988L1624.27 267.047L1596.84 219.808ZM1626.26 256.507L1632.86 213.458L1643.47 211.587L1633.86 265.356L1628.37 266.324L1626.26 256.507Z"
        fill="white"
      />
      <g clip-path="url(#clip17_2936_8)">
        <path
          d="M1650.61 183.663L1540.32 203.111C1532.7 204.454 1527.62 211.715 1528.96 219.33L1542.33 295.16C1543.67 302.774 1550.93 307.859 1558.55 306.516L1668.85 287.067C1676.46 285.725 1681.55 278.464 1680.2 270.849L1666.83 195.019C1665.49 187.404 1658.23 182.32 1650.61 183.663Z"
          stroke="white"
          stroke-width="14"
          stroke-linecap="round"
          stroke-linejoin="round"
        />
        <path
          d="M1623.86 152.841L1595.46 193.387L1554.92 164.996"
          stroke="white"
          stroke-width="14"
          stroke-linecap="round"
          stroke-linejoin="round"
        />
      </g>
      <path
        d="M1523.26 43.0419L1521.67 34.0391L1560.39 27.2118L1561.98 36.2146L1523.26 43.0419ZM1544.85 82.026L1535.95 31.5224L1546.12 29.7285L1555.03 80.2321L1544.85 82.026Z"
        fill="white"
      />
      <path
        d="M1562.81 26.7858L1573.72 24.8628L1594.71 63.046L1596.23 72.9659L1590.23 74.0242L1562.81 26.7858ZM1592.22 63.4848L1598.82 20.436L1609.43 18.5646L1599.82 72.3335L1594.33 73.3014L1592.22 63.4848Z"
        fill="white"
      />
      <g clip-path="url(#clip18_2936_8)">
        <path
          d="M1616.58 -9.3599L1506.28 10.0887C1498.67 11.4313 1493.58 18.6926 1494.92 26.3071L1508.3 102.137C1509.64 109.752 1516.9 114.836 1524.51 113.494L1634.81 94.0449C1642.43 92.7023 1647.51 85.4411 1646.17 77.8265L1632.8 1.99634C1631.45 -5.61818 1624.19 -10.7025 1616.58 -9.3599Z"
          stroke="white"
          stroke-width="14"
          stroke-linecap="round"
          stroke-linejoin="round"
        />
        <path
          d="M1589.82 -40.1815L1561.43 0.364465L1520.88 -28.0261"
          stroke="white"
          stroke-width="14"
          stroke-linecap="round"
          stroke-linejoin="round"
        />
      </g>
      <path
        d="M1693.44 1008.15L1691.85 999.151L1730.57 992.323L1732.16 1001.33L1693.44 1008.15ZM1715.03 1047.14L1706.12 996.634L1716.3 994.84L1725.2 1045.34L1715.03 1047.14Z"
        fill="white"
      />
      <path
        d="M1732.99 991.897L1743.89 989.974L1764.89 1028.16L1766.41 1038.08L1760.41 1039.14L1732.99 991.897ZM1762.4 1028.6L1769 985.548L1779.61 983.676L1770 1037.45L1764.51 1038.41L1762.4 1028.6Z"
        fill="white"
      />
      <g clip-path="url(#clip19_2936_8)">
        <path
          d="M1786.75 955.752L1676.46 975.2C1668.84 976.543 1663.76 983.804 1665.1 991.419L1678.47 1067.25C1679.81 1074.86 1687.07 1079.95 1694.69 1078.61L1804.99 1059.16C1812.6 1057.81 1817.69 1050.55 1816.34 1042.94L1802.97 967.108C1801.63 959.493 1794.37 954.409 1786.75 955.752Z"
          stroke="white"
          stroke-width="14"
          stroke-linecap="round"
          stroke-linejoin="round"
        />
        <path
          d="M1760 924.93L1731.61 965.476L1691.06 937.085"
          stroke="white"
          stroke-width="14"
          stroke-linecap="round"
          stroke-linejoin="round"
        />
      </g>
      <path
        d="M1625.37 622.109L1623.78 613.106L1662.5 606.279L1664.09 615.282L1625.37 622.109ZM1646.96 661.093L1638.05 610.59L1648.23 608.796L1657.13 659.299L1646.96 661.093Z"
        fill="white"
      />
      <path
        d="M1664.91 605.853L1675.82 603.93L1696.82 642.113L1698.34 652.033L1692.34 653.091L1664.91 605.853ZM1694.33 642.552L1700.93 599.503L1711.54 597.632L1701.93 651.401L1696.44 652.369L1694.33 642.552Z"
        fill="white"
      />
      <g clip-path="url(#clip20_2936_8)">
        <path
          d="M1718.68 569.707L1608.39 589.156C1600.77 590.498 1595.69 597.76 1597.03 605.374L1610.4 681.204C1611.74 688.819 1619 693.903 1626.62 692.561L1736.92 673.112C1744.53 671.769 1749.62 664.508 1748.27 656.894L1734.9 581.063C1733.56 573.449 1726.3 568.365 1718.68 569.707Z"
          stroke="white"
          stroke-width="14"
          stroke-linecap="round"
          stroke-linejoin="round"
        />
        <path
          d="M1691.93 538.886L1663.54 579.432L1622.99 551.041"
          stroke="white"
          stroke-width="14"
          stroke-linecap="round"
          stroke-linejoin="round"
        />
      </g>
      <path
        d="M1205.29 497.157L1203.7 488.154L1242.42 481.327L1244.01 490.329L1205.29 497.157ZM1226.88 536.141L1217.97 485.637L1228.15 483.843L1237.05 534.347L1226.88 536.141Z"
        fill="white"
      />
      <path
        d="M1244.83 480.901L1255.74 478.978L1276.74 517.161L1278.26 527.081L1272.26 528.139L1244.83 480.901ZM1274.25 517.6L1280.85 474.551L1291.46 472.679L1281.85 526.448L1276.36 527.416L1274.25 517.6Z"
        fill="white"
      />
      <g clip-path="url(#clip21_2936_8)">
        <path
          d="M1298.6 444.755L1188.31 464.203C1180.69 465.546 1175.61 472.807 1176.95 480.422L1190.32 556.252C1191.66 563.867 1198.92 568.951 1206.54 567.608L1316.84 548.16C1324.45 546.817 1329.54 539.556 1328.19 531.941L1314.82 456.111C1313.48 448.497 1306.22 443.412 1298.6 444.755Z"
          stroke="white"
          stroke-width="14"
          stroke-linecap="round"
          stroke-linejoin="round"
        />
        <path
          d="M1271.85 413.933L1243.46 454.479L1202.91 426.089"
          stroke="white"
          stroke-width="14"
          stroke-linecap="round"
          stroke-linejoin="round"
        />
      </g>
      <path
        d="M1273.36 883.201L1271.77 874.198L1310.49 867.371L1312.08 876.374L1273.36 883.201ZM1294.95 922.185L1286.04 871.682L1296.22 869.888L1305.12 920.391L1294.95 922.185Z"
        fill="white"
      />
      <path
        d="M1312.9 866.945L1323.81 865.022L1344.81 903.205L1346.33 913.125L1340.33 914.184L1312.9 866.945ZM1342.32 903.644L1348.92 860.595L1359.53 858.724L1349.92 912.493L1344.43 913.461L1342.32 903.644Z"
        fill="white"
      />
      <g clip-path="url(#clip22_2936_8)">
        <path
          d="M1366.67 830.8L1256.38 850.248C1248.76 851.591 1243.68 858.852 1245.02 866.467L1258.39 942.297C1259.73 949.911 1266.99 954.996 1274.61 953.653L1384.91 934.204C1392.52 932.862 1397.61 925.6 1396.26 917.986L1382.89 842.156C1381.55 834.541 1374.29 829.457 1366.67 830.8Z"
          stroke="white"
          stroke-width="14"
          stroke-linecap="round"
          stroke-linejoin="round"
        />
        <path
          d="M1339.92 799.978L1311.53 840.524L1270.98 812.133"
          stroke="white"
          stroke-width="14"
          stroke-linecap="round"
          stroke-linejoin="round"
        />
      </g>
      <path
        d="M433.198 633.297L431.61 624.294L470.33 617.467L471.917 626.469L433.198 633.297ZM454.788 672.281L445.883 621.777L456.057 619.983L464.962 670.487L454.788 672.281Z"
        fill="white"
      />
      <path
        d="M472.746 617.041L483.652 615.118L504.648 653.301L506.171 663.221L500.169 664.279L472.746 617.041ZM502.159 653.74L508.757 610.691L519.37 608.82L509.757 662.588L504.268 663.556L502.159 653.74Z"
        fill="white"
      />
      <g clip-path="url(#clip23_2936_8)">
        <path
          d="M526.515 580.895L416.217 600.344C408.602 601.686 403.518 608.947 404.861 616.562L418.232 692.392C419.574 700.007 426.836 705.091 434.45 703.748L544.749 684.3C552.363 682.957 557.447 675.696 556.105 668.081L542.734 592.251C541.391 584.637 534.13 579.552 526.515 580.895Z"
          stroke="white"
          stroke-width="14"
          stroke-linecap="round"
          stroke-linejoin="round"
        />
        <path
          d="M499.757 550.073L471.366 590.619L430.82 562.229"
          stroke="white"
          stroke-width="14"
          stroke-linecap="round"
          stroke-linejoin="round"
        />
      </g>
      <path
        d="M501.268 1019.34L499.681 1010.34L538.4 1003.51L539.988 1012.51L501.268 1019.34ZM522.859 1058.33L513.953 1007.82L524.127 1006.03L533.032 1056.53L522.859 1058.33Z"
        fill="white"
      />
      <path
        d="M540.816 1003.09L551.722 1001.16L572.718 1039.35L574.241 1049.27L568.239 1050.32L540.816 1003.09ZM570.23 1039.78L576.827 996.736L587.44 994.864L577.828 1048.63L572.338 1049.6L570.23 1039.78Z"
        fill="white"
      />
      <g clip-path="url(#clip24_2936_8)">
        <path
          d="M594.586 966.94L484.287 986.388C476.673 987.731 471.588 994.992 472.931 1002.61L486.302 1078.44C487.645 1086.05 494.906 1091.14 502.52 1089.79L612.819 1070.34C620.433 1069 625.518 1061.74 624.175 1054.13L610.804 978.296C609.462 970.681 602.2 965.597 594.586 966.94Z"
          stroke="white"
          stroke-width="14"
          stroke-linecap="round"
          stroke-linejoin="round"
        />
        <path
          d="M567.827 936.118L539.437 976.664L498.891 948.273"
          stroke="white"
          stroke-width="14"
          stroke-linecap="round"
          stroke-linejoin="round"
        />
      </g>
      <path
        d="M1171.25 304.134L1169.66 295.132L1208.38 288.304L1209.97 297.307L1171.25 304.134ZM1192.84 343.119L1183.94 292.615L1194.11 290.821L1203.02 341.325L1192.84 343.119Z"
        fill="white"
      />
      <path
        d="M1210.8 287.878L1221.71 285.955L1242.7 324.139L1244.22 334.058L1238.22 335.117L1210.8 287.878ZM1240.21 324.577L1246.81 281.529L1257.42 279.657L1247.81 333.426L1242.32 334.394L1240.21 324.577Z"
        fill="white"
      />
      <g clip-path="url(#clip25_2936_8)">
        <path
          d="M1264.57 251.733L1154.27 271.181C1146.66 272.524 1141.57 279.785 1142.91 287.4L1156.29 363.23C1157.63 370.844 1164.89 375.929 1172.5 374.586L1282.8 355.137C1290.42 353.795 1295.5 346.534 1294.16 338.919L1280.79 263.089C1279.44 255.474 1272.18 250.39 1264.57 251.733Z"
          stroke="white"
          stroke-width="14"
          stroke-linecap="round"
          stroke-linejoin="round"
        />
        <path
          d="M1237.81 220.911L1209.42 261.457L1168.87 233.066"
          stroke="white"
          stroke-width="14"
          stroke-linecap="round"
          stroke-linejoin="round"
        />
      </g>
      <path
        d="M1137.22 111.112L1135.63 102.109L1174.35 95.2821L1175.94 104.285L1137.22 111.112ZM1158.81 150.096L1149.9 99.5927L1160.08 97.7988L1168.98 148.302L1158.81 150.096Z"
        fill="white"
      />
      <path
        d="M1176.77 94.8561L1187.67 92.9331L1208.67 131.116L1210.19 141.036L1204.19 142.094L1176.77 94.8561ZM1206.18 131.555L1212.78 88.5063L1223.39 86.635L1213.78 140.404L1208.29 141.372L1206.18 131.555Z"
        fill="white"
      />
      <g clip-path="url(#clip26_2936_8)">
        <path
          d="M1230.54 58.7104L1120.24 78.159C1112.62 79.5017 1107.54 86.7629 1108.88 94.3774L1122.25 170.208C1123.59 177.822 1130.86 182.906 1138.47 181.564L1248.77 162.115C1256.38 160.773 1261.47 153.511 1260.12 145.897L1246.75 70.0666C1245.41 62.4521 1238.15 57.3678 1230.54 58.7104Z"
          stroke="white"
          stroke-width="14"
          stroke-linecap="round"
          stroke-linejoin="round"
        />
        <path
          d="M1203.78 27.8888L1175.39 68.4348L1134.84 40.0442"
          stroke="white"
          stroke-width="14"
          stroke-linecap="round"
          stroke-linejoin="round"
        />
      </g>
      <path
        d="M1307.39 1076.22L1305.8 1067.22L1344.52 1060.39L1346.11 1069.4L1307.39 1076.22ZM1328.98 1115.21L1320.08 1064.7L1330.25 1062.91L1339.16 1113.41L1328.98 1115.21Z"
        fill="white"
      />
      <path
        d="M1346.94 1059.97L1357.85 1058.04L1378.84 1096.23L1380.37 1106.15L1374.36 1107.21L1346.94 1059.97ZM1376.35 1096.67L1382.95 1053.62L1393.56 1051.75L1383.95 1105.52L1378.46 1106.48L1376.35 1096.67Z"
        fill="white"
      />
      <g clip-path="url(#clip27_2936_8)">
        <path
          d="M1400.71 1023.82L1290.41 1043.27C1282.8 1044.61 1277.71 1051.87 1279.06 1059.49L1292.43 1135.32C1293.77 1142.93 1301.03 1148.02 1308.64 1146.68L1418.94 1127.23C1426.56 1125.88 1431.64 1118.62 1430.3 1111.01L1416.93 1035.18C1415.59 1027.56 1408.32 1022.48 1400.71 1023.82Z"
          stroke="white"
          stroke-width="14"
          stroke-linecap="round"
          stroke-linejoin="round"
        />
        <path
          d="M1373.95 993L1345.56 1033.55L1305.01 1005.16"
          stroke="white"
          stroke-width="14"
          stroke-linecap="round"
          stroke-linejoin="round"
        />
      </g>
      <path
        d="M1239.32 690.179L1237.73 681.176L1276.45 674.349L1278.04 683.352L1239.32 690.179ZM1260.91 729.163L1252.01 678.66L1262.18 676.866L1271.09 727.369L1260.91 729.163Z"
        fill="white"
      />
      <path
        d="M1278.87 673.923L1289.78 672L1310.77 710.183L1312.29 720.103L1306.29 721.161L1278.87 673.923ZM1308.28 710.622L1314.88 667.573L1325.49 665.702L1315.88 719.471L1310.39 720.439L1308.28 710.622Z"
        fill="white"
      />
      <g clip-path="url(#clip28_2936_8)">
        <path
          d="M1332.64 637.777L1222.34 657.226C1214.73 658.569 1209.64 665.83 1210.98 673.444L1224.36 749.274C1225.7 756.889 1232.96 761.973 1240.57 760.631L1350.87 741.182C1358.49 739.839 1363.57 732.578 1362.23 724.964L1348.86 649.134C1347.52 641.519 1340.25 636.435 1332.64 637.777Z"
          stroke="white"
          stroke-width="14"
          stroke-linecap="round"
          stroke-linejoin="round"
        />
        <path
          d="M1305.88 606.956L1277.49 647.502L1236.94 619.111"
          stroke="white"
          stroke-width="14"
          stroke-linecap="round"
          stroke-linejoin="round"
        />
      </g>
      <path
        d="M399.163 440.275L397.575 431.272L436.295 424.444L437.882 433.447L399.163 440.275ZM420.753 479.259L411.848 428.755L422.022 426.961L430.927 477.465L420.753 479.259Z"
        fill="white"
      />
      <path
        d="M438.711 424.018L449.616 422.095L470.613 460.279L472.136 470.199L466.134 471.257L438.711 424.018ZM468.124 460.717L474.722 417.669L485.335 415.797L475.722 469.566L470.233 470.534L468.124 460.717Z"
        fill="white"
      />
      <g clip-path="url(#clip29_2936_8)">
        <path
          d="M492.48 387.873L382.182 407.321C374.567 408.664 369.483 415.925 370.826 423.54L384.197 499.37C385.539 506.984 392.8 512.069 400.415 510.726L510.713 491.278C518.328 489.935 523.412 482.674 522.07 475.059L508.699 399.229C507.356 391.614 500.095 386.53 492.48 387.873Z"
          stroke="white"
          stroke-width="14"
          stroke-linecap="round"
          stroke-linejoin="round"
        />
        <path
          d="M465.722 357.051L437.331 397.597L396.785 369.207"
          stroke="white"
          stroke-width="14"
          stroke-linecap="round"
          stroke-linejoin="round"
        />
      </g>
      <path
        d="M365.127 247.252L363.54 238.25L402.259 231.422L403.847 240.425L365.127 247.252ZM386.718 286.236L377.813 235.733L387.987 233.939L396.892 284.443L386.718 286.236Z"
        fill="white"
      />
      <path
        d="M404.675 230.996L415.581 229.073L436.578 267.256L438.1 277.176L432.099 278.235L404.675 230.996ZM434.089 267.695L440.687 224.646L451.3 222.775L441.687 276.544L436.197 277.512L434.089 267.695Z"
        fill="white"
      />
      <g clip-path="url(#clip30_2936_8)">
        <path
          d="M458.445 194.851L348.147 214.299C340.532 215.642 335.448 222.903 336.79 230.518L350.161 306.348C351.504 313.962 358.765 319.047 366.38 317.704L476.678 298.255C484.293 296.913 489.377 289.652 488.034 282.037L474.664 206.207C473.321 198.592 466.06 193.508 458.445 194.851Z"
          stroke="white"
          stroke-width="14"
          stroke-linecap="round"
          stroke-linejoin="round"
        />
        <path
          d="M431.687 164.029L403.296 204.575L362.75 176.184"
          stroke="white"
          stroke-width="14"
          stroke-linecap="round"
          stroke-linejoin="round"
        />
      </g>
      <path
        d="M331.092 54.2299L329.505 45.2271L368.224 38.3998L369.812 47.4026L331.092 54.2299ZM352.683 93.214L343.778 42.7104L353.952 40.9164L362.857 91.4201L352.683 93.214Z"
        fill="white"
      />
      <path
        d="M370.64 37.9738L381.546 36.0508L402.543 74.234L404.065 84.1539L398.063 85.2122L370.64 37.9738ZM400.054 74.6728L406.652 31.624L417.265 29.7526L407.652 83.5215L402.162 84.4894L400.054 74.6728Z"
        fill="white"
      />
      <g clip-path="url(#clip31_2936_8)">
        <path
          d="M424.41 1.82809L314.112 21.2767C306.497 22.6193 301.413 29.8806 302.755 37.4951L316.126 113.325C317.469 120.94 324.73 126.024 332.345 124.682L442.643 105.233C450.258 103.89 455.342 96.629 453.999 89.0145L440.628 13.1843C439.286 5.5698 432.025 0.485444 424.41 1.82809Z"
          stroke="white"
          stroke-width="14"
          stroke-linecap="round"
          stroke-linejoin="round"
        />
        <path
          d="M397.651 -28.9935L369.261 11.5525L328.715 -16.8381"
          stroke="white"
          stroke-width="14"
          stroke-linecap="round"
          stroke-linejoin="round"
        />
      </g>
      <path
        d="M467.233 826.319L465.646 817.316L504.365 810.489L505.952 819.492L467.233 826.319ZM488.823 865.303L479.918 814.8L490.092 813.006L498.997 863.509L488.823 865.303Z"
        fill="white"
      />
      <path
        d="M506.781 810.063L517.687 808.14L538.683 846.323L540.206 856.243L534.204 857.302L506.781 810.063ZM536.195 846.762L542.792 803.713L553.405 801.842L543.792 855.611L538.303 856.579L536.195 846.762Z"
        fill="white"
      />
      <g clip-path="url(#clip32_2936_8)">
        <path
          d="M560.551 773.917L450.252 793.366C442.638 794.709 437.553 801.97 438.896 809.584L452.267 885.415C453.609 893.029 460.871 898.114 468.485 896.771L578.784 877.322C586.398 875.98 591.483 868.718 590.14 861.104L576.769 785.274C575.426 777.659 568.165 772.575 560.551 773.917Z"
          stroke="white"
          stroke-width="14"
          stroke-linecap="round"
          stroke-linejoin="round"
        />
        <path
          d="M533.792 743.096L505.401 783.642L464.855 755.251"
          stroke="white"
          stroke-width="14"
          stroke-linecap="round"
          stroke-linejoin="round"
        />
      </g>
      <g clip-path="url(#clip33_2936_8)">
        <path
          d="M2036.66 115.592L1926.36 135.041C1918.75 136.384 1913.66 143.645 1915 151.259L1928.38 227.09C1929.72 234.704 1936.98 239.789 1944.59 238.446L2054.89 218.997C2062.51 217.655 2067.59 210.393 2066.25 202.779L2052.88 126.949C2051.53 119.334 2044.27 114.25 2036.66 115.592Z"
          stroke="white"
          stroke-width="14"
          stroke-linecap="round"
          stroke-linejoin="round"
        />
      </g>
      <path
        d="M1909.31 -25.0282L1907.72 -34.031L1946.44 -40.8583L1948.03 -31.8555L1909.31 -25.0282ZM1930.9 13.9559L1921.99 -36.5477L1932.17 -38.3416L1941.07 12.162L1930.9 13.9559Z"
        fill="white"
      />
      <path
        d="M1948.85 -41.2843L1959.76 -43.2073L1980.76 -5.02404L1982.28 4.89582L1976.28 5.95411L1948.85 -41.2843ZM1978.27 -4.58524L1984.87 -47.634L1995.48 -49.5054L1985.87 4.26342L1980.38 5.23137L1978.27 -4.58524Z"
        fill="white"
      />
      <g clip-path="url(#clip34_2936_8)">
        <path
          d="M2002.62 -77.43L1892.33 -57.9814C1884.71 -56.6387 1879.63 -49.3775 1880.97 -41.763L1894.34 34.0672C1895.68 41.6817 1902.94 46.7661 1910.56 45.4234L2020.86 25.9748C2028.47 24.6322 2033.56 17.371 2032.21 9.75646L2018.84 -66.0737C2017.5 -73.6883 2010.24 -78.7726 2002.62 -77.43Z"
          stroke="white"
          stroke-width="14"
          stroke-linecap="round"
          stroke-linejoin="round"
        />
      </g>
      <path
        d="M626.22 599.262L624.633 590.259L663.352 583.432L664.94 592.435L626.22 599.262ZM647.811 638.246L638.906 587.742L649.079 585.948L657.985 636.452L647.811 638.246Z"
        fill="white"
      />
      <path
        d="M665.768 583.006L676.674 581.083L697.671 619.266L699.193 629.186L693.191 630.244L665.768 583.006ZM695.182 619.705L701.779 576.656L712.393 574.785L702.78 628.553L697.29 629.521L695.182 619.705Z"
        fill="white"
      />
      <g clip-path="url(#clip35_2936_8)">
        <path
          d="M719.538 546.86L609.239 566.309C601.625 567.651 596.541 574.913 597.883 582.527L611.254 658.357C612.597 665.972 619.858 671.056 627.473 669.713L737.771 650.265C745.386 648.922 750.47 641.661 749.127 634.047L735.756 558.216C734.414 550.602 727.152 545.517 719.538 546.86Z"
          stroke="white"
          stroke-width="14"
          stroke-linecap="round"
          stroke-linejoin="round"
        />
        <path
          d="M692.779 516.038L664.389 556.584L623.843 528.194"
          stroke="white"
          stroke-width="14"
          stroke-linecap="round"
          stroke-linejoin="round"
        />
      </g>
      <path
        d="M694.291 985.307L692.703 976.304L731.423 969.476L733.01 978.479L694.291 985.307ZM715.881 1024.29L706.976 973.787L717.15 971.993L726.055 1022.5L715.881 1024.29Z"
        fill="white"
      />
      <path
        d="M733.839 969.05L744.744 967.127L765.741 1005.31L767.264 1015.23L761.262 1016.29L733.839 969.05ZM763.252 1005.75L769.85 962.701L780.463 960.829L770.85 1014.6L765.361 1015.57L763.252 1005.75Z"
        fill="white"
      />
      <g clip-path="url(#clip36_2936_8)">
        <path
          d="M787.608 932.905L677.31 952.353C669.695 953.696 664.611 960.957 665.954 968.572L679.324 1044.4C680.667 1052.02 687.928 1057.1 695.543 1055.76L805.841 1036.31C813.456 1034.97 818.54 1027.71 817.198 1020.09L803.827 944.261C802.484 936.646 795.223 931.562 787.608 932.905Z"
          stroke="white"
          stroke-width="14"
          stroke-linecap="round"
          stroke-linejoin="round"
        />
        <path
          d="M760.85 902.083L732.459 942.629L691.913 914.239"
          stroke="white"
          stroke-width="14"
          stroke-linecap="round"
          stroke-linejoin="round"
        />
      </g>
      <g clip-path="url(#clip37_2936_8)">
        <path
          d="M15.5184 1069.04L-94.7801 1088.49C-102.395 1089.84 -107.479 1097.1 -106.136 1104.71L-92.7654 1180.54C-91.4228 1188.16 -84.1615 1193.24 -76.547 1191.9L33.7515 1172.45C41.366 1171.11 46.4503 1163.85 45.1077 1156.23L31.7368 1080.4C30.3941 1072.79 23.1329 1067.7 15.5184 1069.04Z"
          stroke="white"
          stroke-width="14"
          stroke-linecap="round"
          stroke-linejoin="round"
        />
        <path
          d="M-11.2402 1038.22L-39.6308 1078.77L-80.1768 1050.38"
          stroke="white"
          stroke-width="14"
          stroke-linecap="round"
          stroke-linejoin="round"
        />
      </g>
      <path
        d="M1398.31 463.122L1396.72 454.119L1435.44 447.292L1437.03 456.294L1398.31 463.122ZM1419.9 502.106L1410.99 451.602L1421.17 449.808L1430.07 500.312L1419.9 502.106Z"
        fill="white"
      />
      <path
        d="M1437.86 446.866L1448.76 444.943L1469.76 483.126L1471.28 493.046L1465.28 494.104L1437.86 446.866ZM1467.27 483.565L1473.87 440.516L1484.48 438.644L1474.87 492.413L1469.38 493.381L1467.27 483.565Z"
        fill="white"
      />
      <g clip-path="url(#clip38_2936_8)">
        <path
          d="M1491.63 410.72L1381.33 430.169C1373.71 431.511 1368.63 438.772 1369.97 446.387L1383.34 522.217C1384.69 529.832 1391.95 534.916 1399.56 533.573L1509.86 514.125C1517.47 512.782 1522.56 505.521 1521.22 497.906L1507.85 422.076C1506.5 414.462 1499.24 409.377 1491.63 410.72Z"
          stroke="white"
          stroke-width="14"
          stroke-linecap="round"
          stroke-linejoin="round"
        />
        <path
          d="M1464.87 379.898L1436.48 420.444L1395.93 392.054"
          stroke="white"
          stroke-width="14"
          stroke-linecap="round"
          stroke-linejoin="round"
        />
      </g>
      <path
        d="M1466.38 849.166L1464.79 840.164L1503.51 833.336L1505.1 842.339L1466.38 849.166ZM1487.97 888.151L1479.06 837.647L1489.24 835.853L1498.14 886.357L1487.97 888.151Z"
        fill="white"
      />
      <path
        d="M1505.93 832.91L1516.83 830.987L1537.83 869.171L1539.35 879.09L1533.35 880.149L1505.93 832.91ZM1535.34 869.609L1541.94 826.561L1552.55 824.689L1542.94 878.458L1537.45 879.426L1535.34 869.609Z"
        fill="white"
      />
      <g clip-path="url(#clip39_2936_8)">
        <path
          d="M1559.7 796.765L1449.4 816.213C1441.78 817.556 1436.7 824.817 1438.04 832.432L1451.41 908.262C1452.76 915.876 1460.02 920.961 1467.63 919.618L1577.93 900.169C1585.54 898.827 1590.63 891.566 1589.29 883.951L1575.92 808.121C1574.57 800.506 1567.31 795.422 1559.7 796.765Z"
          stroke="white"
          stroke-width="14"
          stroke-linecap="round"
          stroke-linejoin="round"
        />
        <path
          d="M1532.94 765.943L1504.55 806.489L1464 778.098"
          stroke="white"
          stroke-width="14"
          stroke-linecap="round"
          stroke-linejoin="round"
        />
      </g>
      <path
        d="M592.185 406.24L590.598 397.237L629.317 390.41L630.905 399.412L592.185 406.24ZM613.776 445.224L604.87 394.72L615.044 392.926L623.949 443.43L613.776 445.224Z"
        fill="white"
      />
      <path
        d="M631.733 389.984L642.639 388.061L663.635 426.244L665.158 436.164L659.156 437.222L631.733 389.984ZM661.147 426.683L667.744 383.634L678.357 381.762L668.745 435.531L663.255 436.499L661.147 426.683Z"
        fill="white"
      />
      <g clip-path="url(#clip40_2936_8)">
        <path
          d="M685.503 353.838L575.204 373.286C567.59 374.629 562.505 381.89 563.848 389.505L577.219 465.335C578.562 472.95 585.823 478.034 593.437 476.691L703.736 457.243C711.35 455.9 716.435 448.639 715.092 441.024L701.721 365.194C700.379 357.58 693.117 352.495 685.503 353.838Z"
          stroke="white"
          stroke-width="14"
          stroke-linecap="round"
          stroke-linejoin="round"
        />
        <path
          d="M658.744 323.016L630.354 363.562L589.808 335.172"
          stroke="white"
          stroke-width="14"
          stroke-linecap="round"
          stroke-linejoin="round"
        />
      </g>
      <path
        d="M558.15 213.217L556.562 204.214L595.282 197.387L596.869 206.39L558.15 213.217ZM579.74 252.201L570.835 201.698L581.009 199.904L589.914 250.407L579.74 252.201Z"
        fill="white"
      />
      <path
        d="M597.698 196.961L608.604 195.038L629.6 233.221L631.123 243.141L625.121 244.199L597.698 196.961ZM627.112 233.66L633.709 190.611L644.322 188.74L634.709 242.509L629.22 243.477L627.112 233.66Z"
        fill="white"
      />
      <g clip-path="url(#clip41_2936_8)">
        <path
          d="M651.468 160.815L541.169 180.264C533.555 181.607 528.47 188.868 529.813 196.482L543.184 272.313C544.526 279.927 551.788 285.011 559.402 283.669L669.701 264.22C677.315 262.878 682.4 255.616 681.057 248.002L667.686 172.172C666.343 164.557 659.082 159.473 651.468 160.815Z"
          stroke="white"
          stroke-width="14"
          stroke-linecap="round"
          stroke-linejoin="round"
        />
        <path
          d="M624.709 129.994L596.318 170.54L555.772 142.149"
          stroke="white"
          stroke-width="14"
          stroke-linecap="round"
          stroke-linejoin="round"
        />
      </g>
      <path
        d="M524.115 20.195L522.527 11.1921L561.247 4.36486L562.834 13.3677L524.115 20.195ZM545.705 59.1791L536.8 8.67547L546.974 6.88153L555.879 57.3851L545.705 59.1791Z"
        fill="white"
      />
      <path
        d="M563.663 3.93886L574.569 2.01586L595.565 40.1991L597.088 50.119L591.086 51.1773L563.663 3.93886ZM593.076 40.6379L599.674 -2.4109L610.287 -4.28227L600.674 49.4866L595.185 50.4545L593.076 40.6379Z"
        fill="white"
      />
      <g clip-path="url(#clip42_2936_8)">
        <path
          d="M617.432 -32.2068L507.134 -12.7582C499.519 -11.4156 494.435 -4.15436 495.778 3.46016L509.149 79.2904C510.491 86.9049 517.753 91.9892 525.367 90.6466L635.666 71.198C643.28 69.8553 648.364 62.5941 647.022 54.9796L633.651 -20.8506C632.308 -28.4651 625.047 -33.5495 617.432 -32.2068Z"
          stroke="white"
          stroke-width="14"
          stroke-linecap="round"
          stroke-linejoin="round"
        />
      </g>
      <path
        d="M660.255 792.284L658.668 783.281L697.387 776.454L698.975 785.457L660.255 792.284ZM681.846 831.268L672.941 780.765L683.115 778.971L692.02 829.474L681.846 831.268Z"
        fill="white"
      />
      <path
        d="M699.803 776.028L710.709 774.105L731.706 812.288L733.228 822.208L727.227 823.266L699.803 776.028ZM729.217 812.727L735.815 769.678L746.428 767.807L736.815 821.576L731.325 822.544L729.217 812.727Z"
        fill="white"
      />
      <g clip-path="url(#clip43_2936_8)">
        <path
          d="M753.573 739.882L643.275 759.331C635.66 760.674 630.576 767.935 631.918 775.549L645.289 851.379C646.632 858.994 653.893 864.078 661.508 862.736L771.806 843.287C779.421 841.944 784.505 834.683 783.162 827.069L769.791 751.239C768.449 743.624 761.188 738.54 753.573 739.882Z"
          stroke="white"
          stroke-width="14"
          stroke-linecap="round"
          stroke-linejoin="round"
        />
        <path
          d="M726.814 709.061L698.424 749.607L657.878 721.216"
          stroke="white"
          stroke-width="14"
          stroke-linecap="round"
          stroke-linejoin="round"
        />
      </g>
      <g clip-path="url(#clip44_2936_8)">
        <path
          d="M-18.5168 876.022L-128.815 895.471C-136.43 896.814 -141.514 904.075 -140.171 911.689L-126.801 987.52C-125.458 995.134 -118.197 1000.22 -110.582 998.876L-0.283691 979.427C7.33084 978.085 12.4152 970.823 11.0725 963.209L-2.29837 887.379C-3.64101 879.764 -10.9022 874.68 -18.5168 876.022Z"
          stroke="white"
          stroke-width="14"
          stroke-linecap="round"
          stroke-linejoin="round"
        />
      </g>
      <path
        d="M1364.27 270.099L1362.69 261.096L1401.41 254.269L1402.99 263.272L1364.27 270.099ZM1385.86 309.083L1376.96 258.58L1387.13 256.786L1396.04 307.289L1385.86 309.083Z"
        fill="white"
      />
      <path
        d="M1403.82 253.843L1414.73 251.92L1435.72 290.103L1437.25 300.023L1431.25 301.082L1403.82 253.843ZM1433.24 290.542L1439.83 247.493L1450.45 245.622L1440.83 299.391L1435.34 300.359L1433.24 290.542Z"
        fill="white"
      />
      <g clip-path="url(#clip45_2936_8)">
        <path
          d="M1457.59 217.697L1347.29 237.146C1339.68 238.489 1334.59 245.75 1335.94 253.364L1349.31 329.195C1350.65 336.809 1357.91 341.894 1365.53 340.551L1475.82 321.102C1483.44 319.76 1488.52 312.498 1487.18 304.884L1473.81 229.054C1472.47 221.439 1465.21 216.355 1457.59 217.697Z"
          stroke="white"
          stroke-width="14"
          stroke-linecap="round"
          stroke-linejoin="round"
        />
        <path
          d="M1430.83 186.876L1402.44 227.422L1361.9 199.031"
          stroke="white"
          stroke-width="14"
          stroke-linecap="round"
          stroke-linejoin="round"
        />
      </g>
      <path
        d="M1330.24 77.077L1328.65 68.0742L1367.37 61.2469L1368.96 70.2498L1330.24 77.077ZM1351.83 116.061L1342.92 65.5575L1353.1 63.7636L1362 114.267L1351.83 116.061Z"
        fill="white"
      />
      <path
        d="M1369.79 60.8209L1380.69 58.8979L1401.69 97.0812L1403.21 107.001L1397.21 108.059L1369.79 60.8209ZM1399.2 97.52L1405.8 54.4712L1416.41 52.5998L1406.8 106.369L1401.31 107.337L1399.2 97.52Z"
        fill="white"
      />
      <g clip-path="url(#clip46_2936_8)">
        <path
          d="M1423.56 24.6753L1313.26 44.1239C1305.64 45.4665 1300.56 52.7277 1301.9 60.3422L1315.27 136.172C1316.62 143.787 1323.88 148.871 1331.49 147.529L1441.79 128.08C1449.4 126.737 1454.49 119.476 1453.15 111.862L1439.77 36.0315C1438.43 28.417 1431.17 23.3326 1423.56 24.6753Z"
          stroke="white"
          stroke-width="14"
          stroke-linecap="round"
          stroke-linejoin="round"
        />
        <path
          d="M1396.8 -6.14634L1368.41 34.3996L1327.86 6.00903"
          stroke="white"
          stroke-width="14"
          stroke-linecap="round"
          stroke-linejoin="round"
        />
      </g>
      <path
        d="M1500.41 1042.19L1498.83 1033.19L1537.55 1026.36L1539.13 1035.36L1500.41 1042.19ZM1522.01 1081.17L1513.1 1030.67L1523.27 1028.88L1532.18 1079.38L1522.01 1081.17Z"
        fill="white"
      />
      <path
        d="M1539.96 1025.93L1550.87 1024.01L1571.86 1062.19L1573.39 1072.11L1567.39 1073.17L1539.96 1025.93ZM1569.38 1062.63L1575.97 1019.58L1586.59 1017.71L1576.97 1071.48L1571.48 1072.45L1569.38 1062.63Z"
        fill="white"
      />
      <g clip-path="url(#clip47_2936_8)">
        <path
          d="M1593.73 989.787L1483.43 1009.24C1475.82 1010.58 1470.73 1017.84 1472.08 1025.45L1485.45 1101.28C1486.79 1108.9 1494.05 1113.98 1501.67 1112.64L1611.97 1093.19C1619.58 1091.85 1624.66 1084.59 1623.32 1076.97L1609.95 1001.14C1608.61 993.529 1601.35 988.444 1593.73 989.787Z"
          stroke="white"
          stroke-width="14"
          stroke-linecap="round"
          stroke-linejoin="round"
        />
        <path
          d="M1566.97 958.965L1538.58 999.511L1498.04 971.121"
          stroke="white"
          stroke-width="14"
          stroke-linecap="round"
          stroke-linejoin="round"
        />
      </g>
      <path
        d="M1432.34 656.144L1430.76 647.141L1469.48 640.314L1471.06 649.317L1432.34 656.144ZM1453.93 695.128L1445.03 644.624L1455.2 642.831L1464.11 693.334L1453.93 695.128Z"
        fill="white"
      />
      <path
        d="M1471.89 639.888L1482.8 637.965L1503.79 676.148L1505.32 686.068L1499.32 687.126L1471.89 639.888ZM1501.31 676.587L1507.9 633.538L1518.52 631.667L1508.9 685.436L1503.41 686.403L1501.31 676.587Z"
        fill="white"
      />
      <g clip-path="url(#clip48_2936_8)">
        <path
          d="M1525.66 603.742L1415.36 623.191C1407.75 624.533 1402.66 631.795 1404.01 639.409L1417.38 715.239C1418.72 722.854 1425.98 727.938 1433.6 726.596L1543.9 707.147C1551.51 705.804 1556.59 698.543 1555.25 690.929L1541.88 615.098C1540.54 607.484 1533.28 602.4 1525.66 603.742Z"
          stroke="white"
          stroke-width="14"
          stroke-linecap="round"
          stroke-linejoin="round"
        />
        <path
          d="M1498.9 572.921L1470.51 613.467L1429.97 585.076"
          stroke="white"
          stroke-width="14"
          stroke-linecap="round"
          stroke-linejoin="round"
        />
      </g>
      <path
        d="M1012.26 531.192L1010.68 522.189L1049.4 515.362L1050.98 524.365L1012.26 531.192ZM1033.85 570.176L1024.95 519.672L1035.12 517.878L1044.03 568.382L1033.85 570.176Z"
        fill="white"
      />
      <path
        d="M1051.81 514.936L1062.72 513.013L1083.71 551.196L1085.24 561.116L1079.24 562.174L1051.81 514.936ZM1081.23 551.635L1087.82 508.586L1098.44 506.715L1088.82 560.483L1083.33 561.451L1081.23 551.635Z"
        fill="white"
      />
      <g clip-path="url(#clip49_2936_8)">
        <path
          d="M1105.58 478.79L995.283 498.239C987.669 499.581 982.585 506.842 983.927 514.457L997.298 590.287C998.641 597.902 1005.9 602.986 1013.52 601.643L1123.81 582.195C1131.43 580.852 1136.51 573.591 1135.17 565.976L1121.8 490.146C1120.46 482.532 1113.2 477.447 1105.58 478.79Z"
          stroke="white"
          stroke-width="14"
          stroke-linecap="round"
          stroke-linejoin="round"
        />
        <path
          d="M1078.82 447.968L1050.43 488.514L1009.89 460.124"
          stroke="white"
          stroke-width="14"
          stroke-linecap="round"
          stroke-linejoin="round"
        />
      </g>
      <path
        d="M1080.33 917.236L1078.75 908.234L1117.47 901.406L1119.05 910.409L1080.33 917.236ZM1101.92 956.221L1093.02 905.717L1103.19 903.923L1112.1 954.427L1101.92 956.221Z"
        fill="white"
      />
      <path
        d="M1119.88 900.98L1130.79 899.057L1151.78 937.241L1153.31 947.16L1147.31 948.219L1119.88 900.98ZM1149.3 937.679L1155.89 894.631L1166.51 892.759L1156.89 946.528L1151.4 947.496L1149.3 937.679Z"
        fill="white"
      />
      <g clip-path="url(#clip50_2936_8)">
        <path
          d="M1173.65 864.835L1063.35 884.283C1055.74 885.626 1050.65 892.887 1052 900.502L1065.37 976.332C1066.71 983.946 1073.97 989.031 1081.59 987.688L1191.89 968.239C1199.5 966.897 1204.58 959.636 1203.24 952.021L1189.87 876.191C1188.53 868.576 1181.27 863.492 1173.65 864.835Z"
          stroke="white"
          stroke-width="14"
          stroke-linecap="round"
          stroke-linejoin="round"
        />
        <path
          d="M1146.89 834.013L1118.5 874.559L1077.96 846.168"
          stroke="white"
          stroke-width="14"
          stroke-linecap="round"
          stroke-linejoin="round"
        />
      </g>
      <path
        d="M240.175 667.332L238.588 658.329L277.307 651.502L278.895 660.505L240.175 667.332ZM261.766 706.316L252.861 655.812L263.035 654.018L271.94 704.522L261.766 706.316Z"
        fill="white"
      />
      <path
        d="M279.723 651.076L290.629 649.153L311.626 687.336L313.148 697.256L307.146 698.314L279.723 651.076ZM309.137 687.775L315.735 644.726L326.348 642.855L316.735 696.624L311.245 697.591L309.137 687.775Z"
        fill="white"
      />
      <g clip-path="url(#clip51_2936_8)">
        <path
          d="M333.493 614.93L223.195 634.379C215.58 635.721 210.496 642.983 211.838 650.597L225.209 726.427C226.552 734.042 233.813 739.126 241.428 737.784L351.726 718.335C359.341 716.992 364.425 709.731 363.082 702.117L349.711 626.286C348.369 618.672 341.108 613.587 333.493 614.93Z"
          stroke="white"
          stroke-width="14"
          stroke-linecap="round"
          stroke-linejoin="round"
        />
        <path
          d="M306.734 584.109L278.344 624.655L237.798 596.264"
          stroke="white"
          stroke-width="14"
          stroke-linecap="round"
          stroke-linejoin="round"
        />
      </g>
      <path
        d="M308.246 1053.38L306.658 1044.37L345.378 1037.55L346.965 1046.55L308.246 1053.38ZM329.836 1092.36L320.931 1041.86L331.105 1040.06L340.01 1090.57L329.836 1092.36Z"
        fill="white"
      />
      <path
        d="M347.794 1037.12L358.699 1035.2L379.696 1073.38L381.219 1083.3L375.217 1084.36L347.794 1037.12ZM377.207 1073.82L383.805 1030.77L394.418 1028.9L384.805 1082.67L379.316 1083.64L377.207 1073.82Z"
        fill="white"
      />
      <g clip-path="url(#clip52_2936_8)">
        <path
          d="M401.563 1000.97L291.265 1020.42C283.65 1021.77 278.566 1029.03 279.909 1036.64L293.28 1112.47C294.622 1120.09 301.883 1125.17 309.498 1123.83L419.796 1104.38C427.411 1103.04 432.495 1095.78 431.153 1088.16L417.782 1012.33C416.439 1004.72 409.178 999.632 401.563 1000.97Z"
          stroke="white"
          stroke-width="14"
          stroke-linecap="round"
          stroke-linejoin="round"
        />
        <path
          d="M374.805 970.153L346.414 1010.7L305.868 982.309"
          stroke="white"
          stroke-width="14"
          stroke-linecap="round"
          stroke-linejoin="round"
        />
      </g>
      <path
        d="M1784.35 395.052L1782.77 386.049L1821.49 379.222L1823.07 388.224L1784.35 395.052ZM1805.94 434.036L1797.04 383.532L1807.21 381.738L1816.12 432.242L1805.94 434.036Z"
        fill="white"
      />
      <path
        d="M1823.9 378.796L1834.81 376.873L1855.8 415.056L1857.33 424.976L1851.33 426.034L1823.9 378.796ZM1853.32 415.495L1859.91 372.446L1870.53 370.574L1860.91 424.343L1855.42 425.311L1853.32 415.495Z"
        fill="white"
      />
      <g clip-path="url(#clip53_2936_8)">
        <path
          d="M1877.67 342.65L1767.37 362.098C1759.76 363.441 1754.67 370.702 1756.02 378.317L1769.39 454.147C1770.73 461.762 1777.99 466.846 1785.61 465.503L1895.9 446.055C1903.52 444.712 1908.6 437.451 1907.26 429.836L1893.89 354.006C1892.55 346.392 1885.29 341.307 1877.67 342.65Z"
          stroke="white"
          stroke-width="14"
          stroke-linecap="round"
          stroke-linejoin="round"
        />
        <path
          d="M1850.91 311.828L1822.52 352.374L1781.98 323.984"
          stroke="white"
          stroke-width="14"
          stroke-linecap="round"
          stroke-linejoin="round"
        />
      </g>
      <path
        d="M1852.42 781.096L1850.84 772.094L1889.56 765.266L1891.14 774.269L1852.42 781.096ZM1874.01 820.08L1865.11 769.577L1875.28 767.783L1884.19 818.287L1874.01 820.08Z"
        fill="white"
      />
      <path
        d="M1891.97 764.84L1902.88 762.917L1923.87 801.1L1925.4 811.02L1919.4 812.079L1891.97 764.84ZM1921.39 801.539L1927.98 758.49L1938.6 756.619L1928.98 810.388L1923.49 811.356L1921.39 801.539Z"
        fill="white"
      />
      <g clip-path="url(#clip54_2936_8)">
        <path
          d="M1945.74 728.695L1835.44 748.143C1827.83 749.486 1822.74 756.747 1824.09 764.362L1837.46 840.192C1838.8 847.806 1846.06 852.891 1853.68 851.548L1963.98 832.099C1971.59 830.757 1976.67 823.495 1975.33 815.881L1961.96 740.051C1960.62 732.436 1953.36 727.352 1945.74 728.695Z"
          stroke="white"
          stroke-width="14"
          stroke-linecap="round"
          stroke-linejoin="round"
        />
        <path
          d="M1918.98 697.873L1890.59 738.419L1850.05 710.028"
          stroke="white"
          stroke-width="14"
          stroke-linecap="round"
          stroke-linejoin="round"
        />
      </g>
      <path
        d="M978.23 338.169L976.643 329.167L1015.36 322.339L1016.95 331.342L978.23 338.169ZM999.82 377.153L990.915 326.65L1001.09 324.856L1009.99 375.36L999.82 377.153Z"
        fill="white"
      />
      <path
        d="M1017.78 321.913L1028.68 319.99L1049.68 358.173L1051.2 368.093L1045.2 369.152L1017.78 321.913ZM1047.19 358.612L1053.79 315.563L1064.4 313.692L1054.79 367.461L1049.3 368.429L1047.19 358.612Z"
        fill="white"
      />
      <g clip-path="url(#clip55_2936_8)">
        <path
          d="M1071.55 285.768L961.249 305.216C953.635 306.559 948.55 313.82 949.893 321.435L963.264 397.265C964.607 404.879 971.868 409.964 979.482 408.621L1089.78 389.172C1097.4 387.83 1102.48 380.568 1101.14 372.954L1087.77 297.124C1086.42 289.509 1079.16 284.425 1071.55 285.768Z"
          stroke="white"
          stroke-width="14"
          stroke-linecap="round"
          stroke-linejoin="round"
        />
        <path
          d="M1044.79 254.946L1016.4 295.492L975.853 267.101"
          stroke="white"
          stroke-width="14"
          stroke-linecap="round"
          stroke-linejoin="round"
        />
      </g>
      <path
        d="M944.195 145.147L942.607 136.144L981.327 129.317L982.914 138.32L944.195 145.147ZM965.785 184.131L956.88 133.628L967.054 131.834L975.959 182.337L965.785 184.131Z"
        fill="white"
      />
      <path
        d="M983.743 128.891L994.649 126.968L1015.65 165.151L1017.17 175.071L1011.17 176.129L983.743 128.891ZM1013.16 165.59L1019.75 122.541L1030.37 120.67L1020.75 174.439L1015.26 175.407L1013.16 165.59Z"
        fill="white"
      />
      <g clip-path="url(#clip56_2936_8)">
        <path
          d="M1037.51 92.7453L927.214 112.194C919.6 113.537 914.515 120.798 915.858 128.412L929.229 204.243C930.571 211.857 937.833 216.941 945.447 215.599L1055.75 196.15C1063.36 194.807 1068.44 187.546 1067.1 179.932L1053.73 104.102C1052.39 96.487 1045.13 91.4027 1037.51 92.7453Z"
          stroke="white"
          stroke-width="14"
          stroke-linecap="round"
          stroke-linejoin="round"
        />
        <path
          d="M1010.75 61.9237L982.363 102.47L941.817 74.0791"
          stroke="white"
          stroke-width="14"
          stroke-linecap="round"
          stroke-linejoin="round"
        />
      </g>
      <g clip-path="url(#clip57_2936_8)">
        <path
          d="M1003.48 -100.277L893.179 -80.8283C885.564 -79.4856 880.48 -72.2244 881.823 -64.6099L895.194 11.2203C896.536 18.8348 903.797 23.9192 911.412 22.5765L1021.71 3.12792C1029.32 1.78527 1034.41 -5.47594 1033.07 -13.0905L1019.7 -88.9207C1018.35 -96.5352 1011.09 -101.62 1003.48 -100.277Z"
          stroke="white"
          stroke-width="14"
          stroke-linecap="round"
          stroke-linejoin="round"
        />
      </g>
      <g clip-path="url(#clip58_2936_8)">
        <path
          d="M1207.69 1057.86L1097.39 1077.31C1089.77 1078.65 1084.69 1085.91 1086.03 1093.52L1099.4 1169.35C1100.75 1176.97 1108.01 1182.05 1115.62 1180.71L1225.92 1161.26C1233.53 1159.92 1238.62 1152.66 1237.28 1145.04L1223.91 1069.21C1222.56 1061.6 1215.3 1056.51 1207.69 1057.86Z"
          stroke="white"
          stroke-width="14"
          stroke-linecap="round"
          stroke-linejoin="round"
        />
        <path
          d="M1180.93 1027.04L1152.54 1067.58L1111.99 1039.19"
          stroke="white"
          stroke-width="14"
          stroke-linecap="round"
          stroke-linejoin="round"
        />
      </g>
      <path
        d="M1046.3 724.214L1044.71 715.211L1083.43 708.384L1085.02 717.387L1046.3 724.214ZM1067.89 763.198L1058.98 712.695L1069.16 710.901L1078.06 761.404L1067.89 763.198Z"
        fill="white"
      />
      <path
        d="M1085.85 707.958L1096.75 706.035L1117.75 744.218L1119.27 754.138L1113.27 755.196L1085.85 707.958ZM1115.26 744.657L1121.86 701.608L1132.47 699.737L1122.86 753.506L1117.37 754.474L1115.26 744.657Z"
        fill="white"
      />
      <g clip-path="url(#clip59_2936_8)">
        <path
          d="M1139.62 671.812L1029.32 691.261C1021.7 692.603 1016.62 699.865 1017.96 707.479L1031.33 783.309C1032.68 790.924 1039.94 796.008 1047.55 794.666L1157.85 775.217C1165.46 773.874 1170.55 766.613 1169.21 758.999L1155.84 683.168C1154.49 675.554 1147.23 670.47 1139.62 671.812Z"
          stroke="white"
          stroke-width="14"
          stroke-linecap="round"
          stroke-linejoin="round"
        />
        <path
          d="M1112.86 640.991L1084.47 681.537L1043.92 653.146"
          stroke="white"
          stroke-width="14"
          stroke-linecap="round"
          stroke-linejoin="round"
        />
      </g>
      <path
        d="M206.14 474.31L204.553 465.307L243.272 458.48L244.86 467.482L206.14 474.31ZM227.731 513.294L218.825 462.79L228.999 460.996L237.905 511.5L227.731 513.294Z"
        fill="white"
      />
      <path
        d="M245.688 458.054L256.594 456.131L277.59 494.314L279.113 504.234L273.111 505.292L245.688 458.054ZM275.102 494.753L281.699 451.704L292.312 449.832L282.7 503.601L277.21 504.569L275.102 494.753Z"
        fill="white"
      />
      <g clip-path="url(#clip60_2936_8)">
        <path
          d="M299.458 421.908L189.159 441.357C181.545 442.699 176.46 449.96 177.803 457.575L191.174 533.405C192.517 541.02 199.778 546.104 207.392 544.761L317.691 525.313C325.305 523.97 330.39 516.709 329.047 509.094L315.676 433.264C314.334 425.65 307.072 420.565 299.458 421.908Z"
          stroke="white"
          stroke-width="14"
          stroke-linecap="round"
          stroke-linejoin="round"
        />
        <path
          d="M272.699 391.086L244.309 431.632L203.763 403.242"
          stroke="white"
          stroke-width="14"
          stroke-linecap="round"
          stroke-linejoin="round"
        />
      </g>
      <path
        d="M172.105 281.287L170.518 272.284L209.237 265.457L210.824 274.46L172.105 281.287ZM193.695 320.271L184.79 269.768L194.964 267.974L203.869 318.477L193.695 320.271Z"
        fill="white"
      />
      <path
        d="M211.653 265.031L222.559 263.108L243.555 301.291L245.078 311.211L239.076 312.27L211.653 265.031ZM241.067 301.73L247.664 258.681L258.277 256.81L248.664 310.579L243.175 311.547L241.067 301.73Z"
        fill="white"
      />
      <g clip-path="url(#clip61_2936_8)">
        <path
          d="M265.423 228.885L155.124 248.334C147.51 249.677 142.425 256.938 143.768 264.552L157.139 340.383C158.482 347.997 165.743 353.082 173.357 351.739L283.656 332.29C291.27 330.948 296.355 323.686 295.012 316.072L281.641 240.242C280.298 232.627 273.037 227.543 265.423 228.885Z"
          stroke="white"
          stroke-width="14"
          stroke-linecap="round"
          stroke-linejoin="round"
        />
        <path
          d="M238.664 198.064L210.274 238.61L169.728 210.219"
          stroke="white"
          stroke-width="14"
          stroke-linecap="round"
          stroke-linejoin="round"
        />
      </g>
      <path
        d="M138.07 88.265L136.482 79.2622L175.202 72.4349L176.789 81.4377L138.07 88.265ZM159.66 127.249L150.755 76.7455L160.929 74.9516L169.834 125.455L159.66 127.249Z"
        fill="white"
      />
      <path
        d="M177.618 72.0089L188.524 70.0859L209.52 108.269L211.043 118.189L205.041 119.247L177.618 72.0089ZM207.032 108.708L213.629 65.6592L224.242 63.7878L214.629 117.557L209.14 118.525L207.032 108.708Z"
        fill="white"
      />
      <g clip-path="url(#clip62_2936_8)">
        <path
          d="M231.388 35.8632L121.089 55.3118C113.475 56.6545 108.39 63.9157 109.733 71.5302L123.104 147.36C124.446 154.975 131.708 160.059 139.322 158.717L249.621 139.268C257.235 137.925 262.319 130.664 260.977 123.05L247.606 47.2195C246.263 39.605 239.002 34.5206 231.388 35.8632Z"
          stroke="white"
          stroke-width="14"
          stroke-linecap="round"
          stroke-linejoin="round"
        />
        <path
          d="M204.629 5.04165L176.238 45.5876L135.692 17.197"
          stroke="white"
          stroke-width="14"
          stroke-linecap="round"
          stroke-linejoin="round"
        />
      </g>
      <path
        d="M274.21 860.354L272.623 851.351L311.342 844.524L312.93 853.527L274.21 860.354ZM295.801 899.338L286.896 848.835L297.07 847.041L305.975 897.544L295.801 899.338Z"
        fill="white"
      />
      <path
        d="M313.758 844.098L324.664 842.175L345.661 880.358L347.183 890.278L341.182 891.336L313.758 844.098ZM343.172 880.797L349.77 837.748L360.383 835.877L350.77 889.646L345.28 890.614L343.172 880.797Z"
        fill="white"
      />
      <g clip-path="url(#clip63_2936_8)">
        <path
          d="M367.528 807.952L257.23 827.401C249.615 828.744 244.531 836.005 245.873 843.619L259.244 919.45C260.587 927.064 267.848 932.148 275.463 930.806L385.761 911.357C393.376 910.015 398.46 902.753 397.117 895.139L383.747 819.309C382.404 811.694 375.143 806.61 367.528 807.952Z"
          stroke="white"
          stroke-width="14"
          stroke-linecap="round"
          stroke-linejoin="round"
        />
        <path
          d="M340.77 777.131L312.379 817.677L271.833 789.286"
          stroke="white"
          stroke-width="14"
          stroke-linecap="round"
          stroke-linejoin="round"
        />
      </g>
      <path
        d="M1750.32 202.029L1748.73 193.026L1787.45 186.199L1789.04 195.202L1750.32 202.029ZM1771.91 241.013L1763 190.51L1773.18 188.716L1782.08 239.219L1771.91 241.013Z"
        fill="white"
      />
      <path
        d="M1789.87 185.773L1800.77 183.85L1821.77 222.033L1823.29 231.953L1817.29 233.011L1789.87 185.773ZM1819.28 222.472L1825.88 179.423L1836.49 177.552L1826.88 231.321L1821.39 232.289L1819.28 222.472Z"
        fill="white"
      />
      <g clip-path="url(#clip64_2936_8)">
        <path
          d="M1843.64 149.627L1733.34 169.076C1725.72 170.419 1720.64 177.68 1721.98 185.294L1735.35 261.125C1736.7 268.739 1743.96 273.823 1751.57 272.481L1861.87 253.032C1869.48 251.69 1874.57 244.428 1873.23 236.814L1859.85 160.984C1858.51 153.369 1851.25 148.285 1843.64 149.627Z"
          stroke="white"
          stroke-width="14"
          stroke-linecap="round"
          stroke-linejoin="round"
        />
        <path
          d="M1816.88 118.806L1788.49 159.352L1747.94 130.961"
          stroke="white"
          stroke-width="14"
          stroke-linecap="round"
          stroke-linejoin="round"
        />
      </g>
      <path
        d="M1716.28 9.00697L1714.7 0.00415039L1753.42 -6.82313L1755 2.17969L1716.28 9.00697ZM1737.87 47.9911L1728.97 -2.51252L1739.14 -4.30646L1748.05 46.1972L1737.87 47.9911Z"
        fill="white"
      />
      <path
        d="M1755.83 -7.24913L1766.74 -9.17213L1787.73 29.0111L1789.26 38.931L1783.25 39.9893L1755.83 -7.24913ZM1785.25 29.4499L1791.84 -13.5989L1802.46 -15.4703L1792.84 38.2986L1787.35 39.2665L1785.25 29.4499Z"
        fill="white"
      />
      <g clip-path="url(#clip65_2936_8)">
        <path
          d="M1809.6 -43.3948L1699.3 -23.9462C1691.69 -22.6036 1686.6 -15.3423 1687.95 -7.72783L1701.32 68.1024C1702.66 75.7169 1709.92 80.8012 1717.54 79.4586L1827.83 60.01C1835.45 58.6674 1840.53 51.4061 1839.19 43.7916L1825.82 -32.0386C1824.48 -39.6531 1817.22 -44.7375 1809.6 -43.3948Z"
          stroke="white"
          stroke-width="14"
          stroke-linecap="round"
          stroke-linejoin="round"
        />
      </g>
      <path
        d="M1886.46 974.119L1884.87 965.116L1923.59 958.288L1925.18 967.291L1886.46 974.119ZM1908.05 1013.1L1899.14 962.599L1909.32 960.805L1918.22 1011.31L1908.05 1013.1Z"
        fill="white"
      />
      <path
        d="M1926.01 957.862L1936.91 955.939L1957.91 994.123L1959.43 1004.04L1953.43 1005.1L1926.01 957.862ZM1955.42 994.561L1962.02 951.513L1972.63 949.641L1963.02 1003.41L1957.53 1004.38L1955.42 994.561Z"
        fill="white"
      />
      <g clip-path="url(#clip66_2936_8)">
        <path
          d="M1979.78 921.717L1869.48 941.165C1861.86 942.508 1856.78 949.769 1858.12 957.384L1871.49 1033.21C1872.84 1040.83 1880.1 1045.91 1887.71 1044.57L1998.01 1025.12C2005.62 1023.78 2010.71 1016.52 2009.37 1008.9L1996 933.073C1994.65 925.458 1987.39 920.374 1979.78 921.717Z"
          stroke="white"
          stroke-width="14"
          stroke-linecap="round"
          stroke-linejoin="round"
        />
        <path
          d="M1953.02 890.895L1924.63 931.441L1884.08 903.051"
          stroke="white"
          stroke-width="14"
          stroke-linecap="round"
          stroke-linejoin="round"
        />
      </g>
      <g clip-path="url(#clip67_2936_8)">
        <path
          d="M1987.05 1083.92L1958.66 1124.46L1918.12 1096.07"
          stroke="white"
          stroke-width="14"
          stroke-linecap="round"
          stroke-linejoin="round"
        />
      </g>
      <path
        d="M1818.39 588.074L1816.8 579.071L1855.52 572.244L1857.11 581.247L1818.39 588.074ZM1839.98 627.058L1831.07 576.554L1841.25 574.76L1850.15 625.264L1839.98 627.058Z"
        fill="white"
      />
      <path
        d="M1857.94 571.818L1868.84 569.895L1889.84 608.078L1891.36 617.998L1885.36 619.056L1857.94 571.818ZM1887.35 608.517L1893.95 565.468L1904.56 563.597L1894.95 617.365L1889.46 618.333L1887.35 608.517Z"
        fill="white"
      />
      <g clip-path="url(#clip68_2936_8)">
        <path
          d="M1911.71 535.672L1801.41 555.121C1793.79 556.463 1788.71 563.725 1790.05 571.339L1803.42 647.169C1804.77 654.784 1812.03 659.868 1819.64 658.525L1929.94 639.077C1937.55 637.734 1942.64 630.473 1941.3 622.859L1927.93 547.028C1926.58 539.414 1919.32 534.329 1911.71 535.672Z"
          stroke="white"
          stroke-width="14"
          stroke-linecap="round"
          stroke-linejoin="round"
        />
        <path
          d="M1884.95 504.85L1856.56 545.396L1816.01 517.006"
          stroke="white"
          stroke-width="14"
          stroke-linecap="round"
          stroke-linejoin="round"
        />
      </g>
    </g>
    <rect width="1920" height="1080" fill="url(#paint0_linear_2936_8)" />
  </g>
  <defs>
    <linearGradient
      id="paint0_linear_2936_8"
      x1="649"
      y1="406"
      x2="1920"
      y2="1192.5"
      gradientUnits="userSpaceOnUse"
    >
      <stop stop-opacity="0.71" />
      <stop offset="1" stop-opacity="0.33" />
    </linearGradient>
    <clipPath id="clip0_2936_8">
      <rect width="1920" height="1080" fill="white" />
    </clipPath>
    <clipPath id="clip1_2936_8">
      <rect
        width="168"
        height="168"
        fill="white"
        transform="translate(766.179 488.88) rotate(-10)"
      />
    </clipPath>
    <clipPath id="clip2_2936_8">
      <rect
        width="168"
        height="168"
        fill="white"
        transform="translate(834.248 874.925) rotate(-10)"
      />
    </clipPath>
    <clipPath id="clip3_2936_8">
      <rect
        width="168"
        height="168"
        fill="white"
        transform="translate(-5.91113 625.021) rotate(-10)"
      />
    </clipPath>
    <clipPath id="clip4_2936_8">
      <rect
        width="168"
        height="168"
        fill="white"
        transform="translate(62.1592 1011.06) rotate(-10)"
      />
    </clipPath>
    <clipPath id="clip5_2936_8">
      <rect
        width="168"
        height="168"
        fill="white"
        transform="translate(1538.27 352.74) rotate(-10)"
      />
    </clipPath>
    <clipPath id="clip6_2936_8">
      <rect
        width="168"
        height="168"
        fill="white"
        transform="translate(1606.34 738.785) rotate(-10)"
      />
    </clipPath>
    <clipPath id="clip7_2936_8">
      <rect
        width="168"
        height="168"
        fill="white"
        transform="translate(732.144 295.858) rotate(-10)"
      />
    </clipPath>
    <clipPath id="clip8_2936_8">
      <rect
        width="168"
        height="168"
        fill="white"
        transform="translate(698.108 102.836) rotate(-10)"
      />
    </clipPath>
    <clipPath id="clip9_2936_8">
      <rect
        width="168"
        height="168"
        fill="white"
        transform="translate(664.073 -90.1868) rotate(-10)"
      />
    </clipPath>
    <clipPath id="clip10_2936_8">
      <rect
        width="168"
        height="168"
        fill="white"
        transform="translate(868.283 1067.95) rotate(-10)"
      />
    </clipPath>
    <clipPath id="clip11_2936_8">
      <rect
        width="168"
        height="168"
        fill="white"
        transform="translate(800.214 681.903) rotate(-10)"
      />
    </clipPath>
    <clipPath id="clip12_2936_8">
      <rect
        width="168"
        height="168"
        fill="white"
        transform="translate(-39.9463 431.998) rotate(-10)"
      />
    </clipPath>
    <clipPath id="clip13_2936_8">
      <rect
        width="168"
        height="168"
        fill="white"
        transform="translate(-73.9814 238.976) rotate(-10)"
      />
    </clipPath>
    <clipPath id="clip14_2936_8">
      <rect
        width="168"
        height="168"
        fill="white"
        transform="translate(-108.016 45.9534) rotate(-10)"
      />
    </clipPath>
    <clipPath id="clip15_2936_8">
      <rect
        width="168"
        height="168"
        fill="white"
        transform="translate(-142.051 -147.069) rotate(-10)"
      />
    </clipPath>
    <clipPath id="clip16_2936_8">
      <rect
        width="168"
        height="168"
        fill="white"
        transform="translate(28.124 818.043) rotate(-10)"
      />
    </clipPath>
    <clipPath id="clip17_2936_8">
      <rect
        width="168"
        height="168"
        fill="white"
        transform="translate(1504.23 159.718) rotate(-10)"
      />
    </clipPath>
    <clipPath id="clip18_2936_8">
      <rect
        width="168"
        height="168"
        fill="white"
        transform="translate(1470.2 -33.3047) rotate(-10)"
      />
    </clipPath>
    <clipPath id="clip19_2936_8">
      <rect
        width="168"
        height="168"
        fill="white"
        transform="translate(1640.37 931.807) rotate(-10)"
      />
    </clipPath>
    <clipPath id="clip20_2936_8">
      <rect
        width="168"
        height="168"
        fill="white"
        transform="translate(1572.3 545.762) rotate(-10)"
      />
    </clipPath>
    <clipPath id="clip21_2936_8">
      <rect
        width="168"
        height="168"
        fill="white"
        transform="translate(1152.22 420.81) rotate(-10)"
      />
    </clipPath>
    <clipPath id="clip22_2936_8">
      <rect
        width="168"
        height="168"
        fill="white"
        transform="translate(1220.29 806.855) rotate(-10)"
      />
    </clipPath>
    <clipPath id="clip23_2936_8">
      <rect
        width="168"
        height="168"
        fill="white"
        transform="translate(380.134 556.95) rotate(-10)"
      />
    </clipPath>
    <clipPath id="clip24_2936_8">
      <rect
        width="168"
        height="168"
        fill="white"
        transform="translate(448.204 942.995) rotate(-10)"
      />
    </clipPath>
    <clipPath id="clip25_2936_8">
      <rect
        width="168"
        height="168"
        fill="white"
        transform="translate(1118.19 227.788) rotate(-10)"
      />
    </clipPath>
    <clipPath id="clip26_2936_8">
      <rect
        width="168"
        height="168"
        fill="white"
        transform="translate(1084.15 34.7656) rotate(-10)"
      />
    </clipPath>
    <clipPath id="clip27_2936_8">
      <rect
        width="168"
        height="168"
        fill="white"
        transform="translate(1254.33 999.877) rotate(-10)"
      />
    </clipPath>
    <clipPath id="clip28_2936_8">
      <rect
        width="168"
        height="168"
        fill="white"
        transform="translate(1186.26 613.833) rotate(-10)"
      />
    </clipPath>
    <clipPath id="clip29_2936_8">
      <rect
        width="168"
        height="168"
        fill="white"
        transform="translate(346.099 363.928) rotate(-10)"
      />
    </clipPath>
    <clipPath id="clip30_2936_8">
      <rect
        width="168"
        height="168"
        fill="white"
        transform="translate(312.063 170.906) rotate(-10)"
      />
    </clipPath>
    <clipPath id="clip31_2936_8">
      <rect
        width="168"
        height="168"
        fill="white"
        transform="translate(278.028 -22.1167) rotate(-10)"
      />
    </clipPath>
    <clipPath id="clip32_2936_8">
      <rect
        width="168"
        height="168"
        fill="white"
        transform="translate(414.169 749.973) rotate(-10)"
      />
    </clipPath>
    <clipPath id="clip33_2936_8">
      <rect
        width="168"
        height="168"
        fill="white"
        transform="translate(1890.28 91.6477) rotate(-10)"
      />
    </clipPath>
    <clipPath id="clip34_2936_8">
      <rect
        width="168"
        height="168"
        fill="white"
        transform="translate(1856.24 -101.375) rotate(-10)"
      />
    </clipPath>
    <clipPath id="clip35_2936_8">
      <rect
        width="168"
        height="168"
        fill="white"
        transform="translate(573.156 522.915) rotate(-10)"
      />
    </clipPath>
    <clipPath id="clip36_2936_8">
      <rect
        width="168"
        height="168"
        fill="white"
        transform="translate(641.227 908.96) rotate(-10)"
      />
    </clipPath>
    <clipPath id="clip37_2936_8">
      <rect
        width="168"
        height="168"
        fill="white"
        transform="translate(-130.863 1045.1) rotate(-10)"
      />
    </clipPath>
    <clipPath id="clip38_2936_8">
      <rect
        width="168"
        height="168"
        fill="white"
        transform="translate(1345.25 386.775) rotate(-10)"
      />
    </clipPath>
    <clipPath id="clip39_2936_8">
      <rect
        width="168"
        height="168"
        fill="white"
        transform="translate(1413.32 772.82) rotate(-10)"
      />
    </clipPath>
    <clipPath id="clip40_2936_8">
      <rect
        width="168"
        height="168"
        fill="white"
        transform="translate(539.121 329.893) rotate(-10)"
      />
    </clipPath>
    <clipPath id="clip41_2936_8">
      <rect
        width="168"
        height="168"
        fill="white"
        transform="translate(505.086 136.871) rotate(-10)"
      />
    </clipPath>
    <clipPath id="clip42_2936_8">
      <rect
        width="168"
        height="168"
        fill="white"
        transform="translate(471.051 -56.1516) rotate(-10)"
      />
    </clipPath>
    <clipPath id="clip43_2936_8">
      <rect
        width="168"
        height="168"
        fill="white"
        transform="translate(607.191 715.938) rotate(-10)"
      />
    </clipPath>
    <clipPath id="clip44_2936_8">
      <rect
        width="168"
        height="168"
        fill="white"
        transform="translate(-164.898 852.078) rotate(-10)"
      />
    </clipPath>
    <clipPath id="clip45_2936_8">
      <rect
        width="168"
        height="168"
        fill="white"
        transform="translate(1311.21 193.753) rotate(-10)"
      />
    </clipPath>
    <clipPath id="clip46_2936_8">
      <rect
        width="168"
        height="168"
        fill="white"
        transform="translate(1277.17 0.730469) rotate(-10)"
      />
    </clipPath>
    <clipPath id="clip47_2936_8">
      <rect
        width="168"
        height="168"
        fill="white"
        transform="translate(1447.35 965.842) rotate(-10)"
      />
    </clipPath>
    <clipPath id="clip48_2936_8">
      <rect
        width="168"
        height="168"
        fill="white"
        transform="translate(1379.28 579.797) rotate(-10)"
      />
    </clipPath>
    <clipPath id="clip49_2936_8">
      <rect
        width="168"
        height="168"
        fill="white"
        transform="translate(959.2 454.845) rotate(-10)"
      />
    </clipPath>
    <clipPath id="clip50_2936_8">
      <rect
        width="168"
        height="168"
        fill="white"
        transform="translate(1027.27 840.89) rotate(-10)"
      />
    </clipPath>
    <clipPath id="clip51_2936_8">
      <rect
        width="168"
        height="168"
        fill="white"
        transform="translate(187.111 590.985) rotate(-10)"
      />
    </clipPath>
    <clipPath id="clip52_2936_8">
      <rect
        width="168"
        height="168"
        fill="white"
        transform="translate(255.182 977.03) rotate(-10)"
      />
    </clipPath>
    <clipPath id="clip53_2936_8">
      <rect
        width="168"
        height="168"
        fill="white"
        transform="translate(1731.29 318.705) rotate(-10)"
      />
    </clipPath>
    <clipPath id="clip54_2936_8">
      <rect
        width="168"
        height="168"
        fill="white"
        transform="translate(1799.36 704.75) rotate(-10)"
      />
    </clipPath>
    <clipPath id="clip55_2936_8">
      <rect
        width="168"
        height="168"
        fill="white"
        transform="translate(925.166 261.823) rotate(-10)"
      />
    </clipPath>
    <clipPath id="clip56_2936_8">
      <rect
        width="168"
        height="168"
        fill="white"
        transform="translate(891.131 68.8005) rotate(-10)"
      />
    </clipPath>
    <clipPath id="clip57_2936_8">
      <rect
        width="168"
        height="168"
        fill="white"
        transform="translate(857.096 -124.222) rotate(-10)"
      />
    </clipPath>
    <clipPath id="clip58_2936_8">
      <rect
        width="168"
        height="168"
        fill="white"
        transform="translate(1061.31 1033.91) rotate(-10)"
      />
    </clipPath>
    <clipPath id="clip59_2936_8">
      <rect
        width="168"
        height="168"
        fill="white"
        transform="translate(993.235 647.867) rotate(-10)"
      />
    </clipPath>
    <clipPath id="clip60_2936_8">
      <rect
        width="168"
        height="168"
        fill="white"
        transform="translate(153.076 397.963) rotate(-10)"
      />
    </clipPath>
    <clipPath id="clip61_2936_8">
      <rect
        width="168"
        height="168"
        fill="white"
        transform="translate(119.041 204.941) rotate(-10)"
      />
    </clipPath>
    <clipPath id="clip62_2936_8">
      <rect
        width="168"
        height="168"
        fill="white"
        transform="translate(85.0059 11.9185) rotate(-10)"
      />
    </clipPath>
    <clipPath id="clip63_2936_8">
      <rect
        width="168"
        height="168"
        fill="white"
        transform="translate(221.146 784.008) rotate(-10)"
      />
    </clipPath>
    <clipPath id="clip64_2936_8">
      <rect
        width="168"
        height="168"
        fill="white"
        transform="translate(1697.25 125.683) rotate(-10)"
      />
    </clipPath>
    <clipPath id="clip65_2936_8">
      <rect
        width="168"
        height="168"
        fill="white"
        transform="translate(1663.22 -67.3396) rotate(-10)"
      />
    </clipPath>
    <clipPath id="clip66_2936_8">
      <rect
        width="168"
        height="168"
        fill="white"
        transform="translate(1833.4 897.772) rotate(-10)"
      />
    </clipPath>
    <clipPath id="clip67_2936_8">
      <rect
        width="168"
        height="168"
        fill="white"
        transform="translate(1867.43 1090.79) rotate(-10)"
      />
    </clipPath>
    <clipPath id="clip68_2936_8">
      <rect
        width="168"
        height="168"
        fill="white"
        transform="translate(1765.33 511.727) rotate(-10)"
      />
    </clipPath>
  </defs>
</svg>
