<svg width="222" height="129" viewBox="0 0 222 129" fill="none" xmlns="http://www.w3.org/2000/svg">
<g id="Frame">
<path id="Gamepad" d="M167.747 3H54.2532C43.6962 3.00246 33.515 6.91868 25.6776 13.9916C17.8402 21.0645 12.9033 30.7919 11.8212 41.2933C11.7572 41.848 11.7146 42.3707 11.6399 42.9147C10.7759 50.104 4.33325 77.1973 4.33325 93.6667C4.33325 102.154 7.70467 110.293 13.7058 116.294C19.707 122.295 27.8463 125.667 36.3333 125.667C46.9999 125.667 52.3333 120.333 57.6666 115L72.7493 99.9173C76.7491 95.9163 82.1744 93.6679 87.8319 93.6667H134.168C139.825 93.6679 145.251 95.9163 149.251 99.9173L164.333 115C169.667 120.333 175 125.667 185.667 125.667C194.154 125.667 202.293 122.295 208.294 116.294C214.295 110.293 217.667 102.154 217.667 93.6667C217.667 77.1867 211.224 50.104 210.36 42.9147C210.285 42.3813 210.243 41.848 210.179 41.304C209.099 30.8007 204.163 21.0707 196.326 13.9956C188.488 6.92044 178.305 3.00273 167.747 3Z" stroke="white" stroke-width="2" stroke-linecap="round" stroke-linejoin="round"/>
<g id="Group 17">
<g id="Stick">
<circle id="Outer" cx="49" cy="51" r="14" stroke="white" stroke-width="2"/>
<circle id="Inner" cx="49" cy="51" r="8" fill="white"/>
</g>
<g id="Buttons">
<g id="ButtonA">
<circle id="Circle" cx="175" cy="69" r="8" stroke="white" stroke-width="2"/>
<path id="A" d="M171.992 72L174.424 66.32H175.576L178.008 72H176.68L176.176 70.8H173.824L173.32 72H171.992ZM175 67.992L174.28 69.696H175.712L175 67.992Z" fill="white"/>
</g>
<g id="ButtonB">
<circle id="Circle_2" cx="193" cy="51" r="8" stroke="white" stroke-width="2"/>
<path id="B" d="M191.061 54V48.32H193.197C193.661 48.32 194.058 48.4853 194.389 48.816C194.72 49.1413 194.885 49.5387 194.885 50.008C194.885 50.3867 194.749 50.712 194.477 50.984C194.722 51.112 194.917 51.2933 195.061 51.528C195.21 51.7627 195.285 52.0293 195.285 52.328C195.285 52.7973 195.12 53.1947 194.789 53.52C194.458 53.84 194.048 54 193.557 54H191.061ZM192.333 52.832H193.453C193.624 52.832 193.765 52.7787 193.877 52.672C193.989 52.56 194.045 52.424 194.045 52.264C194.045 52.104 193.986 51.9707 193.869 51.864C193.757 51.752 193.616 51.696 193.445 51.696H192.333V52.832ZM192.333 50.616H193.053C193.224 50.616 193.365 50.5627 193.477 50.456C193.589 50.3493 193.645 50.216 193.645 50.056C193.645 49.896 193.589 49.76 193.477 49.648C193.365 49.536 193.224 49.48 193.053 49.48H192.333V50.616Z" fill="white"/>
</g>
<g id="ButtonX">
<circle id="Circle_3" cx="157" cy="51" r="8" stroke="white" stroke-width="2"/>
<path id="X" d="M155.6 54H154.112L156.24 51.128L154.24 48.32H155.712L157 50.144L158.288 48.32H159.76L157.768 51.128L159.888 54H158.408L157 52.12L155.6 54Z" fill="white"/>
</g>
<g id="ButtonY">
<circle id="Circle_4" cx="175" cy="33" r="8" stroke="white" stroke-width="2"/>
<path id="Y" d="M174.359 36V33.608L172.287 30.32H173.767L174.991 32.368L176.231 30.32H177.711L175.639 33.616V36H174.359Z" fill="white"/>
</g>
</g>
<g id="Menu">
<g id="Select">
<rect id="Rect" x="89" y="45" width="17" height="12" rx="4" stroke="white" stroke-width="2"/>
<path id="Tri" d="M94 51.5L100 48L100 55L94 51.5Z" fill="white"/>
</g>
<g id="Start">
<rect id="Rect_2" x="116" y="45" width="17" height="12" rx="4" stroke="white" stroke-width="2"/>
<path id="Tri_2" d="M128 51.5L122 48L122 55L128 51.5Z" fill="white"/>
</g>
</g>
</g>
</g>
</svg>
