<svg width="1050" height="975" viewBox="0 0 1050 975" fill="none" xmlns="http://www.w3.org/2000/svg"  style="width: 100%;height: 100%;">
<mask id="mask0_1988_711" style="mask-type:alpha" maskUnits="userSpaceOnUse" x="534" y="0" width="516" height="975">
<rect x="534" width="516" height="426" fill="url(#paint0_linear_1988_711)"/>
<rect width="516" height="464" transform="matrix(1 0 0 -1 534 975)" fill="url(#paint1_linear_1988_711)"/>
<rect x="534" y="426" width="516" height="85" fill="#D9D9D9"/>
</mask>
<g mask="url(#mask0_1988_711)">
<path d="M539.76 779V734.84H548.656V779H539.76ZM543.984 779V771.448H556.528C558.491 771.448 560.091 770.957 561.328 769.976C562.565 768.995 563.184 767.587 563.184 765.752C563.184 763.875 562.565 762.467 561.328 761.528C560.091 760.547 558.491 760.056 556.528 760.056H543.984V754.36H557.296C560.24 754.36 562.821 754.851 565.04 755.832C567.301 756.813 569.072 758.243 570.352 760.12C571.675 761.955 572.336 764.152 572.336 766.712C572.336 769.315 571.653 771.533 570.288 773.368C568.965 775.203 567.173 776.611 564.912 777.592C562.651 778.531 560.112 779 557.296 779H543.984ZM543.984 757.88V752.952H555.312C557.147 752.952 558.64 752.504 559.792 751.608C560.944 750.712 561.52 749.411 561.52 747.704C561.52 745.997 560.944 744.696 559.792 743.8C558.64 742.861 557.147 742.392 555.312 742.392H543.984V734.84H555.824C558.555 734.84 561.029 735.309 563.248 736.248C565.467 737.187 567.216 738.531 568.496 740.28C569.776 742.029 570.416 744.163 570.416 746.68C570.416 749.112 569.776 751.16 568.496 752.824C567.216 754.488 565.467 755.747 563.248 756.6C561.072 757.453 558.597 757.88 555.824 757.88H543.984ZM580.87 779V745.592H589.254V779H580.87ZM580.102 735.928C580.102 734.52 580.55 733.325 581.446 732.344C582.385 731.363 583.579 730.872 585.03 730.872C586.523 730.872 587.718 731.363 588.614 732.344C589.553 733.325 590.022 734.52 590.022 735.928C590.022 737.293 589.553 738.467 588.614 739.448C587.718 740.429 586.523 740.92 585.03 740.92C583.579 740.92 582.385 740.429 581.446 739.448C580.55 738.467 580.102 737.293 580.102 735.928ZM598.535 745.592H606.599L607.879 751.992V779H599.495V753.528C599.495 752.632 599.452 751.843 599.367 751.16C599.324 750.435 599.218 749.603 599.047 748.664L598.535 745.592ZM606.919 756.728V750.968C608.284 749.176 609.884 747.725 611.719 746.616C613.554 745.464 615.602 744.888 617.863 744.888C619.911 744.888 621.81 745.4 623.559 746.424C625.351 747.405 626.78 748.877 627.847 750.84C628.956 752.803 629.511 755.299 629.511 758.328V779H621.127V759.608C621.127 757.987 620.85 756.664 620.295 755.64C619.783 754.616 619.058 753.869 618.119 753.4C617.223 752.888 616.178 752.632 614.983 752.632C613.575 752.632 612.146 752.995 610.695 753.72C609.287 754.403 608.028 755.405 606.919 756.728ZM637.065 761.464C637.065 757.923 637.662 754.915 638.857 752.44C640.094 749.965 641.737 748.088 643.785 746.808C645.875 745.528 648.243 744.888 650.889 744.888C653.065 744.888 655.006 745.443 656.713 746.552C658.462 747.619 659.849 749.261 660.873 751.48C661.897 753.699 662.409 756.472 662.409 759.8L659.337 760.248C659.337 758.243 659.059 756.621 658.505 755.384C657.993 754.104 657.267 753.165 656.329 752.568C655.39 751.928 654.323 751.608 653.128 751.608C650.867 751.608 649.033 752.461 647.625 754.168C646.217 755.832 645.513 758.136 645.513 761.08C645.513 763.043 645.79 764.707 646.345 766.072C646.942 767.395 647.753 768.397 648.777 769.08C649.801 769.72 650.974 770.04 652.297 770.04C653.662 770.04 655.049 769.741 656.457 769.144C657.907 768.547 659.187 767.715 660.297 766.648V772.024C658.974 773.816 657.395 775.181 655.561 776.12C653.769 777.016 651.849 777.464 649.801 777.464C647.411 777.464 645.257 776.824 643.337 775.544C641.417 774.264 639.881 772.429 638.729 770.04C637.619 767.651 637.065 764.792 637.065 761.464ZM638.985 788.792L641.225 781.752C642.59 782.435 644.041 783.011 645.577 783.48C647.113 783.949 648.734 784.184 650.441 784.184C653.171 784.184 655.326 783.437 656.905 781.944C658.526 780.451 659.337 778.083 659.337 774.84V751.992L660.617 745.592H668.681L668.169 748.664C667.998 749.603 667.87 750.435 667.785 751.16C667.742 751.843 667.721 752.632 667.721 753.528V774.84C667.721 778.339 666.995 781.347 665.545 783.864C664.094 786.381 662.11 788.28 659.593 789.56C657.075 790.883 654.195 791.544 650.953 791.544C648.606 791.544 646.409 791.267 644.361 790.712C642.313 790.157 640.521 789.517 638.985 788.792ZM675.565 762.872C675.565 759.16 676.247 755.96 677.613 753.272C679.021 750.584 680.919 748.515 683.309 747.064C685.698 745.613 688.429 744.888 691.501 744.888C694.402 744.888 696.941 745.549 699.117 746.872C701.293 748.195 702.978 750.093 704.173 752.568C705.41 755.043 706.029 758.051 706.029 761.592C706.029 762.232 706.007 762.829 705.965 763.384C705.922 763.939 705.858 764.408 705.773 764.792H681.837V759.16H699.629L697.901 761.72C697.901 758.136 697.303 755.555 696.109 753.976C694.914 752.397 693.314 751.608 691.309 751.608C689.901 751.608 688.621 751.992 687.469 752.76C686.359 753.528 685.485 754.723 684.845 756.344C684.205 757.923 683.885 759.949 683.885 762.424C683.885 764.771 684.29 766.712 685.101 768.248C685.954 769.741 687.106 770.872 688.557 771.64C690.05 772.365 691.757 772.728 693.677 772.728C695.042 772.728 696.386 772.515 697.709 772.088C699.074 771.661 700.29 771.149 701.357 770.552L703.981 776.888C702.487 777.741 700.802 778.424 698.925 778.936C697.047 779.448 695.021 779.704 692.845 779.704C689.346 779.704 686.295 779.043 683.693 777.72C681.09 776.355 679.085 774.413 677.677 771.896C676.269 769.379 675.565 766.371 675.565 762.872ZM713.745 779V745.592H722.129V779H713.745ZM712.977 735.928C712.977 734.52 713.425 733.325 714.321 732.344C715.26 731.363 716.454 730.872 717.905 730.872C719.398 730.872 720.593 731.363 721.489 732.344C722.428 733.325 722.897 734.52 722.897 735.928C722.897 737.293 722.428 738.467 721.489 739.448C720.593 740.429 719.398 740.92 717.905 740.92C716.454 740.92 715.26 740.429 714.321 739.448C713.425 738.467 712.977 737.293 712.977 735.928ZM731.41 745.592H739.474L740.754 751.992V779H732.37V753.528C732.37 752.632 732.327 751.843 732.242 751.16C732.199 750.435 732.093 749.603 731.922 748.664L731.41 745.592ZM739.794 756.728V750.968C741.159 749.176 742.759 747.725 744.594 746.616C746.429 745.464 748.477 744.888 750.738 744.888C752.786 744.888 754.685 745.4 756.434 746.424C758.226 747.405 759.655 748.877 760.722 750.84C761.831 752.803 762.386 755.299 762.386 758.328V779H754.002V759.608C754.002 757.987 753.725 756.664 753.17 755.64C752.658 754.616 751.933 753.869 750.994 753.4C750.098 752.888 749.053 752.632 747.858 752.632C746.45 752.632 745.021 752.995 743.57 753.72C742.162 754.403 740.903 755.405 739.794 756.728ZM769.94 761.464C769.94 757.923 770.537 754.915 771.732 752.44C772.969 749.965 774.612 748.088 776.66 746.808C778.75 745.528 781.118 744.888 783.764 744.888C785.94 744.888 787.881 745.443 789.588 746.552C791.337 747.619 792.724 749.261 793.748 751.48C794.772 753.699 795.284 756.472 795.284 759.8L792.212 760.248C792.212 758.243 791.934 756.621 791.38 755.384C790.868 754.104 790.142 753.165 789.204 752.568C788.265 751.928 787.198 751.608 786.003 751.608C783.742 751.608 781.908 752.461 780.5 754.168C779.092 755.832 778.388 758.136 778.388 761.08C778.388 763.043 778.665 764.707 779.22 766.072C779.817 767.395 780.628 768.397 781.652 769.08C782.676 769.72 783.849 770.04 785.172 770.04C786.537 770.04 787.924 769.741 789.332 769.144C790.782 768.547 792.062 767.715 793.172 766.648V772.024C791.849 773.816 790.27 775.181 788.436 776.12C786.644 777.016 784.724 777.464 782.676 777.464C780.286 777.464 778.132 776.824 776.212 775.544C774.292 774.264 772.756 772.429 771.604 770.04C770.494 767.651 769.94 764.792 769.94 761.464ZM771.86 788.792L774.1 781.752C775.465 782.435 776.916 783.011 778.452 783.48C779.988 783.949 781.609 784.184 783.316 784.184C786.046 784.184 788.201 783.437 789.78 781.944C791.401 780.451 792.212 778.083 792.212 774.84V751.992L793.492 745.592H801.556L801.044 748.664C800.873 749.603 800.745 750.435 800.66 751.16C800.617 751.843 800.596 752.632 800.596 753.528V774.84C800.596 778.339 799.87 781.347 798.42 783.864C796.969 786.381 794.985 788.28 792.468 789.56C789.95 790.883 787.07 791.544 783.828 791.544C781.481 791.544 779.284 791.267 777.236 790.712C775.188 790.157 773.396 789.517 771.86 788.792Z" fill="white"/>
<path d="M536.56 704.88L540.976 697.648C542.853 699.269 545.008 700.571 547.44 701.552C549.915 702.491 552.411 702.96 554.928 702.96C556.507 702.96 557.829 702.768 558.896 702.384C560.005 701.957 560.837 701.403 561.392 700.72C561.989 700.037 562.288 699.291 562.288 698.48C562.288 697.712 562.032 696.965 561.52 696.24C561.008 695.472 560.091 694.725 558.768 694C557.488 693.232 555.632 692.443 553.2 691.632C549.659 690.48 546.821 689.2 544.688 687.792C542.555 686.341 541.019 684.784 540.08 683.12C539.141 681.413 538.672 679.621 538.672 677.744C538.672 675.44 539.291 673.328 540.528 671.408C541.808 669.488 543.643 667.973 546.032 666.864C548.464 665.712 551.387 665.136 554.8 665.136C557.573 665.136 560.347 665.605 563.12 666.544C565.936 667.483 568.347 668.699 570.352 670.192L566.128 677.168C564.421 675.845 562.544 674.779 560.496 673.968C558.448 673.157 556.315 672.752 554.096 672.752C551.963 672.752 550.341 673.179 549.232 674.032C548.123 674.885 547.568 675.867 547.568 676.976C547.568 677.701 547.824 678.405 548.336 679.088C548.891 679.771 549.787 680.453 551.024 681.136C552.304 681.776 554.053 682.459 556.272 683.184C559.941 684.379 562.885 685.723 565.104 687.216C567.323 688.667 568.923 690.267 569.904 692.016C570.928 693.765 571.44 695.685 571.44 697.776C571.44 700.08 570.8 702.213 569.52 704.176C568.24 706.139 566.299 707.717 563.696 708.912C561.093 710.107 557.872 710.704 554.032 710.704C551.984 710.704 549.915 710.469 547.824 710C545.776 709.488 543.792 708.805 541.872 707.952C539.995 707.099 538.224 706.075 536.56 704.88ZM577.252 693.36C577.252 689.691 577.935 686.555 579.3 683.952C580.708 681.349 582.607 679.365 584.996 678C587.385 676.592 590.137 675.888 593.252 675.888C596.367 675.888 599.119 676.592 601.508 678C603.897 679.365 605.775 681.349 607.14 683.952C608.505 686.555 609.188 689.691 609.188 693.36C609.188 696.944 608.505 700.037 607.14 702.64C605.775 705.243 603.897 707.248 601.508 708.656C599.119 710.021 596.367 710.704 593.252 710.704C590.137 710.704 587.385 710.021 584.996 708.656C582.607 707.248 580.708 705.243 579.3 702.64C577.935 700.037 577.252 696.944 577.252 693.36ZM585.828 693.36C585.828 695.707 586.127 697.669 586.724 699.248C587.321 700.784 588.175 701.936 589.284 702.704C590.393 703.429 591.716 703.792 593.252 703.792C594.745 703.792 596.047 703.429 597.156 702.704C598.308 701.936 599.183 700.784 599.78 699.248C600.377 697.669 600.676 695.707 600.676 693.36C600.676 690.971 600.377 689.008 599.78 687.472C599.183 685.936 598.308 684.784 597.156 684.016C596.047 683.205 594.745 682.8 593.252 682.8C591.716 682.8 590.393 683.205 589.284 684.016C588.175 684.784 587.321 685.936 586.724 687.472C586.127 689.008 585.828 690.971 585.828 693.36ZM614.752 693.872C614.752 690.203 615.499 687.024 616.992 684.336C618.485 681.648 620.512 679.579 623.072 678.128C625.632 676.635 628.533 675.888 631.776 675.888C633.739 675.888 635.573 676.187 637.28 676.784C639.029 677.339 640.587 678.085 641.952 679.024L638.432 685.616C637.621 684.891 636.64 684.315 635.488 683.888C634.379 683.461 633.184 683.248 631.904 683.248C630.325 683.248 628.875 683.632 627.552 684.4C626.272 685.168 625.248 686.32 624.48 687.856C623.712 689.392 623.328 691.333 623.328 693.68C623.328 695.771 623.712 697.541 624.48 698.992C625.248 700.4 626.293 701.467 627.616 702.192C628.939 702.917 630.411 703.28 632.032 703.28C633.312 703.28 634.528 703.067 635.68 702.64C636.875 702.213 637.877 701.68 638.688 701.04L642.144 707.568C640.779 708.507 639.157 709.275 637.28 709.872C635.403 710.427 633.376 710.704 631.2 710.704C627.957 710.704 625.099 710.043 622.624 708.72C620.149 707.397 618.208 705.477 616.8 702.96C615.435 700.4 614.752 697.371 614.752 693.872ZM649.058 710V676.592H657.442V710H649.058ZM648.29 666.928C648.29 665.52 648.738 664.325 649.634 663.344C650.572 662.363 651.767 661.872 653.218 661.872C654.711 661.872 655.906 662.363 656.802 663.344C657.74 664.325 658.21 665.52 658.21 666.928C658.21 668.293 657.74 669.467 656.802 670.448C655.906 671.429 654.711 671.92 653.218 671.92C651.767 671.92 650.572 671.429 649.634 670.448C648.738 669.467 648.29 668.293 648.29 666.928ZM665.315 701.296C665.315 699.248 665.848 697.413 666.915 695.792C668.024 694.171 669.752 692.869 672.099 691.888C674.445 690.864 677.453 690.288 681.123 690.16L686.307 689.968V695.024L681.635 695.28C679.459 695.451 677.752 695.792 676.515 696.304C675.277 696.816 674.403 697.435 673.891 698.16C673.379 698.843 673.123 699.589 673.123 700.4C673.123 701.552 673.485 702.469 674.211 703.152C674.979 703.792 675.939 704.112 677.091 704.112C678.712 704.112 680.248 703.707 681.699 702.896C683.192 702.085 684.515 701.019 685.667 699.696V704.88C684.6 706.587 683.128 707.995 681.251 709.104C679.373 710.171 677.283 710.704 674.979 710.704C673.229 710.704 671.629 710.32 670.179 709.552C668.728 708.784 667.555 707.696 666.659 706.288C665.763 704.88 665.315 703.216 665.315 701.296ZM666.339 678.896C667.917 678.085 669.837 677.381 672.099 676.784C674.403 676.187 676.749 675.888 679.139 675.888C681.869 675.888 684.28 676.4 686.371 677.424C688.461 678.405 690.104 679.877 691.299 681.84C692.536 683.803 693.155 686.235 693.155 689.136V702.064C693.155 702.96 693.176 703.771 693.219 704.496C693.304 705.221 693.432 706.053 693.603 706.992L694.115 710H685.987L684.707 703.6V689.712C684.707 687.536 684.131 685.893 682.979 684.784C681.869 683.675 680.184 683.12 677.923 683.12C676.173 683.12 674.531 683.376 672.995 683.888C671.459 684.357 670.051 684.933 668.771 685.616L666.339 678.896ZM702.995 710V664.24L711.379 662.96V710H702.995ZM738.26 710V665.84H746.452V710H738.26ZM741.588 665.84H750.164L772.18 710H763.604L741.588 665.84ZM766.804 710V665.84H775.06V710H766.804ZM783.565 693.872C783.565 690.16 784.247 686.96 785.613 684.272C787.021 681.584 788.919 679.515 791.309 678.064C793.698 676.613 796.429 675.888 799.501 675.888C802.402 675.888 804.941 676.549 807.117 677.872C809.293 679.195 810.978 681.093 812.173 683.568C813.41 686.043 814.029 689.051 814.029 692.592C814.029 693.232 814.007 693.829 813.965 694.384C813.922 694.939 813.858 695.408 813.773 695.792H789.837V690.16H807.629L805.901 692.72C805.901 689.136 805.303 686.555 804.109 684.976C802.914 683.397 801.314 682.608 799.309 682.608C797.901 682.608 796.621 682.992 795.469 683.76C794.359 684.528 793.485 685.723 792.845 687.344C792.205 688.923 791.885 690.949 791.885 693.424C791.885 695.771 792.29 697.712 793.101 699.248C793.954 700.741 795.106 701.872 796.557 702.64C798.05 703.365 799.757 703.728 801.677 703.728C803.042 703.728 804.386 703.515 805.709 703.088C807.074 702.661 808.29 702.149 809.357 701.552L811.981 707.888C810.487 708.741 808.802 709.424 806.925 709.936C805.047 710.448 803.021 710.704 800.845 710.704C797.346 710.704 794.295 710.043 791.693 708.72C789.09 707.355 787.085 705.413 785.677 702.896C784.269 700.379 783.565 697.371 783.565 693.872ZM817.713 683.248V676.592H841.009V683.248H817.713ZM823.473 698.992V669.104L831.857 667.824V698.096C831.857 699.888 832.22 701.168 832.945 701.936C833.713 702.704 834.844 703.088 836.337 703.088C836.977 703.088 837.66 703.024 838.385 702.896C839.11 702.725 839.857 702.491 840.625 702.192L841.649 709.424C840.625 709.808 839.494 710.107 838.257 710.32C837.062 710.576 835.868 710.704 834.673 710.704C832.412 710.704 830.449 710.277 828.785 709.424C827.121 708.528 825.82 707.205 824.881 705.456C823.942 703.707 823.473 701.552 823.473 698.992ZM844.588 676.592H853.548L860.716 703.408L860.78 710H855.212L844.588 676.592ZM857.772 703.408L865.644 676.592H870.444V685.872L862.444 710H857.772V703.408ZM867.564 685.872V676.592H872.62L880.62 703.408L880.684 710H875.564L867.564 685.872ZM877.676 703.408L884.716 676.592H893.42L882.796 710H877.676V703.408ZM897.252 693.36C897.252 689.691 897.935 686.555 899.3 683.952C900.708 681.349 902.607 679.365 904.996 678C907.385 676.592 910.137 675.888 913.252 675.888C916.367 675.888 919.119 676.592 921.508 678C923.897 679.365 925.775 681.349 927.14 683.952C928.505 686.555 929.188 689.691 929.188 693.36C929.188 696.944 928.505 700.037 927.14 702.64C925.775 705.243 923.897 707.248 921.508 708.656C919.119 710.021 916.367 710.704 913.252 710.704C910.137 710.704 907.385 710.021 904.996 708.656C902.607 707.248 900.708 705.243 899.3 702.64C897.935 700.037 897.252 696.944 897.252 693.36ZM905.828 693.36C905.828 695.707 906.127 697.669 906.724 699.248C907.321 700.784 908.175 701.936 909.284 702.704C910.393 703.429 911.716 703.792 913.252 703.792C914.745 703.792 916.047 703.429 917.156 702.704C918.308 701.936 919.183 700.784 919.78 699.248C920.377 697.669 920.676 695.707 920.676 693.36C920.676 690.971 920.377 689.008 919.78 687.472C919.183 685.936 918.308 684.784 917.156 684.016C916.047 683.205 914.745 682.8 913.252 682.8C911.716 682.8 910.393 683.205 909.284 684.016C908.175 684.784 907.321 685.936 906.724 687.472C906.127 689.008 905.828 690.971 905.828 693.36ZM936.16 676.592H944.224L945.504 683.248V710H937.12V684.528C937.12 683.632 937.077 682.843 936.992 682.16C936.949 681.435 936.843 680.603 936.672 679.664L936.16 676.592ZM944.544 688.688V683.12C945.824 680.901 947.445 679.152 949.408 677.872C951.371 676.549 953.525 675.888 955.872 675.888V684.336C953.355 684.379 951.221 684.741 949.472 685.424C947.723 686.064 946.08 687.152 944.544 688.688ZM962.495 710V664.24L970.879 662.96V710H962.495ZM968.319 702.192V692.336L981.631 676.592H992.127L968.319 702.192ZM972.735 692.912L978.175 687.664L993.023 710H983.295L972.735 692.912Z" fill="white"/>
<path d="M539.76 641V596.84H548.656V641H539.76ZM543.984 641V633.128H568.688V641H543.984ZM576.183 641V607.592H584.567V641H576.183ZM575.415 597.928C575.415 596.52 575.863 595.325 576.759 594.344C577.697 593.363 578.892 592.872 580.343 592.872C581.836 592.872 583.031 593.363 583.927 594.344C584.865 595.325 585.335 596.52 585.335 597.928C585.335 599.293 584.865 600.467 583.927 601.448C583.031 602.429 581.836 602.92 580.343 602.92C578.892 602.92 577.697 602.429 576.759 601.448C575.863 600.467 575.415 599.293 575.415 597.928ZM593.848 641L594.36 637.992C594.53 637.053 594.637 636.221 594.68 635.496C594.765 634.771 594.808 633.96 594.808 633.064V595.24L603.192 593.96V634.6L601.912 641H593.848ZM600.12 626.792L603.192 626.344C603.192 628.349 603.469 629.992 604.024 631.272C604.578 632.552 605.325 633.512 606.264 634.152C607.202 634.749 608.248 635.048 609.4 635.048C611.661 635.048 613.496 634.131 614.904 632.296C616.312 630.419 617.016 627.88 617.016 624.68C617.016 622.419 616.717 620.541 616.12 619.048C615.565 617.555 614.776 616.424 613.752 615.656C612.728 614.888 611.554 614.504 610.232 614.504C608.866 614.504 607.458 614.867 606.008 615.592C604.6 616.317 603.341 617.299 602.232 618.536V612.968C603.554 611.176 605.112 609.725 606.904 608.616C608.738 607.464 610.744 606.888 612.92 606.888C615.181 606.888 617.25 607.592 619.128 609C621.047 610.408 622.583 612.413 623.736 615.016C624.888 617.619 625.464 620.712 625.464 624.296C625.464 628.008 624.845 631.165 623.608 633.768C622.413 636.371 620.77 638.355 618.68 639.72C616.589 641.043 614.178 641.704 611.448 641.704C609.357 641.704 607.458 641.171 605.752 640.104C604.045 638.995 602.68 637.331 601.656 635.112C600.632 632.893 600.12 630.12 600.12 626.792ZM632.348 607.592H640.412L641.692 614.248V641H633.308V615.528C633.308 614.632 633.265 613.843 633.18 613.16C633.137 612.435 633.03 611.603 632.86 610.664L632.348 607.592ZM640.732 619.688V614.12C642.012 611.901 643.633 610.152 645.596 608.872C647.558 607.549 649.713 606.888 652.06 606.888V615.336C649.542 615.379 647.409 615.741 645.66 616.424C643.91 617.064 642.268 618.152 640.732 619.688ZM656.315 632.296C656.315 630.248 656.848 628.413 657.915 626.792C659.024 625.171 660.752 623.869 663.099 622.888C665.445 621.864 668.453 621.288 672.123 621.16L677.307 620.968V626.024L672.635 626.28C670.459 626.451 668.752 626.792 667.515 627.304C666.277 627.816 665.403 628.435 664.891 629.16C664.379 629.843 664.123 630.589 664.123 631.4C664.123 632.552 664.485 633.469 665.211 634.152C665.979 634.792 666.939 635.112 668.091 635.112C669.712 635.112 671.248 634.707 672.699 633.896C674.192 633.085 675.515 632.019 676.667 630.696V635.88C675.6 637.587 674.128 638.995 672.251 640.104C670.373 641.171 668.283 641.704 665.979 641.704C664.229 641.704 662.629 641.32 661.179 640.552C659.728 639.784 658.555 638.696 657.659 637.288C656.763 635.88 656.315 634.216 656.315 632.296ZM657.339 609.896C658.917 609.085 660.837 608.381 663.099 607.784C665.403 607.187 667.749 606.888 670.139 606.888C672.869 606.888 675.28 607.4 677.371 608.424C679.461 609.405 681.104 610.877 682.299 612.84C683.536 614.803 684.155 617.235 684.155 620.136V633.064C684.155 633.96 684.176 634.771 684.219 635.496C684.304 636.221 684.432 637.053 684.603 637.992L685.115 641H676.987L675.707 634.6V620.712C675.707 618.536 675.131 616.893 673.979 615.784C672.869 614.675 671.184 614.12 668.923 614.12C667.173 614.12 665.531 614.376 663.995 614.888C662.459 615.357 661.051 615.933 659.771 616.616L657.339 609.896ZM693.035 607.592H701.099L702.379 614.248V641H693.995V615.528C693.995 614.632 693.952 613.843 693.867 613.16C693.824 612.435 693.718 611.603 693.547 610.664L693.035 607.592ZM701.419 619.688V614.12C702.699 611.901 704.32 610.152 706.283 608.872C708.246 607.549 710.4 606.888 712.747 606.888V615.336C710.23 615.379 708.096 615.741 706.347 616.424C704.598 617.064 702.955 618.152 701.419 619.688ZM714.442 607.592H723.594L732.554 634.344L732.618 641H727.498L714.442 607.592ZM715.594 652.648L716.554 645.8C717.109 645.971 717.642 646.099 718.154 646.184C718.666 646.312 719.199 646.376 719.754 646.376C720.778 646.376 721.695 646.184 722.506 645.8C723.359 645.416 724.17 644.648 724.938 643.496C725.749 642.387 726.581 640.723 727.434 638.504L729.546 634.344L738.378 607.592H747.274L734.026 641.512C733.002 644.243 731.85 646.504 730.57 648.296C729.333 650.088 727.903 651.411 726.282 652.264C724.661 653.117 722.762 653.544 720.586 653.544C719.733 653.544 718.858 653.459 717.962 653.288C717.109 653.117 716.319 652.904 715.594 652.648Z" fill="white"/>
<path d="M535.728 535.712V527.84H569.584V535.712H535.728ZM548.208 572V527.84H557.104V572H548.208ZM571.697 527.84H581.233L593.329 563.36L593.137 572H587.889L571.697 527.84ZM591.153 563.36L603.185 527.84H612.465L596.273 572H591.473L591.153 563.36Z" fill="white"/>
<path d="M539.76 495V450.84H548.656V495H539.76ZM543.984 476.632V468.76H571.888V476.632H543.984ZM567.216 495V450.84H576.112V495H567.216ZM584.627 478.36C584.627 474.691 585.31 471.555 586.675 468.952C588.083 466.349 589.982 464.365 592.371 463C594.76 461.592 597.512 460.888 600.627 460.888C603.742 460.888 606.494 461.592 608.883 463C611.272 464.365 613.15 466.349 614.515 468.952C615.88 471.555 616.563 474.691 616.563 478.36C616.563 481.944 615.88 485.037 614.515 487.64C613.15 490.243 611.272 492.248 608.883 493.656C606.494 495.021 603.742 495.704 600.627 495.704C597.512 495.704 594.76 495.021 592.371 493.656C589.982 492.248 588.083 490.243 586.675 487.64C585.31 485.037 584.627 481.944 584.627 478.36ZM593.203 478.36C593.203 480.707 593.502 482.669 594.099 484.248C594.696 485.784 595.55 486.936 596.659 487.704C597.768 488.429 599.091 488.792 600.627 488.792C602.12 488.792 603.422 488.429 604.531 487.704C605.683 486.936 606.558 485.784 607.155 484.248C607.752 482.669 608.051 480.707 608.051 478.36C608.051 475.971 607.752 474.008 607.155 472.472C606.558 470.936 605.683 469.784 604.531 469.016C603.422 468.205 602.12 467.8 600.627 467.8C599.091 467.8 597.768 468.205 596.659 469.016C595.55 469.784 594.696 470.936 594.099 472.472C593.502 474.008 593.203 475.971 593.203 478.36ZM623.535 461.592H631.599L632.879 467.992V495H624.495V469.528C624.495 468.632 624.452 467.843 624.367 467.16C624.324 466.435 624.218 465.603 624.047 464.664L623.535 461.592ZM631.919 472.728V466.968C633.156 465.176 634.671 463.725 636.463 462.616C638.298 461.464 640.303 460.888 642.479 460.888C644.399 460.888 646.148 461.357 647.727 462.296C649.348 463.235 650.65 464.685 651.631 466.648C652.612 468.568 653.103 471 653.103 473.944V495H644.719V475.16C644.719 472.899 644.207 471.256 643.183 470.232C642.202 469.165 640.922 468.632 639.343 468.632C638.063 468.632 636.762 468.995 635.439 469.72C634.116 470.403 632.943 471.405 631.919 472.728ZM651.375 467.096C652.228 465.901 653.21 464.835 654.319 463.896C655.471 462.957 656.73 462.232 658.095 461.72C659.503 461.165 660.954 460.888 662.447 460.888C664.41 460.888 666.202 461.357 667.823 462.296C669.487 463.235 670.81 464.685 671.791 466.648C672.815 468.568 673.327 471 673.327 473.944V495H664.879V475.16C664.879 472.899 664.388 471.256 663.407 470.232C662.426 469.165 661.146 468.632 659.567 468.632C658.244 468.632 656.922 468.995 655.599 469.72C654.319 470.403 653.167 471.405 652.143 472.728L651.375 467.096ZM680.877 478.872C680.877 475.16 681.56 471.96 682.925 469.272C684.333 466.584 686.232 464.515 688.621 463.064C691.01 461.613 693.741 460.888 696.813 460.888C699.714 460.888 702.253 461.549 704.429 462.872C706.605 464.195 708.29 466.093 709.485 468.568C710.722 471.043 711.341 474.051 711.341 477.592C711.341 478.232 711.32 478.829 711.277 479.384C711.234 479.939 711.17 480.408 711.085 480.792H687.149V475.16H704.941L703.213 477.72C703.213 474.136 702.616 471.555 701.421 469.976C700.226 468.397 698.626 467.608 696.621 467.608C695.213 467.608 693.933 467.992 692.781 468.76C691.672 469.528 690.797 470.723 690.157 472.344C689.517 473.923 689.197 475.949 689.197 478.424C689.197 480.771 689.602 482.712 690.413 484.248C691.266 485.741 692.418 486.872 693.869 487.64C695.362 488.365 697.069 488.728 698.989 488.728C700.354 488.728 701.698 488.515 703.021 488.088C704.386 487.661 705.602 487.149 706.669 486.552L709.293 492.888C707.8 493.741 706.114 494.424 704.237 494.936C702.36 495.448 700.333 495.704 698.157 495.704C694.658 495.704 691.608 495.043 689.005 493.72C686.402 492.355 684.397 490.413 682.989 487.896C681.581 485.379 680.877 482.371 680.877 478.872Z" fill="white"/>
<path d="M539.76 495V450.84H548.656V495H539.76ZM543.984 476.632V468.76H571.888V476.632H543.984ZM567.216 495V450.84H576.112V495H567.216ZM584.627 478.36C584.627 474.691 585.31 471.555 586.675 468.952C588.083 466.349 589.982 464.365 592.371 463C594.76 461.592 597.512 460.888 600.627 460.888C603.742 460.888 606.494 461.592 608.883 463C611.272 464.365 613.15 466.349 614.515 468.952C615.88 471.555 616.563 474.691 616.563 478.36C616.563 481.944 615.88 485.037 614.515 487.64C613.15 490.243 611.272 492.248 608.883 493.656C606.494 495.021 603.742 495.704 600.627 495.704C597.512 495.704 594.76 495.021 592.371 493.656C589.982 492.248 588.083 490.243 586.675 487.64C585.31 485.037 584.627 481.944 584.627 478.36ZM593.203 478.36C593.203 480.707 593.502 482.669 594.099 484.248C594.696 485.784 595.55 486.936 596.659 487.704C597.768 488.429 599.091 488.792 600.627 488.792C602.12 488.792 603.422 488.429 604.531 487.704C605.683 486.936 606.558 485.784 607.155 484.248C607.752 482.669 608.051 480.707 608.051 478.36C608.051 475.971 607.752 474.008 607.155 472.472C606.558 470.936 605.683 469.784 604.531 469.016C603.422 468.205 602.12 467.8 600.627 467.8C599.091 467.8 597.768 468.205 596.659 469.016C595.55 469.784 594.696 470.936 594.099 472.472C593.502 474.008 593.203 475.971 593.203 478.36ZM623.535 461.592H631.599L632.879 467.992V495H624.495V469.528C624.495 468.632 624.452 467.843 624.367 467.16C624.324 466.435 624.218 465.603 624.047 464.664L623.535 461.592ZM631.919 472.728V466.968C633.156 465.176 634.671 463.725 636.463 462.616C638.298 461.464 640.303 460.888 642.479 460.888C644.399 460.888 646.148 461.357 647.727 462.296C649.348 463.235 650.65 464.685 651.631 466.648C652.612 468.568 653.103 471 653.103 473.944V495H644.719V475.16C644.719 472.899 644.207 471.256 643.183 470.232C642.202 469.165 640.922 468.632 639.343 468.632C638.063 468.632 636.762 468.995 635.439 469.72C634.116 470.403 632.943 471.405 631.919 472.728ZM651.375 467.096C652.228 465.901 653.21 464.835 654.319 463.896C655.471 462.957 656.73 462.232 658.095 461.72C659.503 461.165 660.954 460.888 662.447 460.888C664.41 460.888 666.202 461.357 667.823 462.296C669.487 463.235 670.81 464.685 671.791 466.648C672.815 468.568 673.327 471 673.327 473.944V495H664.879V475.16C664.879 472.899 664.388 471.256 663.407 470.232C662.426 469.165 661.146 468.632 659.567 468.632C658.244 468.632 656.922 468.995 655.599 469.72C654.319 470.403 653.167 471.405 652.143 472.728L651.375 467.096ZM680.877 478.872C680.877 475.16 681.56 471.96 682.925 469.272C684.333 466.584 686.232 464.515 688.621 463.064C691.01 461.613 693.741 460.888 696.813 460.888C699.714 460.888 702.253 461.549 704.429 462.872C706.605 464.195 708.29 466.093 709.485 468.568C710.722 471.043 711.341 474.051 711.341 477.592C711.341 478.232 711.32 478.829 711.277 479.384C711.234 479.939 711.17 480.408 711.085 480.792H687.149V475.16H704.941L703.213 477.72C703.213 474.136 702.616 471.555 701.421 469.976C700.226 468.397 698.626 467.608 696.621 467.608C695.213 467.608 693.933 467.992 692.781 468.76C691.672 469.528 690.797 470.723 690.157 472.344C689.517 473.923 689.197 475.949 689.197 478.424C689.197 480.771 689.602 482.712 690.413 484.248C691.266 485.741 692.418 486.872 693.869 487.64C695.362 488.365 697.069 488.728 698.989 488.728C700.354 488.728 701.698 488.515 703.021 488.088C704.386 487.661 705.602 487.149 706.669 486.552L709.293 492.888C707.8 493.741 706.114 494.424 704.237 494.936C702.36 495.448 700.333 495.704 698.157 495.704C694.658 495.704 691.608 495.043 689.005 493.72C686.402 492.355 684.397 490.413 682.989 487.896C681.581 485.379 680.877 482.371 680.877 478.872Z" fill="var(--current-player)"/>
<path d="M537.2 403.92C537.2 400.293 537.776 397.072 538.928 394.256C540.08 391.44 541.637 389.072 543.6 387.152C545.605 385.189 547.888 383.696 550.448 382.672C553.051 381.648 555.803 381.136 558.704 381.136C561.435 381.136 563.995 381.52 566.384 382.288C568.773 383.013 571.12 384.144 573.424 385.68L568.816 393.04C567.323 391.888 565.744 390.992 564.08 390.352C562.459 389.712 560.709 389.392 558.832 389.392C556.485 389.392 554.352 389.947 552.432 391.056C550.555 392.123 549.061 393.744 547.952 395.92C546.843 398.053 546.288 400.72 546.288 403.92C546.288 407.077 546.843 409.787 547.952 412.048C549.061 414.267 550.555 415.973 552.432 417.168C554.352 418.32 556.528 418.896 558.96 418.896C560.155 418.896 561.392 418.747 562.672 418.448C563.952 418.107 565.189 417.595 566.384 416.912L574.704 420.816C572.315 422.693 569.755 424.144 567.024 425.168C564.336 426.192 561.456 426.704 558.384 426.704C555.525 426.704 552.816 426.192 550.256 425.168C547.739 424.144 545.499 422.672 543.536 420.752C541.573 418.789 540.016 416.4 538.864 413.584C537.755 410.768 537.2 407.547 537.2 403.92ZM557.296 409.872V402.384H570.736V409.872H557.296ZM566.064 421.52V402.384H574.704V420.816L566.064 421.52ZM581.69 417.296C581.69 415.248 582.223 413.413 583.29 411.792C584.399 410.171 586.127 408.869 588.474 407.888C590.82 406.864 593.828 406.288 597.498 406.16L602.682 405.968V411.024L598.01 411.28C595.834 411.451 594.127 411.792 592.89 412.304C591.652 412.816 590.778 413.435 590.266 414.16C589.754 414.843 589.498 415.589 589.498 416.4C589.498 417.552 589.86 418.469 590.586 419.152C591.354 419.792 592.314 420.112 593.466 420.112C595.087 420.112 596.623 419.707 598.074 418.896C599.567 418.085 600.89 417.019 602.042 415.696V420.88C600.975 422.587 599.503 423.995 597.626 425.104C595.748 426.171 593.658 426.704 591.354 426.704C589.604 426.704 588.004 426.32 586.554 425.552C585.103 424.784 583.93 423.696 583.034 422.288C582.138 420.88 581.69 419.216 581.69 417.296ZM582.714 394.896C584.292 394.085 586.212 393.381 588.474 392.784C590.778 392.187 593.124 391.888 595.514 391.888C598.244 391.888 600.655 392.4 602.746 393.424C604.836 394.405 606.479 395.877 607.674 397.84C608.911 399.803 609.53 402.235 609.53 405.136V418.064C609.53 418.96 609.551 419.771 609.594 420.496C609.679 421.221 609.807 422.053 609.978 422.992L610.49 426H602.362L601.082 419.6V405.712C601.082 403.536 600.506 401.893 599.354 400.784C598.244 399.675 596.559 399.12 594.298 399.12C592.548 399.12 590.906 399.376 589.37 399.888C587.834 400.357 586.426 400.933 585.146 401.616L582.714 394.896ZM618.41 392.592H626.474L627.754 398.992V426H619.37V400.528C619.37 399.632 619.327 398.843 619.242 398.16C619.199 397.435 619.093 396.603 618.922 395.664L618.41 392.592ZM626.794 403.728V397.968C628.031 396.176 629.546 394.725 631.338 393.616C633.173 392.464 635.178 391.888 637.354 391.888C639.274 391.888 641.023 392.357 642.602 393.296C644.223 394.235 645.525 395.685 646.506 397.648C647.487 399.568 647.978 402 647.978 404.944V426H639.594V406.16C639.594 403.899 639.082 402.256 638.058 401.232C637.077 400.165 635.797 399.632 634.218 399.632C632.938 399.632 631.637 399.995 630.314 400.72C628.991 401.403 627.818 402.405 626.794 403.728ZM646.25 398.096C647.103 396.901 648.085 395.835 649.194 394.896C650.346 393.957 651.605 393.232 652.97 392.72C654.378 392.165 655.829 391.888 657.322 391.888C659.285 391.888 661.077 392.357 662.698 393.296C664.362 394.235 665.685 395.685 666.666 397.648C667.69 399.568 668.202 402 668.202 404.944V426H659.754V406.16C659.754 403.899 659.263 402.256 658.282 401.232C657.301 400.165 656.021 399.632 654.442 399.632C653.119 399.632 651.797 399.995 650.474 400.72C649.194 401.403 648.042 402.405 647.018 403.728L646.25 398.096ZM675.752 409.872C675.752 406.16 676.435 402.96 677.8 400.272C679.208 397.584 681.107 395.515 683.496 394.064C685.885 392.613 688.616 391.888 691.688 391.888C694.589 391.888 697.128 392.549 699.304 393.872C701.48 395.195 703.165 397.093 704.36 399.568C705.597 402.043 706.216 405.051 706.216 408.592C706.216 409.232 706.195 409.829 706.152 410.384C706.109 410.939 706.045 411.408 705.96 411.792H682.024V406.16H699.816L698.088 408.72C698.088 405.136 697.491 402.555 696.296 400.976C695.101 399.397 693.501 398.608 691.496 398.608C690.088 398.608 688.808 398.992 687.656 399.76C686.547 400.528 685.672 401.723 685.032 403.344C684.392 404.923 684.072 406.949 684.072 409.424C684.072 411.771 684.477 413.712 685.288 415.248C686.141 416.741 687.293 417.872 688.744 418.64C690.237 419.365 691.944 419.728 693.864 419.728C695.229 419.728 696.573 419.515 697.896 419.088C699.261 418.661 700.477 418.149 701.544 417.552L704.168 423.888C702.675 424.741 700.989 425.424 699.112 425.936C697.235 426.448 695.208 426.704 693.032 426.704C689.533 426.704 686.483 426.043 683.88 424.72C681.277 423.355 679.272 421.413 677.864 418.896C676.456 416.379 675.752 413.371 675.752 409.872ZM710.924 423.248L714.253 416.784C715.533 417.637 717.026 418.384 718.733 419.024C720.439 419.621 722.189 419.92 723.981 419.92C725.815 419.92 727.095 419.664 727.821 419.152C728.589 418.597 728.973 417.915 728.973 417.104C728.973 416.549 728.802 416.059 728.461 415.632C728.119 415.163 727.543 414.736 726.733 414.352C725.965 413.968 724.919 413.563 723.597 413.136C719.415 411.728 716.471 410.149 714.765 408.4C713.058 406.608 712.205 404.475 712.205 402C712.205 400.123 712.738 398.416 713.805 396.88C714.871 395.344 716.386 394.128 718.349 393.232C720.354 392.336 722.701 391.888 725.389 391.888C727.394 391.888 729.378 392.165 731.341 392.72C733.346 393.232 735.117 393.957 736.653 394.896L733.453 401.232C732.258 400.549 730.893 399.952 729.357 399.44C727.821 398.928 726.327 398.672 724.877 398.672C723.383 398.672 722.253 398.928 721.485 399.44C720.717 399.909 720.333 400.528 720.333 401.296C720.333 401.851 720.503 402.341 720.845 402.768C721.186 403.195 721.762 403.6 722.573 403.984C723.426 404.368 724.599 404.795 726.093 405.264C728.909 406.203 731.149 407.227 732.813 408.336C734.519 409.403 735.735 410.597 736.461 411.92C737.229 413.243 737.613 414.757 737.613 416.464C737.613 418.469 737.015 420.24 735.821 421.776C734.669 423.312 733.047 424.528 730.957 425.424C728.866 426.277 726.37 426.704 723.469 426.704C720.994 426.704 718.669 426.384 716.493 425.744C714.359 425.061 712.503 424.229 710.924 423.248Z" fill="white"/>
<path d="M537.2 334.92C537.2 331.293 537.755 328.072 538.864 325.256C540.016 322.44 541.573 320.072 543.536 318.152C545.499 316.189 547.76 314.696 550.32 313.672C552.88 312.648 555.589 312.136 558.448 312.136C561.179 312.136 563.696 312.563 566 313.416C568.347 314.227 570.565 315.443 572.656 317.064L567.472 323.912C566.149 322.888 564.72 322.077 563.184 321.48C561.648 320.84 560.005 320.52 558.256 320.52C556.037 320.52 554.011 321.053 552.176 322.12C550.384 323.187 548.955 324.808 547.888 326.984C546.821 329.117 546.288 331.763 546.288 334.92C546.288 338.077 546.821 340.744 547.888 342.92C548.955 345.053 550.405 346.653 552.24 347.72C554.075 348.787 556.101 349.32 558.32 349.32C560.155 349.32 561.84 349 563.376 348.36C564.955 347.677 566.405 346.739 567.728 345.544L573.04 352.264C570.949 354.056 568.731 355.421 566.384 356.36C564.037 357.256 561.435 357.704 558.576 357.704C555.675 357.704 552.923 357.192 550.32 356.168C547.76 355.144 545.499 353.672 543.536 351.752C541.573 349.789 540.016 347.4 538.864 344.584C537.755 341.768 537.2 338.547 537.2 334.92ZM578.377 340.36C578.377 336.691 579.06 333.555 580.425 330.952C581.833 328.349 583.732 326.365 586.121 325C588.51 323.592 591.262 322.888 594.377 322.888C597.492 322.888 600.244 323.592 602.633 325C605.022 326.365 606.9 328.349 608.265 330.952C609.63 333.555 610.313 336.691 610.313 340.36C610.313 343.944 609.63 347.037 608.265 349.64C606.9 352.243 605.022 354.248 602.633 355.656C600.244 357.021 597.492 357.704 594.377 357.704C591.262 357.704 588.51 357.021 586.121 355.656C583.732 354.248 581.833 352.243 580.425 349.64C579.06 347.037 578.377 343.944 578.377 340.36ZM586.953 340.36C586.953 342.707 587.252 344.669 587.849 346.248C588.446 347.784 589.3 348.936 590.409 349.704C591.518 350.429 592.841 350.792 594.377 350.792C595.87 350.792 597.172 350.429 598.281 349.704C599.433 348.936 600.308 347.784 600.905 346.248C601.502 344.669 601.801 342.707 601.801 340.36C601.801 337.971 601.502 336.008 600.905 334.472C600.308 332.936 599.433 331.784 598.281 331.016C597.172 330.205 595.87 329.8 594.377 329.8C592.841 329.8 591.518 330.205 590.409 331.016C589.3 331.784 588.446 332.936 587.849 334.472C587.252 336.008 586.953 337.971 586.953 340.36ZM617.285 323.592H625.349L626.629 329.992V357H618.245V331.528C618.245 330.632 618.202 329.843 618.117 329.16C618.074 328.435 617.968 327.603 617.797 326.664L617.285 323.592ZM625.669 334.728V328.968C626.906 327.176 628.421 325.725 630.213 324.616C632.048 323.464 634.053 322.888 636.229 322.888C638.149 322.888 639.898 323.357 641.477 324.296C643.098 325.235 644.4 326.685 645.381 328.648C646.362 330.568 646.853 333 646.853 335.944V357H638.469V337.16C638.469 334.899 637.957 333.256 636.933 332.232C635.952 331.165 634.672 330.632 633.093 330.632C631.813 330.632 630.512 330.995 629.189 331.72C627.866 332.403 626.693 333.405 625.669 334.728ZM645.125 329.096C645.978 327.901 646.96 326.835 648.069 325.896C649.221 324.957 650.48 324.232 651.845 323.72C653.253 323.165 654.704 322.888 656.197 322.888C658.16 322.888 659.952 323.357 661.573 324.296C663.237 325.235 664.56 326.685 665.541 328.648C666.565 330.568 667.077 333 667.077 335.944V357H658.629V337.16C658.629 334.899 658.138 333.256 657.157 332.232C656.176 331.165 654.896 330.632 653.317 330.632C651.994 330.632 650.672 330.995 649.349 331.72C648.069 332.403 646.917 333.405 645.893 334.728L645.125 329.096ZM676.035 323.592H684.099L685.379 329.992V368.52L676.995 369.8V331.528C676.995 330.632 676.952 329.843 676.867 329.16C676.824 328.435 676.718 327.603 676.547 326.664L676.035 323.592ZM682.307 342.792L685.379 342.344C685.379 344.349 685.656 345.992 686.211 347.272C686.766 348.552 687.512 349.512 688.451 350.152C689.39 350.749 690.435 351.048 691.587 351.048C693.848 351.048 695.683 350.131 697.091 348.296C698.499 346.419 699.203 343.88 699.203 340.68C699.203 338.419 698.904 336.541 698.307 335.048C697.752 333.555 696.963 332.424 695.939 331.656C694.915 330.888 693.742 330.504 692.419 330.504C691.011 330.504 689.603 330.888 688.195 331.656C686.787 332.381 685.528 333.405 684.419 334.728V328.968C685.742 327.176 687.299 325.725 689.091 324.616C690.926 323.464 692.931 322.888 695.107 322.888C697.368 322.888 699.438 323.592 701.315 325C703.235 326.408 704.771 328.413 705.923 331.016C707.075 333.619 707.651 336.712 707.651 340.296C707.651 344.008 707.032 347.165 705.795 349.768C704.6 352.371 702.958 354.355 700.867 355.72C698.776 357.043 696.366 357.704 693.635 357.704C691.544 357.704 689.646 357.128 687.939 355.976C686.232 354.824 684.867 353.139 683.843 350.92C682.819 348.701 682.307 345.992 682.307 342.792ZM715.175 344.264V323.592H723.559V343.048C723.559 345.395 724.114 347.144 725.223 348.296C726.332 349.405 727.783 349.96 729.575 349.96C730.983 349.96 732.37 349.619 733.735 348.936C735.1 348.211 736.338 347.187 737.447 345.864V351.624C736.082 353.416 734.503 354.888 732.711 356.04C730.919 357.149 728.914 357.704 726.695 357.704C724.647 357.704 722.748 357.213 720.999 356.232C719.25 355.251 717.842 353.757 716.775 351.752C715.708 349.747 715.175 347.251 715.175 344.264ZM737.703 357L736.487 350.6V323.592H744.871V349.064C744.871 349.96 744.892 350.771 744.935 351.496C745.02 352.221 745.148 353.053 745.319 353.992L745.831 357H737.703ZM751.088 330.248V323.592H774.384V330.248H751.088ZM756.848 345.992V316.104L765.232 314.824V345.096C765.232 346.888 765.595 348.168 766.32 348.936C767.088 349.704 768.219 350.088 769.712 350.088C770.352 350.088 771.035 350.024 771.76 349.896C772.485 349.725 773.232 349.491 774 349.192L775.024 356.424C774 356.808 772.869 357.107 771.632 357.32C770.437 357.576 769.243 357.704 768.048 357.704C765.787 357.704 763.824 357.277 762.16 356.424C760.496 355.528 759.195 354.205 758.256 352.456C757.317 350.707 756.848 348.552 756.848 345.992ZM779.627 340.872C779.627 337.16 780.31 333.96 781.675 331.272C783.083 328.584 784.982 326.515 787.371 325.064C789.76 323.613 792.491 322.888 795.563 322.888C798.464 322.888 801.003 323.549 803.179 324.872C805.355 326.195 807.04 328.093 808.235 330.568C809.472 333.043 810.091 336.051 810.091 339.592C810.091 340.232 810.07 340.829 810.027 341.384C809.984 341.939 809.92 342.408 809.835 342.792H785.899V337.16H803.691L801.963 339.72C801.963 336.136 801.366 333.555 800.171 331.976C798.976 330.397 797.376 329.608 795.371 329.608C793.963 329.608 792.683 329.992 791.531 330.76C790.422 331.528 789.547 332.723 788.907 334.344C788.267 335.923 787.947 337.949 787.947 340.424C787.947 342.771 788.352 344.712 789.163 346.248C790.016 347.741 791.168 348.872 792.619 349.64C794.112 350.365 795.819 350.728 797.739 350.728C799.104 350.728 800.448 350.515 801.771 350.088C803.136 349.661 804.352 349.149 805.419 348.552L808.043 354.888C806.55 355.741 804.864 356.424 802.987 356.936C801.11 357.448 799.083 357.704 796.907 357.704C793.408 357.704 790.358 357.043 787.755 355.72C785.152 354.355 783.147 352.413 781.739 349.896C780.331 347.379 779.627 344.371 779.627 340.872ZM816.848 323.592H824.912L826.192 330.248V357H817.808V331.528C817.808 330.632 817.765 329.843 817.68 329.16C817.637 328.435 817.53 327.603 817.36 326.664L816.848 323.592ZM825.232 335.688V330.12C826.512 327.901 828.133 326.152 830.096 324.872C832.058 323.549 834.213 322.888 836.56 322.888V331.336C834.042 331.379 831.909 331.741 830.16 332.424C828.41 333.064 826.768 334.152 825.232 335.688Z" fill="white"/>
<path d="M539.76 288V243.84H548.656V288H539.76ZM543.984 288V280.128H570.288V288H543.984ZM543.984 269.44V261.952H566.896V269.44H543.984ZM543.984 251.712V243.84H569.968V251.712H543.984ZM578.473 254.592H586.537L587.817 260.992V288H579.433V262.528C579.433 261.632 579.39 260.843 579.305 260.16C579.262 259.435 579.155 258.603 578.985 257.664L578.473 254.592ZM586.857 265.728V259.968C588.222 258.176 589.822 256.725 591.657 255.616C593.491 254.464 595.539 253.888 597.801 253.888C599.849 253.888 601.747 254.4 603.497 255.424C605.289 256.405 606.718 257.877 607.785 259.84C608.894 261.803 609.449 264.299 609.449 267.328V288H601.065V268.608C601.065 266.987 600.787 265.664 600.233 264.64C599.721 263.616 598.995 262.869 598.057 262.4C597.161 261.888 596.115 261.632 594.921 261.632C593.513 261.632 592.083 261.995 590.633 262.72C589.225 263.403 587.966 264.405 586.857 265.728ZM615.338 261.248V254.592H638.634V261.248H615.338ZM621.098 276.992V247.104L629.482 245.824V276.096C629.482 277.888 629.845 279.168 630.57 279.936C631.338 280.704 632.469 281.088 633.962 281.088C634.602 281.088 635.285 281.024 636.01 280.896C636.735 280.725 637.482 280.491 638.25 280.192L639.274 287.424C638.25 287.808 637.119 288.107 635.882 288.32C634.687 288.576 633.493 288.704 632.298 288.704C630.037 288.704 628.074 288.277 626.41 287.424C624.746 286.528 623.445 285.205 622.506 283.456C621.567 281.707 621.098 279.552 621.098 276.992ZM643.877 271.872C643.877 268.16 644.56 264.96 645.925 262.272C647.333 259.584 649.232 257.515 651.621 256.064C654.01 254.613 656.741 253.888 659.813 253.888C662.714 253.888 665.253 254.549 667.429 255.872C669.605 257.195 671.29 259.093 672.485 261.568C673.722 264.043 674.341 267.051 674.341 270.592C674.341 271.232 674.32 271.829 674.277 272.384C674.234 272.939 674.17 273.408 674.085 273.792H650.149V268.16H667.941L666.213 270.72C666.213 267.136 665.616 264.555 664.421 262.976C663.226 261.397 661.626 260.608 659.621 260.608C658.213 260.608 656.933 260.992 655.781 261.76C654.672 262.528 653.797 263.723 653.157 265.344C652.517 266.923 652.197 268.949 652.197 271.424C652.197 273.771 652.602 275.712 653.413 277.248C654.266 278.741 655.418 279.872 656.869 280.64C658.362 281.365 660.069 281.728 661.989 281.728C663.354 281.728 664.698 281.515 666.021 281.088C667.386 280.661 668.602 280.149 669.669 279.552L672.293 285.888C670.8 286.741 669.114 287.424 667.237 287.936C665.36 288.448 663.333 288.704 661.157 288.704C657.658 288.704 654.608 288.043 652.005 286.72C649.402 285.355 647.397 283.413 645.989 280.896C644.581 278.379 643.877 275.371 643.877 271.872ZM681.098 254.592H689.162L690.442 261.248V288H682.058V262.528C682.058 261.632 682.015 260.843 681.93 260.16C681.887 259.435 681.78 258.603 681.61 257.664L681.098 254.592ZM689.482 266.688V261.12C690.762 258.901 692.383 257.152 694.346 255.872C696.308 254.549 698.463 253.888 700.81 253.888V262.336C698.292 262.379 696.159 262.741 694.41 263.424C692.66 264.064 691.018 265.152 689.482 266.688ZM703.401 261.248V254.592H726.697V261.248H703.401ZM709.161 276.992V247.104L717.545 245.824V276.096C717.545 277.888 717.907 279.168 718.633 279.936C719.401 280.704 720.531 281.088 722.025 281.088C722.665 281.088 723.347 281.024 724.073 280.896C724.798 280.725 725.545 280.491 726.313 280.192L727.337 287.424C726.313 287.808 725.182 288.107 723.945 288.32C722.75 288.576 721.555 288.704 720.361 288.704C718.099 288.704 716.137 288.277 714.473 287.424C712.809 286.528 711.507 285.205 710.569 283.456C709.63 281.707 709.161 279.552 709.161 276.992ZM731.94 279.296C731.94 277.248 732.473 275.413 733.54 273.792C734.649 272.171 736.377 270.869 738.724 269.888C741.07 268.864 744.078 268.288 747.748 268.16L752.932 267.968V273.024L748.26 273.28C746.084 273.451 744.377 273.792 743.14 274.304C741.902 274.816 741.028 275.435 740.516 276.16C740.004 276.843 739.748 277.589 739.748 278.4C739.748 279.552 740.11 280.469 740.836 281.152C741.604 281.792 742.564 282.112 743.716 282.112C745.337 282.112 746.873 281.707 748.324 280.896C749.817 280.085 751.14 279.019 752.292 277.696V282.88C751.225 284.587 749.753 285.995 747.876 287.104C745.998 288.171 743.908 288.704 741.604 288.704C739.854 288.704 738.254 288.32 736.804 287.552C735.353 286.784 734.18 285.696 733.284 284.288C732.388 282.88 731.94 281.216 731.94 279.296ZM732.964 256.896C734.542 256.085 736.462 255.381 738.724 254.784C741.028 254.187 743.374 253.888 745.764 253.888C748.494 253.888 750.905 254.4 752.996 255.424C755.086 256.405 756.729 257.877 757.924 259.84C759.161 261.803 759.78 264.235 759.78 267.136V280.064C759.78 280.96 759.801 281.771 759.844 282.496C759.929 283.221 760.057 284.053 760.228 284.992L760.74 288H752.612L751.332 281.6V267.712C751.332 265.536 750.756 263.893 749.604 262.784C748.494 261.675 746.809 261.12 744.548 261.12C742.798 261.12 741.156 261.376 739.62 261.888C738.084 262.357 736.676 262.933 735.396 263.616L732.964 256.896ZM769.62 288V254.592H778.004V288H769.62ZM768.852 244.928C768.852 243.52 769.3 242.325 770.196 241.344C771.135 240.363 772.329 239.872 773.78 239.872C775.273 239.872 776.468 240.363 777.364 241.344C778.303 242.325 778.772 243.52 778.772 244.928C778.772 246.293 778.303 247.467 777.364 248.448C776.468 249.429 775.273 249.92 773.78 249.92C772.329 249.92 771.135 249.429 770.196 248.448C769.3 247.467 768.852 246.293 768.852 244.928ZM787.285 254.592H795.349L796.629 260.992V288H788.245V262.528C788.245 261.632 788.202 260.843 788.117 260.16C788.074 259.435 787.968 258.603 787.797 257.664L787.285 254.592ZM795.669 265.728V259.968C797.034 258.176 798.634 256.725 800.469 255.616C802.304 254.464 804.352 253.888 806.613 253.888C808.661 253.888 810.56 254.4 812.309 255.424C814.101 256.405 815.53 257.877 816.597 259.84C817.706 261.803 818.261 264.299 818.261 267.328V288H809.877V268.608C809.877 266.987 809.6 265.664 809.045 264.64C808.533 263.616 807.808 262.869 806.869 262.4C805.973 261.888 804.928 261.632 803.733 261.632C802.325 261.632 800.896 261.995 799.445 262.72C798.037 263.403 796.778 264.405 795.669 265.728ZM827.223 254.592H835.287L836.567 260.992V288H828.183V262.528C828.183 261.632 828.14 260.843 828.055 260.16C828.012 259.435 827.905 258.603 827.735 257.664L827.223 254.592ZM835.607 265.728V259.968C836.844 258.176 838.359 256.725 840.151 255.616C841.985 254.464 843.991 253.888 846.167 253.888C848.087 253.888 849.836 254.357 851.415 255.296C853.036 256.235 854.337 257.685 855.319 259.648C856.3 261.568 856.791 264 856.791 266.944V288H848.407V268.16C848.407 265.899 847.895 264.256 846.871 263.232C845.889 262.165 844.609 261.632 843.031 261.632C841.751 261.632 840.449 261.995 839.127 262.72C837.804 263.403 836.631 264.405 835.607 265.728ZM855.062 260.096C855.916 258.901 856.897 257.835 858.007 256.896C859.159 255.957 860.417 255.232 861.783 254.72C863.191 254.165 864.641 253.888 866.135 253.888C868.097 253.888 869.889 254.357 871.511 255.296C873.175 256.235 874.497 257.685 875.479 259.648C876.503 261.568 877.015 264 877.015 266.944V288H868.567V268.16C868.567 265.899 868.076 264.256 867.095 263.232C866.113 262.165 864.833 261.632 863.255 261.632C861.932 261.632 860.609 261.995 859.287 262.72C858.007 263.403 856.855 264.405 855.831 265.728L855.062 260.096ZM884.565 271.872C884.565 268.16 885.247 264.96 886.613 262.272C888.021 259.584 889.919 257.515 892.309 256.064C894.698 254.613 897.429 253.888 900.501 253.888C903.402 253.888 905.941 254.549 908.117 255.872C910.293 257.195 911.978 259.093 913.173 261.568C914.41 264.043 915.029 267.051 915.029 270.592C915.029 271.232 915.007 271.829 914.965 272.384C914.922 272.939 914.858 273.408 914.773 273.792H890.837V268.16H908.629L906.901 270.72C906.901 267.136 906.303 264.555 905.109 262.976C903.914 261.397 902.314 260.608 900.309 260.608C898.901 260.608 897.621 260.992 896.469 261.76C895.359 262.528 894.485 263.723 893.845 265.344C893.205 266.923 892.885 268.949 892.885 271.424C892.885 273.771 893.29 275.712 894.101 277.248C894.954 278.741 896.106 279.872 897.557 280.64C899.05 281.365 900.757 281.728 902.677 281.728C904.042 281.728 905.386 281.515 906.709 281.088C908.074 280.661 909.29 280.149 910.357 279.552L912.981 285.888C911.487 286.741 909.802 287.424 907.925 287.936C906.047 288.448 904.021 288.704 901.845 288.704C898.346 288.704 895.295 288.043 892.693 286.72C890.09 285.355 888.085 283.413 886.677 280.896C885.269 278.379 884.565 275.371 884.565 271.872ZM921.785 254.592H929.849L931.129 260.992V288H922.745V262.528C922.745 261.632 922.702 260.843 922.617 260.16C922.574 259.435 922.468 258.603 922.297 257.664L921.785 254.592ZM930.169 265.728V259.968C931.534 258.176 933.134 256.725 934.969 255.616C936.804 254.464 938.852 253.888 941.113 253.888C943.161 253.888 945.06 254.4 946.809 255.424C948.601 256.405 950.03 257.877 951.097 259.84C952.206 261.803 952.761 264.299 952.761 267.328V288H944.377V268.608C944.377 266.987 944.1 265.664 943.545 264.64C943.033 263.616 942.308 262.869 941.369 262.4C940.473 261.888 939.428 261.632 938.233 261.632C936.825 261.632 935.396 261.995 933.945 262.72C932.537 263.403 931.278 264.405 930.169 265.728ZM958.651 261.248V254.592H981.947V261.248H958.651ZM964.411 276.992V247.104L972.795 245.824V276.096C972.795 277.888 973.157 279.168 973.883 279.936C974.651 280.704 975.781 281.088 977.275 281.088C977.915 281.088 978.597 281.024 979.323 280.896C980.048 280.725 980.795 280.491 981.563 280.192L982.587 287.424C981.563 287.808 980.432 288.107 979.195 288.32C978 288.576 976.805 288.704 975.611 288.704C973.349 288.704 971.387 288.277 969.723 287.424C968.059 286.528 966.757 285.205 965.819 283.456C964.88 281.707 964.411 279.552 964.411 276.992Z" fill="white"/>
<path d="M539.76 219V174.84H548.656V219H539.76ZM543.984 219V211.128H570.288V219H543.984ZM543.984 200.44V192.952H566.896V200.44H543.984ZM543.984 182.712V174.84H569.968V182.712H543.984ZM578.473 185.592H586.537L587.817 191.992V219H579.433V193.528C579.433 192.632 579.39 191.843 579.305 191.16C579.262 190.435 579.155 189.603 578.985 188.664L578.473 185.592ZM586.857 196.728V190.968C588.222 189.176 589.822 187.725 591.657 186.616C593.491 185.464 595.539 184.888 597.801 184.888C599.849 184.888 601.747 185.4 603.497 186.424C605.289 187.405 606.718 188.877 607.785 190.84C608.894 192.803 609.449 195.299 609.449 198.328V219H601.065V199.608C601.065 197.987 600.787 196.664 600.233 195.64C599.721 194.616 598.995 193.869 598.057 193.4C597.161 192.888 596.115 192.632 594.921 192.632C593.513 192.632 592.083 192.995 590.633 193.72C589.225 194.403 587.966 195.405 586.857 196.728ZM610.538 230.584L611.562 223.608C612.202 223.779 612.778 223.907 613.29 223.992C613.802 224.12 614.335 224.184 614.89 224.184C616.298 224.184 617.386 223.779 618.154 222.968C618.965 222.2 619.37 220.856 619.37 218.936V185.592H627.754V219.384C627.754 223.395 626.687 226.424 624.554 228.472C622.463 230.52 619.711 231.544 616.298 231.544C615.359 231.544 614.378 231.459 613.354 231.288C612.287 231.117 611.349 230.883 610.538 230.584ZM618.602 175.928C618.602 174.52 619.05 173.325 619.946 172.344C620.885 171.363 622.079 170.872 623.53 170.872C625.023 170.872 626.218 171.363 627.114 172.344C628.053 173.325 628.522 174.52 628.522 175.928C628.522 177.293 628.053 178.467 627.114 179.448C626.218 180.429 625.023 180.92 623.53 180.92C622.079 180.92 620.885 180.429 619.946 179.448C619.05 178.467 618.602 177.293 618.602 175.928ZM635.627 202.36C635.627 198.691 636.31 195.555 637.675 192.952C639.083 190.349 640.982 188.365 643.371 187C645.76 185.592 648.512 184.888 651.627 184.888C654.742 184.888 657.494 185.592 659.883 187C662.272 188.365 664.15 190.349 665.515 192.952C666.88 195.555 667.563 198.691 667.563 202.36C667.563 205.944 666.88 209.037 665.515 211.64C664.15 214.243 662.272 216.248 659.883 217.656C657.494 219.021 654.742 219.704 651.627 219.704C648.512 219.704 645.76 219.021 643.371 217.656C640.982 216.248 639.083 214.243 637.675 211.64C636.31 209.037 635.627 205.944 635.627 202.36ZM644.203 202.36C644.203 204.707 644.502 206.669 645.099 208.248C645.696 209.784 646.55 210.936 647.659 211.704C648.768 212.429 650.091 212.792 651.627 212.792C653.12 212.792 654.422 212.429 655.531 211.704C656.683 210.936 657.558 209.784 658.155 208.248C658.752 206.669 659.051 204.707 659.051 202.36C659.051 199.971 658.752 198.008 658.155 196.472C657.558 194.936 656.683 193.784 655.531 193.016C654.422 192.205 653.12 191.8 651.627 191.8C650.091 191.8 648.768 192.205 647.659 193.016C646.55 193.784 645.696 194.936 645.099 196.472C644.502 198.008 644.203 199.971 644.203 202.36ZM670.567 185.592H679.719L688.679 212.344L688.743 219H683.623L670.567 185.592ZM671.719 230.648L672.679 223.8C673.234 223.971 673.767 224.099 674.279 224.184C674.791 224.312 675.324 224.376 675.879 224.376C676.903 224.376 677.82 224.184 678.631 223.8C679.484 223.416 680.295 222.648 681.063 221.496C681.874 220.387 682.706 218.723 683.559 216.504L685.671 212.344L694.503 185.592H703.399L690.151 219.512C689.127 222.243 687.975 224.504 686.695 226.296C685.458 228.088 684.028 229.411 682.407 230.264C680.786 231.117 678.887 231.544 676.711 231.544C675.858 231.544 674.983 231.459 674.087 231.288C673.234 231.117 672.444 230.904 671.719 230.648ZM707.723 185.592H715.787L717.067 191.992V219H708.683V193.528C708.683 192.632 708.64 191.843 708.555 191.16C708.512 190.435 708.405 189.603 708.235 188.664L707.723 185.592ZM716.107 196.728V190.968C717.344 189.176 718.859 187.725 720.651 186.616C722.485 185.464 724.491 184.888 726.667 184.888C728.587 184.888 730.336 185.357 731.915 186.296C733.536 187.235 734.837 188.685 735.819 190.648C736.8 192.568 737.291 195 737.291 197.944V219H728.907V199.16C728.907 196.899 728.395 195.256 727.371 194.232C726.389 193.165 725.109 192.632 723.531 192.632C722.251 192.632 720.949 192.995 719.627 193.72C718.304 194.403 717.131 195.405 716.107 196.728ZM735.562 191.096C736.416 189.901 737.397 188.835 738.507 187.896C739.659 186.957 740.917 186.232 742.283 185.72C743.691 185.165 745.141 184.888 746.635 184.888C748.597 184.888 750.389 185.357 752.011 186.296C753.675 187.235 754.997 188.685 755.979 190.648C757.003 192.568 757.515 195 757.515 197.944V219H749.067V199.16C749.067 196.899 748.576 195.256 747.595 194.232C746.613 193.165 745.333 192.632 743.755 192.632C742.432 192.632 741.109 192.995 739.787 193.72C738.507 194.403 737.355 195.405 736.331 196.728L735.562 191.096ZM765.065 202.872C765.065 199.16 765.747 195.96 767.113 193.272C768.521 190.584 770.419 188.515 772.809 187.064C775.198 185.613 777.929 184.888 781.001 184.888C783.902 184.888 786.441 185.549 788.617 186.872C790.793 188.195 792.478 190.093 793.673 192.568C794.91 195.043 795.529 198.051 795.529 201.592C795.529 202.232 795.507 202.829 795.465 203.384C795.422 203.939 795.358 204.408 795.273 204.792H771.337V199.16H789.129L787.401 201.72C787.401 198.136 786.803 195.555 785.609 193.976C784.414 192.397 782.814 191.608 780.809 191.608C779.401 191.608 778.121 191.992 776.969 192.76C775.859 193.528 774.985 194.723 774.345 196.344C773.705 197.923 773.385 199.949 773.385 202.424C773.385 204.771 773.79 206.712 774.601 208.248C775.454 209.741 776.606 210.872 778.057 211.64C779.55 212.365 781.257 212.728 783.177 212.728C784.542 212.728 785.886 212.515 787.209 212.088C788.574 211.661 789.79 211.149 790.857 210.552L793.481 216.888C791.987 217.741 790.302 218.424 788.425 218.936C786.547 219.448 784.521 219.704 782.345 219.704C778.846 219.704 775.795 219.043 773.193 217.72C770.59 216.355 768.585 214.413 767.177 211.896C765.769 209.379 765.065 206.371 765.065 202.872ZM802.285 185.592H810.349L811.629 191.992V219H803.245V193.528C803.245 192.632 803.202 191.843 803.117 191.16C803.074 190.435 802.968 189.603 802.797 188.664L802.285 185.592ZM810.669 196.728V190.968C812.034 189.176 813.634 187.725 815.469 186.616C817.304 185.464 819.352 184.888 821.613 184.888C823.661 184.888 825.56 185.4 827.309 186.424C829.101 187.405 830.53 188.877 831.597 190.84C832.706 192.803 833.261 195.299 833.261 198.328V219H824.877V199.608C824.877 197.987 824.6 196.664 824.045 195.64C823.533 194.616 822.808 193.869 821.869 193.4C820.973 192.888 819.928 192.632 818.733 192.632C817.325 192.632 815.896 192.995 814.445 193.72C813.037 194.403 811.778 195.405 810.669 196.728ZM839.151 192.248V185.592H862.447V192.248H839.151ZM844.911 207.992V178.104L853.295 176.824V207.096C853.295 208.888 853.657 210.168 854.383 210.936C855.151 211.704 856.281 212.088 857.775 212.088C858.415 212.088 859.097 212.024 859.823 211.896C860.548 211.725 861.295 211.491 862.063 211.192L863.087 218.424C862.063 218.808 860.932 219.107 859.695 219.32C858.5 219.576 857.305 219.704 856.111 219.704C853.849 219.704 851.887 219.277 850.223 218.424C848.559 217.528 847.257 216.205 846.319 214.456C845.38 212.707 844.911 210.552 844.911 207.992Z" fill="white"/>
<path d="M539.76 150V105.84H548.656V150H539.76ZM543.984 150V142.128H570.288V150H543.984ZM543.984 131.44V123.952H566.896V131.44H543.984ZM543.984 113.712V105.84H569.968V113.712H543.984ZM578.473 116.592H586.537L587.817 122.992V150H579.433V124.528C579.433 123.632 579.39 122.843 579.305 122.16C579.262 121.435 579.155 120.603 578.985 119.664L578.473 116.592ZM586.857 127.728V121.968C588.222 120.176 589.822 118.725 591.657 117.616C593.491 116.464 595.539 115.888 597.801 115.888C599.849 115.888 601.747 116.4 603.497 117.424C605.289 118.405 606.718 119.877 607.785 121.84C608.894 123.803 609.449 126.299 609.449 129.328V150H601.065V130.608C601.065 128.987 600.787 127.664 600.233 126.64C599.721 125.616 598.995 124.869 598.057 124.4C597.161 123.888 596.115 123.632 594.921 123.632C593.513 123.632 592.083 123.995 590.633 124.72C589.225 125.403 587.966 126.405 586.857 127.728ZM610.538 161.584L611.562 154.608C612.202 154.779 612.778 154.907 613.29 154.992C613.802 155.12 614.335 155.184 614.89 155.184C616.298 155.184 617.386 154.779 618.154 153.968C618.965 153.2 619.37 151.856 619.37 149.936V116.592H627.754V150.384C627.754 154.395 626.687 157.424 624.554 159.472C622.463 161.52 619.711 162.544 616.298 162.544C615.359 162.544 614.378 162.459 613.354 162.288C612.287 162.117 611.349 161.883 610.538 161.584ZM618.602 106.928C618.602 105.52 619.05 104.325 619.946 103.344C620.885 102.363 622.079 101.872 623.53 101.872C625.023 101.872 626.218 102.363 627.114 103.344C628.053 104.325 628.522 105.52 628.522 106.928C628.522 108.293 628.053 109.467 627.114 110.448C626.218 111.429 625.023 111.92 623.53 111.92C622.079 111.92 620.885 111.429 619.946 110.448C619.05 109.467 618.602 108.293 618.602 106.928ZM635.627 133.36C635.627 129.691 636.31 126.555 637.675 123.952C639.083 121.349 640.982 119.365 643.371 118C645.76 116.592 648.512 115.888 651.627 115.888C654.742 115.888 657.494 116.592 659.883 118C662.272 119.365 664.15 121.349 665.515 123.952C666.88 126.555 667.563 129.691 667.563 133.36C667.563 136.944 666.88 140.037 665.515 142.64C664.15 145.243 662.272 147.248 659.883 148.656C657.494 150.021 654.742 150.704 651.627 150.704C648.512 150.704 645.76 150.021 643.371 148.656C640.982 147.248 639.083 145.243 637.675 142.64C636.31 140.037 635.627 136.944 635.627 133.36ZM644.203 133.36C644.203 135.707 644.502 137.669 645.099 139.248C645.696 140.784 646.55 141.936 647.659 142.704C648.768 143.429 650.091 143.792 651.627 143.792C653.12 143.792 654.422 143.429 655.531 142.704C656.683 141.936 657.558 140.784 658.155 139.248C658.752 137.669 659.051 135.707 659.051 133.36C659.051 130.971 658.752 129.008 658.155 127.472C657.558 125.936 656.683 124.784 655.531 124.016C654.422 123.205 653.12 122.8 651.627 122.8C650.091 122.8 648.768 123.205 647.659 124.016C646.55 124.784 645.696 125.936 645.099 127.472C644.502 129.008 644.203 130.971 644.203 133.36ZM670.567 116.592H679.719L688.679 143.344L688.743 150H683.623L670.567 116.592ZM671.719 161.648L672.679 154.8C673.234 154.971 673.767 155.099 674.279 155.184C674.791 155.312 675.324 155.376 675.879 155.376C676.903 155.376 677.82 155.184 678.631 154.8C679.484 154.416 680.295 153.648 681.063 152.496C681.874 151.387 682.706 149.723 683.559 147.504L685.671 143.344L694.503 116.592H703.399L690.151 150.512C689.127 153.243 687.975 155.504 686.695 157.296C685.458 159.088 684.028 160.411 682.407 161.264C680.786 162.117 678.887 162.544 676.711 162.544C675.858 162.544 674.983 162.459 674.087 162.288C673.234 162.117 672.444 161.904 671.719 161.648ZM707.723 116.592H715.787L717.067 122.992V150H708.683V124.528C708.683 123.632 708.64 122.843 708.555 122.16C708.512 121.435 708.405 120.603 708.235 119.664L707.723 116.592ZM716.107 127.728V121.968C717.344 120.176 718.859 118.725 720.651 117.616C722.485 116.464 724.491 115.888 726.667 115.888C728.587 115.888 730.336 116.357 731.915 117.296C733.536 118.235 734.837 119.685 735.819 121.648C736.8 123.568 737.291 126 737.291 128.944V150H728.907V130.16C728.907 127.899 728.395 126.256 727.371 125.232C726.389 124.165 725.109 123.632 723.531 123.632C722.251 123.632 720.949 123.995 719.627 124.72C718.304 125.403 717.131 126.405 716.107 127.728ZM735.562 122.096C736.416 120.901 737.397 119.835 738.507 118.896C739.659 117.957 740.917 117.232 742.283 116.72C743.691 116.165 745.141 115.888 746.635 115.888C748.597 115.888 750.389 116.357 752.011 117.296C753.675 118.235 754.997 119.685 755.979 121.648C757.003 123.568 757.515 126 757.515 128.944V150H749.067V130.16C749.067 127.899 748.576 126.256 747.595 125.232C746.613 124.165 745.333 123.632 743.755 123.632C742.432 123.632 741.109 123.995 739.787 124.72C738.507 125.403 737.355 126.405 736.331 127.728L735.562 122.096ZM765.065 133.872C765.065 130.16 765.747 126.96 767.113 124.272C768.521 121.584 770.419 119.515 772.809 118.064C775.198 116.613 777.929 115.888 781.001 115.888C783.902 115.888 786.441 116.549 788.617 117.872C790.793 119.195 792.478 121.093 793.673 123.568C794.91 126.043 795.529 129.051 795.529 132.592C795.529 133.232 795.507 133.829 795.465 134.384C795.422 134.939 795.358 135.408 795.273 135.792H771.337V130.16H789.129L787.401 132.72C787.401 129.136 786.803 126.555 785.609 124.976C784.414 123.397 782.814 122.608 780.809 122.608C779.401 122.608 778.121 122.992 776.969 123.76C775.859 124.528 774.985 125.723 774.345 127.344C773.705 128.923 773.385 130.949 773.385 133.424C773.385 135.771 773.79 137.712 774.601 139.248C775.454 140.741 776.606 141.872 778.057 142.64C779.55 143.365 781.257 143.728 783.177 143.728C784.542 143.728 785.886 143.515 787.209 143.088C788.574 142.661 789.79 142.149 790.857 141.552L793.481 147.888C791.987 148.741 790.302 149.424 788.425 149.936C786.547 150.448 784.521 150.704 782.345 150.704C778.846 150.704 775.795 150.043 773.193 148.72C770.59 147.355 768.585 145.413 767.177 142.896C765.769 140.379 765.065 137.371 765.065 133.872ZM802.285 116.592H810.349L811.629 122.992V150H803.245V124.528C803.245 123.632 803.202 122.843 803.117 122.16C803.074 121.435 802.968 120.603 802.797 119.664L802.285 116.592ZM810.669 127.728V121.968C812.034 120.176 813.634 118.725 815.469 117.616C817.304 116.464 819.352 115.888 821.613 115.888C823.661 115.888 825.56 116.4 827.309 117.424C829.101 118.405 830.53 119.877 831.597 121.84C832.706 123.803 833.261 126.299 833.261 129.328V150H824.877V130.608C824.877 128.987 824.6 127.664 824.045 126.64C823.533 125.616 822.808 124.869 821.869 124.4C820.973 123.888 819.928 123.632 818.733 123.632C817.325 123.632 815.896 123.995 814.445 124.72C813.037 125.403 811.778 126.405 810.669 127.728ZM839.151 123.248V116.592H862.447V123.248H839.151ZM844.911 138.992V109.104L853.295 107.824V138.096C853.295 139.888 853.657 141.168 854.383 141.936C855.151 142.704 856.281 143.088 857.775 143.088C858.415 143.088 859.097 143.024 859.823 142.896C860.548 142.725 861.295 142.491 862.063 142.192L863.087 149.424C862.063 149.808 860.932 150.107 859.695 150.32C858.5 150.576 857.305 150.704 856.111 150.704C853.849 150.704 851.887 150.277 850.223 149.424C848.559 148.528 847.257 147.205 846.319 145.456C845.38 143.707 844.911 141.552 844.911 138.992Z" fill="white"/>
<path d="M539.76 81V36.84H548.656V81H539.76ZM543.984 81V73.128H570.288V81H543.984ZM543.984 62.44V54.952H566.896V62.44H543.984ZM543.984 44.712V36.84H569.968V44.712H543.984ZM578.473 47.592H586.537L587.817 53.992V81H579.433V55.528C579.433 54.632 579.39 53.8427 579.305 53.16C579.262 52.4347 579.155 51.6027 578.985 50.664L578.473 47.592ZM586.857 58.728V52.968C588.222 51.176 589.822 49.7253 591.657 48.616C593.491 47.464 595.539 46.888 597.801 46.888C599.849 46.888 601.747 47.4 603.497 48.424C605.289 49.4053 606.718 50.8773 607.785 52.84C608.894 54.8027 609.449 57.2987 609.449 60.328V81H601.065V61.608C601.065 59.9867 600.787 58.664 600.233 57.64C599.721 56.616 598.995 55.8693 598.057 55.4C597.161 54.888 596.115 54.632 594.921 54.632C593.513 54.632 592.083 54.9947 590.633 55.72C589.225 56.4027 587.966 57.4053 586.857 58.728ZM610.538 92.584L611.562 85.608C612.202 85.7787 612.778 85.9067 613.29 85.992C613.802 86.12 614.335 86.184 614.89 86.184C616.298 86.184 617.386 85.7787 618.154 84.968C618.965 84.2 619.37 82.856 619.37 80.936V47.592H627.754V81.384C627.754 85.3947 626.687 88.424 624.554 90.472C622.463 92.52 619.711 93.544 616.298 93.544C615.359 93.544 614.378 93.4587 613.354 93.288C612.287 93.1173 611.349 92.8827 610.538 92.584ZM618.602 37.928C618.602 36.52 619.05 35.3253 619.946 34.344C620.885 33.3627 622.079 32.872 623.53 32.872C625.023 32.872 626.218 33.3627 627.114 34.344C628.053 35.3253 628.522 36.52 628.522 37.928C628.522 39.2933 628.053 40.4667 627.114 41.448C626.218 42.4293 625.023 42.92 623.53 42.92C622.079 42.92 620.885 42.4293 619.946 41.448C619.05 40.4667 618.602 39.2933 618.602 37.928ZM635.627 64.36C635.627 60.6907 636.31 57.5547 637.675 54.952C639.083 52.3493 640.982 50.3653 643.371 49C645.76 47.592 648.512 46.888 651.627 46.888C654.742 46.888 657.494 47.592 659.883 49C662.272 50.3653 664.15 52.3493 665.515 54.952C666.88 57.5547 667.563 60.6907 667.563 64.36C667.563 67.944 666.88 71.0373 665.515 73.64C664.15 76.2427 662.272 78.248 659.883 79.656C657.494 81.0213 654.742 81.704 651.627 81.704C648.512 81.704 645.76 81.0213 643.371 79.656C640.982 78.248 639.083 76.2427 637.675 73.64C636.31 71.0373 635.627 67.944 635.627 64.36ZM644.203 64.36C644.203 66.7067 644.502 68.6693 645.099 70.248C645.696 71.784 646.55 72.936 647.659 73.704C648.768 74.4293 650.091 74.792 651.627 74.792C653.12 74.792 654.422 74.4293 655.531 73.704C656.683 72.936 657.558 71.784 658.155 70.248C658.752 68.6693 659.051 66.7067 659.051 64.36C659.051 61.9707 658.752 60.008 658.155 58.472C657.558 56.936 656.683 55.784 655.531 55.016C654.422 54.2053 653.12 53.8 651.627 53.8C650.091 53.8 648.768 54.2053 647.659 55.016C646.55 55.784 645.696 56.936 645.099 58.472C644.502 60.008 644.203 61.9707 644.203 64.36ZM670.567 47.592H679.719L688.679 74.344L688.743 81H683.623L670.567 47.592ZM671.719 92.648L672.679 85.8C673.234 85.9707 673.767 86.0987 674.279 86.184C674.791 86.312 675.324 86.376 675.879 86.376C676.903 86.376 677.82 86.184 678.631 85.8C679.484 85.416 680.295 84.648 681.063 83.496C681.874 82.3867 682.706 80.7227 683.559 78.504L685.671 74.344L694.503 47.592H703.399L690.151 81.512C689.127 84.2427 687.975 86.504 686.695 88.296C685.458 90.088 684.028 91.4107 682.407 92.264C680.786 93.1173 678.887 93.544 676.711 93.544C675.858 93.544 674.983 93.4587 674.087 93.288C673.234 93.1173 672.444 92.904 671.719 92.648ZM707.723 47.592H715.787L717.067 53.992V81H708.683V55.528C708.683 54.632 708.64 53.8427 708.555 53.16C708.512 52.4347 708.405 51.6027 708.235 50.664L707.723 47.592ZM716.107 58.728V52.968C717.344 51.176 718.859 49.7253 720.651 48.616C722.485 47.464 724.491 46.888 726.667 46.888C728.587 46.888 730.336 47.3573 731.915 48.296C733.536 49.2347 734.837 50.6853 735.819 52.648C736.8 54.568 737.291 57 737.291 59.944V81H728.907V61.16C728.907 58.8987 728.395 57.256 727.371 56.232C726.389 55.1653 725.109 54.632 723.531 54.632C722.251 54.632 720.949 54.9947 719.627 55.72C718.304 56.4027 717.131 57.4053 716.107 58.728ZM735.562 53.096C736.416 51.9013 737.397 50.8347 738.507 49.896C739.659 48.9573 740.917 48.232 742.283 47.72C743.691 47.1653 745.141 46.888 746.635 46.888C748.597 46.888 750.389 47.3573 752.011 48.296C753.675 49.2347 754.997 50.6853 755.979 52.648C757.003 54.568 757.515 57 757.515 59.944V81H749.067V61.16C749.067 58.8987 748.576 57.256 747.595 56.232C746.613 55.1653 745.333 54.632 743.755 54.632C742.432 54.632 741.109 54.9947 739.787 55.72C738.507 56.4027 737.355 57.4053 736.331 58.728L735.562 53.096ZM765.065 64.872C765.065 61.16 765.747 57.96 767.113 55.272C768.521 52.584 770.419 50.5147 772.809 49.064C775.198 47.6133 777.929 46.888 781.001 46.888C783.902 46.888 786.441 47.5493 788.617 48.872C790.793 50.1947 792.478 52.0933 793.673 54.568C794.91 57.0427 795.529 60.0507 795.529 63.592C795.529 64.232 795.507 64.8293 795.465 65.384C795.422 65.9387 795.358 66.408 795.273 66.792H771.337V61.16H789.129L787.401 63.72C787.401 60.136 786.803 57.5547 785.609 55.976C784.414 54.3973 782.814 53.608 780.809 53.608C779.401 53.608 778.121 53.992 776.969 54.76C775.859 55.528 774.985 56.7227 774.345 58.344C773.705 59.9227 773.385 61.9493 773.385 64.424C773.385 66.7707 773.79 68.712 774.601 70.248C775.454 71.7413 776.606 72.872 778.057 73.64C779.55 74.3653 781.257 74.728 783.177 74.728C784.542 74.728 785.886 74.5147 787.209 74.088C788.574 73.6613 789.79 73.1493 790.857 72.552L793.481 78.888C791.987 79.7413 790.302 80.424 788.425 80.936C786.547 81.448 784.521 81.704 782.345 81.704C778.846 81.704 775.795 81.0427 773.193 79.72C770.59 78.3547 768.585 76.4133 767.177 73.896C765.769 71.3787 765.065 68.3707 765.065 64.872ZM802.285 47.592H810.349L811.629 53.992V81H803.245V55.528C803.245 54.632 803.202 53.8427 803.117 53.16C803.074 52.4347 802.968 51.6027 802.797 50.664L802.285 47.592ZM810.669 58.728V52.968C812.034 51.176 813.634 49.7253 815.469 48.616C817.304 47.464 819.352 46.888 821.613 46.888C823.661 46.888 825.56 47.4 827.309 48.424C829.101 49.4053 830.53 50.8773 831.597 52.84C832.706 54.8027 833.261 57.2987 833.261 60.328V81H824.877V61.608C824.877 59.9867 824.6 58.664 824.045 57.64C823.533 56.616 822.808 55.8693 821.869 55.4C820.973 54.888 819.928 54.632 818.733 54.632C817.325 54.632 815.896 54.9947 814.445 55.72C813.037 56.4027 811.778 57.4053 810.669 58.728ZM839.151 54.248V47.592H862.447V54.248H839.151ZM844.911 69.992V40.104L853.295 38.824V69.096C853.295 70.888 853.657 72.168 854.383 72.936C855.151 73.704 856.281 74.088 857.775 74.088C858.415 74.088 859.097 74.024 859.823 73.896C860.548 73.7253 861.295 73.4907 862.063 73.192L863.087 80.424C862.063 80.808 860.932 81.1067 859.695 81.32C858.5 81.576 857.305 81.704 856.111 81.704C853.849 81.704 851.887 81.2773 850.223 80.424C848.559 79.528 847.257 78.2053 846.319 76.456C845.38 74.7067 844.911 72.552 844.911 69.992Z" fill="white"/>
</g>
<path d="M0.384 450.84H9.792L19.136 485.784L19.072 495H13.824L0.384 450.84ZM17.024 485.784L27.072 450.84H32.448V459.608L22.016 495H17.152L17.024 485.784ZM28.864 459.608V450.84H34.496L44.544 485.784L44.416 495H39.232L28.864 459.608ZM42.432 485.784L51.712 450.84H60.864L47.488 495H42.56L42.432 485.784ZM62.8145 478.872C62.8145 475.16 63.4972 471.96 64.8625 469.272C66.2705 466.584 68.1692 464.515 70.5585 463.064C72.9478 461.613 75.6785 460.888 78.7505 460.888C81.6518 460.888 84.1905 461.549 86.3665 462.872C88.5425 464.195 90.2278 466.093 91.4225 468.568C92.6598 471.043 93.2785 474.051 93.2785 477.592C93.2785 478.232 93.2572 478.829 93.2145 479.384C93.1718 479.939 93.1078 480.408 93.0225 480.792H69.0865V475.16H86.8785L85.1505 477.72C85.1505 474.136 84.5532 471.555 83.3585 469.976C82.1638 468.397 80.5638 467.608 78.5585 467.608C77.1505 467.608 75.8705 467.992 74.7185 468.76C73.6092 469.528 72.7345 470.723 72.0945 472.344C71.4545 473.923 71.1345 475.949 71.1345 478.424C71.1345 480.771 71.5398 482.712 72.3505 484.248C73.2038 485.741 74.3558 486.872 75.8065 487.64C77.2998 488.365 79.0065 488.728 80.9265 488.728C82.2918 488.728 83.6358 488.515 84.9585 488.088C86.3238 487.661 87.5398 487.149 88.6065 486.552L91.2305 492.888C89.7372 493.741 88.0518 494.424 86.1745 494.936C84.2972 495.448 82.2705 495.704 80.0945 495.704C76.5958 495.704 73.5452 495.043 70.9425 493.72C68.3398 492.355 66.3345 490.413 64.9265 487.896C63.5185 485.379 62.8145 482.371 62.8145 478.872ZM100.995 495V449.24L109.379 447.96V495H100.995ZM117.252 478.872C117.252 475.203 117.999 472.024 119.492 469.336C120.985 466.648 123.012 464.579 125.572 463.128C128.132 461.635 131.033 460.888 134.276 460.888C136.239 460.888 138.073 461.187 139.78 461.784C141.529 462.339 143.087 463.085 144.452 464.024L140.932 470.616C140.121 469.891 139.14 469.315 137.988 468.888C136.879 468.461 135.684 468.248 134.404 468.248C132.825 468.248 131.375 468.632 130.052 469.4C128.772 470.168 127.748 471.32 126.98 472.856C126.212 474.392 125.828 476.333 125.828 478.68C125.828 480.771 126.212 482.541 126.98 483.992C127.748 485.4 128.793 486.467 130.116 487.192C131.439 487.917 132.911 488.28 134.532 488.28C135.812 488.28 137.028 488.067 138.18 487.64C139.375 487.213 140.377 486.68 141.188 486.04L144.644 492.568C143.279 493.507 141.657 494.275 139.78 494.872C137.903 495.427 135.876 495.704 133.7 495.704C130.457 495.704 127.599 495.043 125.124 493.72C122.649 492.397 120.708 490.477 119.3 487.96C117.935 485.4 117.252 482.371 117.252 478.872ZM149.19 478.36C149.19 474.691 149.872 471.555 151.238 468.952C152.646 466.349 154.544 464.365 156.934 463C159.323 461.592 162.075 460.888 165.19 460.888C168.304 460.888 171.056 461.592 173.446 463C175.835 464.365 177.712 466.349 179.078 468.952C180.443 471.555 181.126 474.691 181.126 478.36C181.126 481.944 180.443 485.037 179.078 487.64C177.712 490.243 175.835 492.248 173.446 493.656C171.056 495.021 168.304 495.704 165.19 495.704C162.075 495.704 159.323 495.021 156.934 493.656C154.544 492.248 152.646 490.243 151.238 487.64C149.872 485.037 149.19 481.944 149.19 478.36ZM157.766 478.36C157.766 480.707 158.064 482.669 158.662 484.248C159.259 485.784 160.112 486.936 161.222 487.704C162.331 488.429 163.654 488.792 165.19 488.792C166.683 488.792 167.984 488.429 169.094 487.704C170.246 486.936 171.12 485.784 171.718 484.248C172.315 482.669 172.614 480.707 172.614 478.36C172.614 475.971 172.315 474.008 171.718 472.472C171.12 470.936 170.246 469.784 169.094 469.016C167.984 468.205 166.683 467.8 165.19 467.8C163.654 467.8 162.331 468.205 161.222 469.016C160.112 469.784 159.259 470.936 158.662 472.472C158.064 474.008 157.766 475.971 157.766 478.36ZM188.098 461.592H196.162L197.442 467.992V495H189.058V469.528C189.058 468.632 189.015 467.843 188.93 467.16C188.887 466.435 188.78 465.603 188.61 464.664L188.098 461.592ZM196.482 472.728V466.968C197.719 465.176 199.234 463.725 201.026 462.616C202.86 461.464 204.866 460.888 207.042 460.888C208.962 460.888 210.711 461.357 212.29 462.296C213.911 463.235 215.212 464.685 216.194 466.648C217.175 468.568 217.666 471 217.666 473.944V495H209.282V475.16C209.282 472.899 208.77 471.256 207.746 470.232C206.764 469.165 205.484 468.632 203.906 468.632C202.626 468.632 201.324 468.995 200.002 469.72C198.679 470.403 197.506 471.405 196.482 472.728ZM215.938 467.096C216.791 465.901 217.772 464.835 218.882 463.896C220.034 462.957 221.292 462.232 222.658 461.72C224.066 461.165 225.516 460.888 227.01 460.888C228.972 460.888 230.764 461.357 232.386 462.296C234.05 463.235 235.372 464.685 236.354 466.648C237.378 468.568 237.89 471 237.89 473.944V495H229.442V475.16C229.442 472.899 228.951 471.256 227.97 470.232C226.988 469.165 225.708 468.632 224.13 468.632C222.807 468.632 221.484 468.995 220.162 469.72C218.882 470.403 217.73 471.405 216.706 472.728L215.938 467.096ZM245.44 478.872C245.44 475.16 246.122 471.96 247.488 469.272C248.896 466.584 250.794 464.515 253.184 463.064C255.573 461.613 258.304 460.888 261.376 460.888C264.277 460.888 266.816 461.549 268.992 462.872C271.168 464.195 272.853 466.093 274.048 468.568C275.285 471.043 275.904 474.051 275.904 477.592C275.904 478.232 275.882 478.829 275.84 479.384C275.797 479.939 275.733 480.408 275.648 480.792H251.712V475.16H269.504L267.776 477.72C267.776 474.136 267.178 471.555 265.984 469.976C264.789 468.397 263.189 467.608 261.184 467.608C259.776 467.608 258.496 467.992 257.344 468.76C256.234 469.528 255.36 470.723 254.72 472.344C254.08 473.923 253.76 475.949 253.76 478.424C253.76 480.771 254.165 482.712 254.976 484.248C255.829 485.741 256.981 486.872 258.432 487.64C259.925 488.365 261.632 488.728 263.552 488.728C264.917 488.728 266.261 488.515 267.584 488.088C268.949 487.661 270.165 487.149 271.232 486.552L273.856 492.888C272.362 493.741 270.677 494.424 268.8 494.936C266.922 495.448 264.896 495.704 262.72 495.704C259.221 495.704 256.17 495.043 253.568 493.72C250.965 492.355 248.96 490.413 247.552 487.896C246.144 485.379 245.44 482.371 245.44 478.872ZM295.588 468.248V461.592H318.884V468.248H295.588ZM301.348 483.992V454.104L309.732 452.824V483.096C309.732 484.888 310.095 486.168 310.82 486.936C311.588 487.704 312.719 488.088 314.212 488.088C314.852 488.088 315.535 488.024 316.26 487.896C316.985 487.725 317.732 487.491 318.5 487.192L319.524 494.424C318.5 494.808 317.369 495.107 316.132 495.32C314.937 495.576 313.743 495.704 312.548 495.704C310.287 495.704 308.324 495.277 306.66 494.424C304.996 493.528 303.695 492.205 302.756 490.456C301.817 488.707 301.348 486.552 301.348 483.992ZM324.127 478.36C324.127 474.691 324.81 471.555 326.175 468.952C327.583 466.349 329.482 464.365 331.871 463C334.26 461.592 337.012 460.888 340.127 460.888C343.242 460.888 345.994 461.592 348.383 463C350.772 464.365 352.65 466.349 354.015 468.952C355.38 471.555 356.063 474.691 356.063 478.36C356.063 481.944 355.38 485.037 354.015 487.64C352.65 490.243 350.772 492.248 348.383 493.656C345.994 495.021 343.242 495.704 340.127 495.704C337.012 495.704 334.26 495.021 331.871 493.656C329.482 492.248 327.583 490.243 326.175 487.64C324.81 485.037 324.127 481.944 324.127 478.36ZM332.703 478.36C332.703 480.707 333.002 482.669 333.599 484.248C334.196 485.784 335.05 486.936 336.159 487.704C337.268 488.429 338.591 488.792 340.127 488.792C341.62 488.792 342.922 488.429 344.031 487.704C345.183 486.936 346.058 485.784 346.655 484.248C347.252 482.669 347.551 480.707 347.551 478.36C347.551 475.971 347.252 474.008 346.655 472.472C346.058 470.936 345.183 469.784 344.031 469.016C342.922 468.205 341.62 467.8 340.127 467.8C338.591 467.8 337.268 468.205 336.159 469.016C335.05 469.784 334.196 470.936 333.599 472.472C333.002 474.008 332.703 475.971 332.703 478.36ZM375.067 461.592H384.219L393.179 488.344L393.243 495H388.123L375.067 461.592ZM376.219 506.648L377.179 499.8C377.734 499.971 378.267 500.099 378.779 500.184C379.291 500.312 379.824 500.376 380.379 500.376C381.403 500.376 382.32 500.184 383.131 499.8C383.984 499.416 384.795 498.648 385.563 497.496C386.374 496.387 387.206 494.723 388.059 492.504L390.171 488.344L399.003 461.592H407.899L394.651 495.512C393.627 498.243 392.475 500.504 391.195 502.296C389.958 504.088 388.528 505.411 386.907 506.264C385.286 507.117 383.387 507.544 381.211 507.544C380.358 507.544 379.483 507.459 378.587 507.288C377.734 507.117 376.944 506.904 376.219 506.648ZM410.815 478.36C410.815 474.691 411.497 471.555 412.863 468.952C414.271 466.349 416.169 464.365 418.559 463C420.948 461.592 423.7 460.888 426.815 460.888C429.929 460.888 432.681 461.592 435.071 463C437.46 464.365 439.337 466.349 440.703 468.952C442.068 471.555 442.751 474.691 442.751 478.36C442.751 481.944 442.068 485.037 440.703 487.64C439.337 490.243 437.46 492.248 435.071 493.656C432.681 495.021 429.929 495.704 426.815 495.704C423.7 495.704 420.948 495.021 418.559 493.656C416.169 492.248 414.271 490.243 412.863 487.64C411.497 485.037 410.815 481.944 410.815 478.36ZM419.391 478.36C419.391 480.707 419.689 482.669 420.287 484.248C420.884 485.784 421.737 486.936 422.847 487.704C423.956 488.429 425.279 488.792 426.815 488.792C428.308 488.792 429.609 488.429 430.719 487.704C431.871 486.936 432.745 485.784 433.343 484.248C433.94 482.669 434.239 480.707 434.239 478.36C434.239 475.971 433.94 474.008 433.343 472.472C432.745 470.936 431.871 469.784 430.719 469.016C429.609 468.205 428.308 467.8 426.815 467.8C425.279 467.8 423.956 468.205 422.847 469.016C421.737 469.784 420.884 470.936 420.287 472.472C419.689 474.008 419.391 475.971 419.391 478.36ZM450.363 482.264V461.592H458.747V481.048C458.747 483.395 459.301 485.144 460.411 486.296C461.52 487.405 462.971 487.96 464.763 487.96C466.171 487.96 467.557 487.619 468.923 486.936C470.288 486.211 471.525 485.187 472.635 483.864V489.624C471.269 491.416 469.691 492.888 467.899 494.04C466.107 495.149 464.101 495.704 461.883 495.704C459.835 495.704 457.936 495.213 456.187 494.232C454.437 493.251 453.029 491.757 451.963 489.752C450.896 487.747 450.363 485.251 450.363 482.264ZM472.891 495L471.675 488.6V461.592H480.059V487.064C480.059 487.96 480.08 488.771 480.123 489.496C480.208 490.221 480.336 491.053 480.507 491.992L481.019 495H472.891ZM489.348 461.592H497.412L498.692 468.248V495H490.308V469.528C490.308 468.632 490.265 467.843 490.18 467.16C490.137 466.435 490.03 465.603 489.86 464.664L489.348 461.592ZM497.732 473.688V468.12C499.012 465.901 500.633 464.152 502.596 462.872C504.558 461.549 506.713 460.888 509.06 460.888V469.336C506.542 469.379 504.409 469.741 502.66 470.424C500.91 471.064 499.268 472.152 497.732 473.688Z" fill="white"/>
<defs>
<linearGradient id="paint0_linear_1988_711" x1="792" y1="0" x2="792" y2="426" gradientUnits="userSpaceOnUse">
<stop offset="0.465" stop-color="#14141A" stop-opacity="0"/>
<stop offset="1" stop-color="#14141A"/>
</linearGradient>
<linearGradient id="paint1_linear_1988_711" x1="258" y1="0" x2="258" y2="464" gradientUnits="userSpaceOnUse">
<stop offset="0.465" stop-color="#14141A" stop-opacity="0"/>
<stop offset="1" stop-color="#14141A"/>
</linearGradient>
</defs>
</svg>
