<svg
  width="400"
  height="600"
  viewBox="0 0 400 600"
  fill="none"
  xmlns="http://www.w3.org/2000/svg"
>
  <rect width="400" height="600" fill="black" fill-opacity="0.36" />
  <path
    d="M134.236 300.773V286.951H193.679V300.773H134.236ZM156.148 364.486V286.951H171.767V364.486H156.148ZM197.388 286.951H214.131L235.369 349.316L235.032 364.486H225.818L197.388 286.951ZM231.549 349.316L252.674 286.951H268.967L240.538 364.486H232.11L231.549 349.316Z"
    fill="white"
  />
  <path
    d="M284.667 247.083H115.334C103.644 247.083 94.167 256.56 94.167 268.25V384.667C94.167 396.357 103.644 405.833 115.334 405.833H284.667C296.357 405.833 305.834 396.357 305.834 384.667V268.25C305.834 256.56 296.357 247.083 284.667 247.083Z"
    stroke="white"
    stroke-width="21.1667"
    stroke-linecap="round"
    stroke-linejoin="round"
  />
  <path
    d="M252.916 194.167L200 247.083L147.083 194.167"
    stroke="white"
    stroke-width="21.1667"
    stroke-linecap="round"
    stroke-linejoin="round"
  />
</svg>
