<svg
  width="400"
  height="600"
  viewBox="0 0 400 600"
  fill="none"
  xmlns="http://www.w3.org/2000/svg"
>
  <g clip-path="url(#clip0_2926_4)">
    <rect width="400" height="600" fill="black" fill-opacity="0.64" />
    <path
      opacity="0.22"
      d="M186.514 339.956C186.514 336.56 187.646 333.778 189.909 331.609C192.173 329.345 195.002 328.213 198.398 328.213C201.887 328.213 204.717 329.345 206.886 331.609C209.055 333.778 210.14 336.56 210.14 339.956C210.14 343.257 209.055 346.039 206.886 348.302C204.717 350.472 201.887 351.556 198.398 351.556C195.002 351.556 192.173 350.472 189.909 348.302C187.646 346.039 186.514 343.257 186.514 339.956ZM165.718 266.107C169.773 261.58 174.583 257.902 180.148 255.072C185.807 252.243 191.843 250.828 198.256 250.828C204.104 250.828 209.291 251.96 213.818 254.224C218.345 256.393 221.882 259.505 224.429 263.561C227.069 267.522 228.39 272.191 228.39 277.566C228.39 280.867 227.824 283.98 226.692 286.904C225.56 289.827 223.721 292.657 221.175 295.392C218.723 298.033 215.327 300.815 210.989 303.739C209.857 304.399 208.914 305.153 208.159 306.002C207.499 306.757 207.028 307.653 206.745 308.69C206.462 309.633 206.273 310.765 206.179 312.086L205.754 316.896H190.758L190.051 308.832C189.768 305.342 190.192 302.371 191.324 299.919C192.55 297.467 194.437 295.345 196.983 293.553C199.812 291.666 202.029 289.922 203.632 288.318C205.33 286.621 206.509 285.017 207.169 283.508C207.829 281.999 208.159 280.537 208.159 279.123C208.159 277.236 207.688 275.539 206.745 274.03C205.801 272.521 204.434 271.342 202.642 270.493C200.85 269.55 198.728 269.078 196.276 269.078C192.503 269.078 189.108 269.927 186.09 271.625C183.072 273.322 180.054 276.057 177.036 279.83L165.718 266.107Z"
      fill="white"
    />
  </g>
  <defs>
    <clipPath id="clip0_2926_4">
      <rect width="400" height="600" fill="white" />
    </clipPath>
  </defs>
</svg>
